<svg width="494" height="494" viewBox="0 0 494 494" fill="none" xmlns="http://www.w3.org/2000/svg">
<mask id="mask0_317_3548" style="mask-type:alpha" maskUnits="userSpaceOnUse" x="0" y="0" width="494" height="494">
<circle cx="247" cy="247" r="247" fill="#F2F2F2"/>
</mask>
<g mask="url(#mask0_317_3548)">
<circle cx="247" cy="247" r="247" fill="#F2F2F2"/>
<path d="M254.207 493.88C430.205 493.88 572.879 480.488 572.879 463.967C572.879 447.446 430.205 434.053 254.207 434.053C78.2094 434.053 -64.4648 447.446 -64.4648 463.967C-64.4648 480.488 78.2094 493.88 254.207 493.88Z" fill="#A7ACA2"/>
<path opacity="0.1" d="M238.64 478.008C402.332 478.008 535.03 471.721 535.03 463.967C535.03 456.212 402.332 449.926 238.64 449.926C74.949 449.926 -57.749 456.212 -57.749 463.967C-57.749 471.721 74.949 478.008 238.64 478.008Z" fill="black"/>
<path d="M402.606 63.3408V96.9009H358.915V462.899H450.098V110.832V96.9009V63.3408H402.606Z" fill="#8E9089"/>
<path d="M161.986 288.765V231.143H106.263V288.765H85.3672V463.532H182.248V288.765H161.986Z" fill="#8E9089"/>
<path d="M171.483 382.48H96.1309V464.165H171.483V382.48Z" fill="#A7ACA2"/>
<path opacity="0.1" d="M108.162 382.48H96.1309V464.165H108.162V382.48Z" fill="black"/>
<path d="M326.621 44.9773V64.6069H215.175V44.9773H182.248V464.165H358.915V44.9773H326.621Z" fill="#A7ACA2"/>
<path opacity="0.1" d="M351.316 44.9777H326.621V64.6073H351.316V44.9777Z" fill="black"/>
<path opacity="0.1" d="M206.943 44.9777H182.248V464.165H206.943V44.9777Z" fill="black"/>
<path d="M56.2389 164.655V148.824H39.7754V164.655H10.0137V464.165H85.3668V164.655H56.2389Z" fill="#A7ACA2"/>
<path opacity="0.1" d="M48.6404 148.825H39.7754V164.655H48.6404V148.825Z" fill="black"/>
<path opacity="0.1" d="M18.8787 164.655H10.0137V464.165H18.8787V164.655Z" fill="black"/>
<path opacity="0.1" d="M351.316 206.447H326.621V464.165H351.316V206.447Z" fill="black"/>
<path opacity="0.1" d="M85.367 164.655H62.5713V219.745H85.367V164.655Z" fill="black"/>
<path d="M244.936 98.1675H209.477V113.365H244.936V98.1675Z" fill="white"/>
<path d="M320.289 254.571H284.829V269.768H320.289V254.571Z" fill="white"/>
<path d="M244.936 364.117H209.477V379.314H244.936V364.117Z" fill="white"/>
<path d="M65.7373 233.042H30.2773V248.239H65.7373V233.042Z" fill="white"/>
<path d="M151.854 391.345H116.394V406.542H151.854V391.345Z" fill="white"/>
<path opacity="0.1" d="M164.518 302.062H103.729V327.391H164.518V302.062Z" fill="black"/>
<path opacity="0.1" d="M430.468 126.029H369.68V151.357H430.468V126.029Z" fill="black"/>
<path opacity="0.1" d="M430.468 179.852H369.68V205.181H430.468V179.852Z" fill="black"/>
<path opacity="0.1" d="M430.468 233.675H369.68V259.004H430.468V233.675Z" fill="black"/>
<path opacity="0.1" d="M430.468 287.498H369.68V312.827H430.468V287.498Z" fill="black"/>
<path opacity="0.1" d="M430.468 341.321H369.68V366.65H430.468V341.321Z" fill="black"/>
<path opacity="0.1" d="M430.468 395.145H369.68V420.473H430.468V395.145Z" fill="black"/>
<path d="M470.994 240.64V171.62H426.668V240.64H410.838V464.165H486.191V240.64H470.994Z" fill="#A7ACA2"/>
<path opacity="0.1" d="M440.599 171.62H426.668V240.641H440.599V171.62Z" fill="black"/>
<path opacity="0.1" d="M424.769 240.641H410.838V464.165H424.769V240.641Z" fill="black"/>
<path opacity="0.1" d="M486.191 352.719H448.831V374.882H486.191V352.719Z" fill="black"/>
<path d="M485.558 319.792H450.098V334.989H485.558V319.792Z" fill="white"/>
<path d="M460.814 362.181C460.814 418.595 427.277 438.293 385.907 438.293C344.537 438.293 311 418.595 311 362.181C311 305.768 385.907 234 385.907 234C385.907 234 460.814 305.768 460.814 362.181Z" fill="#4A773C"/>
<path d="M383.179 429.663L383.946 382.45L415.873 324.04L384.066 375.043L384.411 353.814L406.415 311.555L384.502 348.197L385.123 310.016L408.684 276.372L385.219 304.012L385.607 234L383.172 326.682L383.372 322.859L359.416 286.19L382.988 330.199L380.755 372.841L380.689 371.709L353.072 333.12L380.606 375.707L380.326 381.04L380.276 381.12L380.299 381.557L374.636 489.744H382.203L383.11 433.864L410.577 391.381L383.179 429.663Z" fill="#A7ACA2"/>
<path d="M171.814 338.181C171.814 394.595 138.277 414.292 96.9071 414.292C55.537 414.292 22 394.595 22 338.181C22 281.767 96.9071 210 96.9071 210C96.9071 210 171.814 281.767 171.814 338.181Z" fill="#4A773C"/>
<path d="M94.1786 405.663L94.9456 358.45L126.873 300.04L95.0664 351.043L95.411 329.814L117.415 287.555L95.5026 324.196V324.197L96.1227 286.016L119.685 252.372L96.2203 280.012L96.608 210L94.1717 302.682L94.3721 298.859L70.4157 262.19L93.9878 306.198L91.7561 348.84L91.6896 347.709L64.0723 309.12L91.6059 351.707L91.3269 357.039L91.2768 357.12L91.2993 357.557L85.6364 465.743H93.2027L94.1104 409.864L121.577 367.381L94.1786 405.663Z" fill="#A7ACA2"/>
</g>
</svg>
