<svg width="494" height="494" viewBox="0 0 494 494" fill="none" xmlns="http://www.w3.org/2000/svg">
<mask id="mask0_307_697" style="mask-type:alpha" maskUnits="userSpaceOnUse" x="0" y="0" width="494" height="494">
<circle cx="247" cy="247" r="247" fill="#F2F2F2"/>
</mask>
<g mask="url(#mask0_307_697)">
<circle cx="247" cy="247" r="247" fill="#F2F2F2"/>
<path d="M254.207 493.88C430.205 493.88 572.879 480.488 572.879 463.967C572.879 447.446 430.205 434.053 254.207 434.053C78.2094 434.053 -64.4648 447.446 -64.4648 463.967C-64.4648 480.488 78.2094 493.88 254.207 493.88Z" fill="#3F3D56"/>
<path opacity="0.1" d="M238.64 478.008C402.331 478.008 535.029 471.722 535.029 463.967C535.029 456.212 402.331 449.926 238.64 449.926C74.9485 449.926 -57.7495 456.212 -57.7495 463.967C-57.7495 471.722 74.9485 478.008 238.64 478.008Z" fill="black"/>
<path d="M402.606 63.3408V96.9009H358.915V462.899H450.098V110.832V96.9009V63.3408H402.606Z" fill="#575A89"/>
<path d="M161.985 288.764V231.143H106.262V288.764H85.3667V463.532H182.248V288.764H161.985Z" fill="#575A89"/>
<path d="M171.484 382.48H96.1313V464.165H171.484V382.48Z" fill="#3F3D56"/>
<path opacity="0.1" d="M108.162 382.48H96.1313V464.165H108.162V382.48Z" fill="black"/>
<path d="M326.621 44.9775V64.6071H215.175V44.9775H182.248V464.165H358.915V44.9775H326.621Z" fill="#3F3D56"/>
<path opacity="0.1" d="M351.316 44.9775H326.621V64.6072H351.316V44.9775Z" fill="black"/>
<path opacity="0.1" d="M206.943 44.9775H182.248V464.165H206.943V44.9775Z" fill="black"/>
<path d="M56.2389 164.655V148.824H39.7754V164.655H10.0137V464.165H85.3668V164.655H56.2389Z" fill="#3F3D56"/>
<path opacity="0.1" d="M48.6399 148.825H39.7749V164.655H48.6399V148.825Z" fill="black"/>
<path opacity="0.1" d="M18.8791 164.655H10.0142V464.165H18.8791V164.655Z" fill="black"/>
<path opacity="0.1" d="M351.316 206.447H326.621V464.165H351.316V206.447Z" fill="black"/>
<path opacity="0.1" d="M85.3665 164.655H62.5708V219.744H85.3665V164.655Z" fill="black"/>
<path d="M244.936 98.1675H209.477V113.365H244.936V98.1675Z" fill="white"/>
<path d="M320.289 254.571H284.829V269.768H320.289V254.571Z" fill="white"/>
<path d="M244.936 364.117H209.477V379.314H244.936V364.117Z" fill="white"/>
<path d="M65.7368 233.042H30.2769V248.239H65.7368V233.042Z" fill="white"/>
<path d="M151.854 391.345H116.394V406.542H151.854V391.345Z" fill="white"/>
<path opacity="0.1" d="M164.518 302.062H103.729V327.391H164.518V302.062Z" fill="black"/>
<path opacity="0.1" d="M430.468 126.029H369.679V151.357H430.468V126.029Z" fill="black"/>
<path opacity="0.1" d="M430.468 179.852H369.679V205.181H430.468V179.852Z" fill="black"/>
<path opacity="0.1" d="M430.468 233.675H369.679V259.004H430.468V233.675Z" fill="black"/>
<path opacity="0.1" d="M430.468 287.499H369.679V312.827H430.468V287.499Z" fill="black"/>
<path opacity="0.1" d="M430.468 341.321H369.679V366.65H430.468V341.321Z" fill="black"/>
<path opacity="0.1" d="M430.468 395.145H369.679V420.473H430.468V395.145Z" fill="black"/>
<path d="M470.994 240.64V171.62H426.668V240.64H410.838V464.165H486.191V240.64H470.994Z" fill="#3F3D56"/>
<path opacity="0.1" d="M440.599 171.62H426.668V240.64H440.599V171.62Z" fill="black"/>
<path opacity="0.1" d="M424.769 240.641H410.838V464.165H424.769V240.641Z" fill="black"/>
<path opacity="0.1" d="M486.191 352.719H448.831V374.882H486.191V352.719Z" fill="black"/>
<path d="M485.558 319.792H450.098V334.989H485.558V319.792Z" fill="white"/>
<path d="M460.814 362.181C460.814 418.595 427.277 438.293 385.907 438.293C344.537 438.293 311 418.595 311 362.181C311 305.768 385.907 234 385.907 234C385.907 234 460.814 305.768 460.814 362.181Z" fill="#57B894"/>
<path d="M383.178 429.663L383.945 382.45L415.872 324.04L384.065 375.043L384.411 353.814L406.414 311.555L384.501 348.197L385.122 310.016L408.684 276.372L385.219 304.012L385.607 234L383.171 326.682L383.372 322.859L359.415 286.19L382.987 330.199L380.755 372.841L380.688 371.709L353.072 333.12L380.605 375.707L380.326 381.04L380.275 381.12L380.299 381.557L374.636 489.744H382.202L383.11 433.864L410.576 391.381L383.178 429.663Z" fill="#3F3D56"/>
<path d="M171.814 338.181C171.814 394.595 138.277 414.292 96.9071 414.292C55.537 414.292 22 394.595 22 338.181C22 281.767 96.9071 210 96.9071 210C96.9071 210 171.814 281.767 171.814 338.181Z" fill="#57B894"/>
<path d="M94.1782 405.663L94.9451 358.45L126.873 300.04L95.066 351.043L95.4105 329.814L117.414 287.555L95.5021 324.196V324.197L96.1222 286.016L119.685 252.372L96.2198 280.012L96.6076 210L94.1712 302.682L94.3716 298.859L70.4152 262.19L93.9873 306.198L91.7556 348.84L91.6891 347.709L64.0718 309.12L91.6054 351.707L91.3264 357.039L91.2763 357.12L91.2988 357.557L85.6359 465.743H93.2022L94.1099 409.864L121.576 367.381L94.1782 405.663Z" fill="#3F3D56"/>
</g>
</svg>
