<svg width="494" height="493" viewBox="0 0 494 493" fill="none" xmlns="http://www.w3.org/2000/svg">
<g clip-path="url(#clip0_307_2054)">
<path d="M494 246.5C494.055 280.839 486.899 314.807 472.993 346.206C472.545 347.221 472.09 348.229 471.628 349.231C471.401 349.735 471.167 350.233 470.933 350.737C470.7 351.235 470.466 351.739 470.226 352.237C469.919 352.882 469.611 353.522 469.298 354.161C468.91 354.966 468.517 355.765 468.111 356.564C468.062 356.675 468.006 356.786 467.945 356.896C467.607 357.573 467.269 358.249 466.918 358.925C466.844 359.072 466.77 359.22 466.69 359.361C466.291 360.148 465.879 360.935 465.461 361.716V361.722C465.018 362.552 464.573 363.379 464.126 364.205C463.019 366.246 461.882 368.269 460.713 370.272C460.363 370.869 460.018 371.465 459.662 372.055C459.336 372.608 459.01 373.155 458.678 373.703C458.45 374.084 458.223 374.459 457.989 374.834C457.62 375.442 457.245 376.051 456.864 376.659C456.858 376.666 456.858 376.666 456.858 376.672C456.015 378.024 455.154 379.37 454.287 380.704H454.281C453.881 381.325 453.476 381.94 453.07 382.554V382.561C451.846 384.405 450.598 386.23 449.325 388.038V388.044C449.32 388.044 449.316 388.047 449.313 388.05V388.056L449.3 388.068C448.292 389.513 447.263 390.945 446.213 392.365V392.371C445.543 393.281 444.867 394.191 444.184 395.088C443.624 395.826 443.059 396.562 442.487 397.295C442.37 397.455 442.247 397.609 442.118 397.769V397.775C441.964 397.978 441.81 398.174 441.644 398.377V398.383C439.215 401.488 436.713 404.53 434.136 407.512H434.13C433.995 407.678 433.853 407.838 433.712 407.997C433.576 408.157 433.429 408.317 433.287 408.483H433.281C433.066 408.735 432.845 408.987 432.623 409.239C432.408 409.491 432.181 409.743 431.953 409.995V410.001C418.523 425.149 403.281 438.589 386.571 450.019C384.345 451.55 382.09 453.04 379.807 454.488C379.241 454.851 378.675 455.207 378.104 455.564C377.931 455.681 377.759 455.785 377.587 455.89C377.286 456.08 376.978 456.271 376.671 456.461C376.369 456.646 376.062 456.836 375.755 457.021C374.531 457.771 373.295 458.508 372.059 459.234C371.751 459.418 371.438 459.596 371.124 459.781C370.817 459.959 370.503 460.137 370.189 460.316C370.185 460.322 370.18 460.328 370.174 460.332C370.167 460.336 370.16 460.339 370.153 460.34L370.14 460.346L370.128 460.359H370.122C368.572 461.25 367.016 462.129 365.442 462.977C362.626 464.514 359.781 465.996 356.907 467.422C356.194 467.778 355.474 468.129 354.755 468.479C354.158 468.768 353.556 469.057 352.959 469.34C352.793 469.42 352.633 469.5 352.467 469.573C351.969 469.807 351.471 470.04 350.973 470.268C350.432 470.526 349.884 470.772 349.343 471.018C348.735 471.294 348.132 471.565 347.523 471.835C345.236 472.856 342.923 473.839 340.605 474.786C332.323 478.176 323.859 481.103 315.252 483.552C314.852 483.669 314.446 483.785 314.04 483.896C310.357 484.929 306.647 485.873 302.91 486.73C296.386 488.23 289.802 489.461 283.158 490.424C283.146 490.424 283.128 490.43 283.115 490.43C282.322 490.547 281.523 490.658 280.729 490.769C280.662 490.781 280.588 490.793 280.514 490.799C280.508 490.805 280.502 490.805 280.49 490.799C280.49 490.799 280.49 490.805 280.483 490.799C279.604 490.916 278.725 491.033 277.839 491.144C277.778 491.156 277.716 491.162 277.655 491.168C276.831 491.267 276.001 491.365 275.17 491.457C274.279 491.555 273.387 491.648 272.489 491.74C271.807 491.807 271.124 491.875 270.442 491.937C270.381 491.949 270.319 491.955 270.257 491.955C269.636 492.01 269.015 492.066 268.394 492.115C268.369 492.115 268.339 492.121 268.314 492.121C267.773 492.17 267.232 492.207 266.691 492.25C260.326 492.754 253.9 493.004 247.412 493C240.372 493 233.402 492.707 226.505 492.121C226.48 492.121 226.456 492.115 226.431 492.115C224.961 491.992 223.494 491.857 222.028 491.709C221.641 491.672 221.259 491.629 220.872 491.592C220.798 491.586 220.724 491.58 220.651 491.568C220.534 491.555 220.417 491.543 220.294 491.531C220.233 491.525 220.165 491.519 220.103 491.506C219.593 491.451 219.083 491.396 218.566 491.334C217.994 491.266 217.416 491.199 216.844 491.125C216.272 491.057 215.694 490.984 215.122 490.904C215 490.892 214.87 490.879 214.747 490.855C214.329 490.805 213.911 490.75 213.499 490.689C213.296 490.664 213.099 490.633 212.903 490.603C212.503 490.547 212.109 490.492 211.71 490.43C211.697 490.43 211.679 490.424 211.667 490.424C199.109 488.611 186.713 485.818 174.592 482.07H174.586C173.928 481.868 173.27 481.659 172.612 481.45C172.416 481.394 172.219 481.333 172.022 481.265C170.313 480.718 168.613 480.153 166.924 479.569C164.594 478.769 162.279 477.933 159.982 477.06C159.354 476.821 158.733 476.581 158.106 476.341C156.858 475.849 155.616 475.358 154.38 474.854C152.27 473.993 150.176 473.106 148.095 472.192H148.089V472.186C146.146 471.331 144.217 470.45 142.302 469.543C142.246 469.526 142.192 469.501 142.143 469.469C142.136 469.469 142.136 469.463 142.13 469.463C141.706 469.266 141.282 469.063 140.857 468.86L140.845 468.854C130.297 463.8 120.127 457.994 110.412 451.482C107.294 449.398 104.23 447.245 101.219 445.022C98.79 443.233 96.3958 441.399 94.0365 439.52C82.2845 430.183 71.4085 419.794 61.5436 408.483H61.5375V408.477C60.8426 407.684 60.1662 406.897 59.4774 406.098V406.092C59.3791 405.981 59.2868 405.871 59.1946 405.76C58.758 405.25 58.3337 404.746 57.9094 404.229V404.223C57.3313 403.541 56.7656 402.856 56.2122 402.17C56.0892 402.022 55.9723 401.881 55.8555 401.734H55.8494V401.727C55.3943 401.174 54.9454 400.615 54.5027 400.055C54.2751 399.779 54.0538 399.496 53.8324 399.213H53.8263V399.207C52.4857 397.517 51.1718 395.81 49.8845 394.086V394.08C49.5279 393.607 49.1774 393.134 48.833 392.654H48.8269C47.1789 390.429 45.5739 388.177 44.012 385.899V385.892C43.4216 385.038 42.8374 384.177 42.2594 383.311C41.6814 382.444 41.1095 381.575 40.5438 380.704H40.5376C39.9534 379.807 39.3754 378.905 38.8035 377.999C38.7728 377.95 38.742 377.907 38.7174 377.864C38.1517 376.973 37.5941 376.075 37.0448 375.172C36.6021 374.453 36.1655 373.739 35.7412 373.02C35.446 372.535 35.157 372.055 34.8741 371.563C34.7696 371.397 34.6774 371.231 34.5851 371.072C33.9333 369.959 33.2938 368.846 32.6542 367.728C31.9102 366.412 31.1722 365.084 30.4528 363.757C30.1576 363.209 29.8625 362.656 29.5734 362.103C29.4689 361.925 29.3767 361.746 29.2844 361.562C28.9401 360.91 28.5957 360.259 28.2575 359.601C27.9193 358.949 27.5811 358.292 27.249 357.634C26.9169 356.976 26.5849 356.319 26.259 355.655C26.013 355.157 25.767 354.653 25.5272 354.155C25.5022 354.113 25.4797 354.07 25.4595 354.026C25.3489 353.792 25.232 353.565 25.1275 353.331C25.1029 353.295 25.0843 353.256 25.0721 353.214C24.82 352.698 24.574 352.188 24.3342 351.671C24.0145 351.007 23.707 350.337 23.3995 349.667C23.1782 349.2 22.9691 348.727 22.7539 348.253C22.4464 347.59 22.1451 346.92 21.8499 346.243C21.5363 345.549 21.235 344.848 20.9336 344.147C20.8537 343.969 20.7799 343.797 20.7061 343.619C20.5647 343.299 20.4294 342.979 20.2941 342.66C19.9313 341.811 19.5746 340.951 19.2241 340.096C18.8244 339.131 18.435 338.164 18.0557 337.195C17.6929 336.291 17.3404 335.385 16.9981 334.478L16.8689 334.146V334.14C11.5258 320.102 7.4831 305.604 4.7917 290.827V290.821C3.25708 282.384 2.16513 273.873 1.52031 265.323C1.48342 264.855 1.45264 264.388 1.42192 263.921C1.01607 258.137 0.81724 252.33 0.825439 246.5C0.825439 243.912 0.866432 241.336 0.948423 238.773C2.5428 185.182 21.6534 133.587 55.3575 91.8812C56.8394 90.0432 58.3481 88.2277 59.8834 86.4348C105.105 33.5326 172.342 0 247.412 0C335.182 0 412.245 45.8392 455.935 114.878C458.211 118.455 460.387 122.098 462.466 125.807C483.205 162.65 494.067 204.225 494 246.5V246.5Z" fill="#F2F2F2"/>
<path d="M366.82 439.981C365.934 442.428 365.051 444.874 364.169 447.321C364.003 447.788 363.831 448.249 363.665 448.716C361.415 454.949 359.162 461.185 356.907 467.422C356.194 467.779 355.474 468.129 354.755 468.479C354.158 468.768 353.556 469.057 352.959 469.34C352.793 469.42 352.633 469.5 352.467 469.573C351.969 469.807 351.471 470.041 350.973 470.268C350.432 470.526 349.885 470.772 349.343 471.018C348.735 471.295 348.132 471.565 347.523 471.836C347.207 471.012 347.026 470.142 346.988 469.26C346.962 467.875 347.125 466.494 347.474 465.154C348.009 462.941 348.858 460.771 349.417 458.552C349.448 458.447 349.473 458.337 349.497 458.232C350.745 452.934 350.168 447.37 347.861 442.44C346.472 439.502 344.479 436.828 343.612 433.693C342.859 430.749 343.193 427.632 344.553 424.915C345.058 423.861 345.692 422.874 346.441 421.976C346.619 421.749 346.81 421.534 347.007 421.319C348.815 419.332 351.219 417.984 353.857 417.477C358.906 416.579 364.182 419.265 367.004 423.482C368.161 425.177 368.866 427.138 369.052 429.181C369.359 432.875 368.08 436.496 366.82 439.981Z" fill="#E4E4E4"/>
<path d="M352.879 464.951C351.723 462.818 349.786 460.949 349.417 458.552C348.218 450.855 345.328 445.335 340.538 442.206C339.148 441.303 338.927 439.305 338.072 437.866C337.691 437.221 337.303 436.576 336.903 435.942C336.258 434.891 335.585 433.861 334.886 432.85C333.561 430.898 332.1 429.041 330.514 427.293C329.856 426.562 329.161 425.855 328.442 425.185L328.436 425.179C327.987 424.748 327.532 424.337 327.058 423.937C326.874 423.777 326.683 423.617 326.486 423.458L326.474 423.445C325.643 422.725 324.773 422.052 323.867 421.429C321.782 420.021 319.427 419.044 317.01 419.825C316.061 420.15 315.146 420.57 314.28 421.079C313.837 421.331 313.401 421.595 312.964 421.859C312.669 422.038 312.374 422.216 312.079 422.4C311.839 422.542 311.599 422.683 311.359 422.818C309.502 423.888 307.637 424.937 305.763 425.966C305.493 426.119 305.222 426.267 304.945 426.414H304.939C304.749 426.525 304.552 426.629 304.355 426.734C303.98 426.943 303.599 427.152 303.224 427.355C302.098 427.963 300.971 428.566 299.842 429.162C299.264 429.469 298.679 429.764 298.095 430.06C297.825 430.195 297.554 430.33 297.29 430.471H297.283C297.185 430.521 297.093 430.57 296.994 430.619C296.195 431.031 295.408 431.455 294.645 431.916C292.434 433.248 290.512 435.01 288.994 437.098C288.699 437.504 288.416 437.922 288.158 438.352C287.819 438.909 287.511 439.483 287.235 440.073C287.045 440.473 286.866 440.872 286.707 441.278V441.284C285.195 445.17 284.983 449.44 286.104 453.456V453.462C286.178 453.738 286.258 454.009 286.35 454.279C286.498 454.734 286.664 455.189 286.848 455.632C287.052 456.125 287.281 456.607 287.537 457.076V457.082C288.905 459.416 290.613 461.533 292.604 463.365L292.665 463.426C292.911 463.666 293.163 463.912 293.409 464.152C293.545 464.281 293.686 464.41 293.834 464.533C295.961 466.358 299.399 467.741 301.342 469.616C302.381 470.618 302.99 471.756 302.75 473.176C302.111 476.944 302.252 479.384 302.904 480.952C304.675 485.23 310.234 483.054 314.04 483.896C314.446 483.785 314.852 483.669 315.252 483.552C323.859 481.103 332.323 478.176 340.605 474.786C342.924 473.839 345.236 472.856 347.523 471.835C348.132 471.565 348.735 471.295 349.343 471.018C349.885 470.772 350.432 470.526 350.973 470.268C351.471 470.041 351.969 469.807 352.467 469.573C352.633 469.5 352.793 469.42 352.959 469.34C353.556 469.057 354.158 468.768 354.755 468.479C354.146 467.293 353.513 466.119 352.879 464.951Z" fill="#E4E4E4"/>
<path d="M307.888 405.271C309.18 401.369 307.403 398.794 302.83 397.428C302.674 397.286 302.484 397.186 302.279 397.137C302.074 397.087 301.86 397.09 301.656 397.145C301.453 397.199 301.266 397.304 301.113 397.449C300.961 397.595 300.847 397.776 300.783 397.977L296.79 409.805C292.613 408.736 289.549 409.468 288.884 413.598C290.532 409.391 288.982 406.753 284.344 405.627C284.193 405.477 284.007 405.368 283.803 405.309C283.598 405.25 283.382 405.244 283.175 405.29C282.968 405.337 282.775 405.436 282.616 405.577C282.457 405.719 282.337 405.898 282.265 406.098L279.639 416.751C276.441 421.567 274.871 427.28 275.158 433.054C275.445 438.827 277.575 444.357 281.236 448.831C284.896 453.306 289.894 456.491 295.498 457.919C301.101 459.347 307.015 458.943 312.371 456.766C317.728 454.589 322.246 450.754 325.264 445.823C328.281 440.891 329.638 435.123 329.137 429.365C328.635 423.606 326.302 418.159 322.478 413.823C318.654 409.487 313.541 406.49 307.888 405.271H307.888Z" fill="#E4E4E4"/>
<path d="M305.346 438.979C304.806 439.268 304.174 439.331 303.588 439.154C303.002 438.977 302.51 438.576 302.22 438.037C302.179 437.96 302.17 437.87 302.195 437.786C302.221 437.703 302.278 437.633 302.355 437.591C302.432 437.55 302.522 437.541 302.606 437.566C302.689 437.591 302.76 437.648 302.801 437.725C303.008 438.109 303.36 438.396 303.778 438.522C304.197 438.648 304.648 438.602 305.033 438.396C305.418 438.189 305.705 437.838 305.832 437.42C305.958 437.002 305.914 436.551 305.708 436.166C305.667 436.089 305.658 435.999 305.683 435.915C305.708 435.832 305.766 435.762 305.843 435.72C305.92 435.679 306.01 435.67 306.093 435.695C306.177 435.72 306.247 435.777 306.289 435.854C306.578 436.393 306.641 437.026 306.464 437.611C306.287 438.197 305.885 438.689 305.346 438.979V438.979Z" fill="white"/>
<path d="M302.93 434.13C304.214 433.441 305.04 432.482 304.775 431.988C304.51 431.495 303.254 431.653 301.97 432.342C300.686 433.03 299.86 433.989 300.125 434.483C300.39 434.977 301.646 434.818 302.93 434.13Z" fill="white"/>
<path d="M289.281 434.966C289.454 434.124 289.811 433.331 290.325 432.642C290.839 431.953 291.498 431.385 292.256 430.978C293.013 430.572 293.851 430.337 294.709 430.29C295.568 430.242 296.426 430.384 297.224 430.705C297.625 429.478 297.654 428.16 297.306 426.917C296.958 425.674 296.249 424.563 295.269 423.723C294.289 422.882 293.081 422.352 291.8 422.198C290.518 422.043 289.219 422.273 288.068 422.856C286.916 423.44 285.964 424.352 285.331 425.477C284.698 426.602 284.413 427.889 284.511 429.176C284.61 430.462 285.088 431.691 285.886 432.706C286.683 433.721 287.764 434.477 288.991 434.878V434.878C289.087 434.91 289.183 434.939 289.281 434.966Z" fill="white"/>
<path d="M291.231 432.597C292.471 432.597 293.476 431.592 293.476 430.352C293.476 429.112 292.471 428.107 291.231 428.107C289.991 428.107 288.985 429.112 288.985 430.352C288.985 431.592 289.991 432.597 291.231 432.597Z" fill="#3F3D56"/>
<path d="M304.824 426.888C304.997 426.046 305.354 425.253 305.868 424.564C306.382 423.875 307.041 423.307 307.799 422.901C308.556 422.494 309.394 422.259 310.252 422.212C311.111 422.165 311.969 422.306 312.767 422.627C313.168 421.4 313.197 420.082 312.849 418.84C312.501 417.597 311.792 416.485 310.812 415.645C309.832 414.805 308.624 414.274 307.343 414.12C306.061 413.966 304.762 414.195 303.611 414.779C302.459 415.362 301.507 416.274 300.874 417.399C300.241 418.524 299.955 419.811 300.054 421.098C300.153 422.385 300.631 423.613 301.429 424.629C302.226 425.644 303.307 426.4 304.534 426.801V426.801C304.63 426.832 304.726 426.861 304.824 426.888Z" fill="white"/>
<path d="M307.598 424.394C308.838 424.394 309.843 423.389 309.843 422.149C309.843 420.909 308.838 419.904 307.598 419.904C306.358 419.904 305.353 420.909 305.353 422.149C305.353 423.389 306.358 424.394 307.598 424.394Z" fill="#3F3D56"/>
<path d="M318.866 421.994L311.2 429.804L311.974 430.563L319.64 422.753L318.866 421.994Z" fill="white"/>
<path d="M321.303 425.773L312.04 431.603L312.617 432.52L321.88 426.69L321.303 425.773Z" fill="white"/>
<path d="M294.752 438.627L284.003 440.695L284.208 441.76L294.957 439.691L294.752 438.627Z" fill="white"/>
<path d="M295.787 440.32L285.807 444.813L286.252 445.802L296.232 441.309L295.787 440.32Z" fill="white"/>
<path d="M41.1301 159.207C41.1137 159.708 41.0974 160.209 41.0894 160.717C40.9045 167.46 41.2679 174.206 42.176 180.89C42.238 181.408 42.3086 181.932 42.3854 182.447C44.7448 198.526 50.0701 214.028 58.0904 228.164C61.2871 233.786 64.9069 239.157 68.9187 244.23C74.4596 251.236 81.0249 258.391 83.844 266.577C84.1477 267.427 84.3984 268.296 84.5947 269.178L58.2108 306.987C58.1077 307.043 58.0129 307.106 57.9095 307.162L56.9251 308.72C56.6999 308.472 56.4716 308.211 56.2465 307.964C56.1153 307.821 55.9899 307.67 55.8587 307.527C55.7731 307.429 55.6877 307.331 55.6048 307.247C55.5762 307.215 55.5479 307.182 55.5278 307.155C55.445 307.072 55.3769 306.986 55.3027 306.908C54.0228 305.452 52.751 303.983 51.4872 302.504C51.4786 302.498 51.4786 302.498 51.4758 302.483C41.8751 291.184 33.1336 278.985 26.5223 265.847C26.3235 265.452 26.1158 265.051 25.9291 264.638C22.9819 258.699 20.5252 252.53 18.5834 246.191C17.5314 242.717 16.6559 239.192 15.9605 235.629C14.1812 226.42 13.862 216.989 15.0146 207.681C17.3151 189.125 25.5264 171.512 40.0146 160.07C40.3854 159.777 40.7506 159.493 41.1301 159.207Z" fill="#E6E6E6"/>
<path d="M41.5505 159.626C32.2455 180.834 29.658 205.151 34.6863 227.793C35.7734 232.688 37.3024 237.559 39.8672 241.896C42.3997 246.105 46.0134 249.559 50.3329 251.899C54.3165 254.162 58.6535 256.016 62.0174 259.207C65.5632 262.571 67.1646 267.186 67.0686 272.02C66.9511 277.935 64.7146 283.455 62.3398 288.777C59.7031 294.686 56.8707 300.782 57.092 307.402C57.1188 308.204 55.8721 308.199 55.8453 307.398C55.4603 295.879 63.7259 286.567 65.5031 275.499C66.3323 270.335 65.6097 264.889 61.9532 260.917C58.7558 257.443 54.285 255.528 50.2317 253.272C45.9757 250.902 42.3458 247.963 39.634 243.872C36.86 239.687 35.1373 234.865 33.9298 230.02C31.2735 219.011 30.3653 207.653 31.2385 196.362C32.1635 183.471 35.2878 170.832 40.4761 158.994C40.7975 158.261 41.8698 158.899 41.5505 159.626L41.5505 159.626Z" fill="white"/>
<path d="M32.6637 220.519C28.7114 220.826 24.7788 219.718 21.5682 217.394C18.3576 215.069 16.078 211.68 15.1365 207.83C14.9487 207.051 16.1517 206.723 16.3397 207.503C17.2098 211.089 19.3336 214.246 22.3277 216.405C25.3219 218.563 28.9892 219.58 32.6678 219.273C33.4673 219.207 33.4586 220.454 32.6637 220.519Z" fill="white"/>
<path d="M48.1618 251.017C53.4862 244.911 56.3125 237.022 56.0772 228.925C56.0532 228.123 57.2999 228.128 57.3238 228.929C57.553 237.356 54.5951 245.559 49.0404 251.901C48.5105 252.506 47.6348 251.618 48.1618 251.017L48.1618 251.017Z" fill="white"/>
<path d="M33.6298 184.234C35.1837 184.434 36.763 184.245 38.2258 183.684C39.6886 183.123 40.9891 182.207 42.0105 181.02C42.5325 180.409 43.4077 181.297 42.8891 181.904C41.7545 183.211 40.317 184.22 38.7022 184.843C37.0874 185.467 35.3445 185.685 33.6257 185.48C33.462 185.474 33.3067 185.407 33.1913 185.29C33.0759 185.174 33.0091 185.019 33.0044 184.855C33.0058 184.69 33.0722 184.532 33.1893 184.416C33.3064 184.3 33.4647 184.234 33.6298 184.234V184.234Z" fill="white"/>
<path d="M282.153 161.728C285.818 141.464 279.727 118.47 263.099 106.314C264.168 128.683 257.288 150.708 243.676 168.493C238.401 175.334 231.822 182.392 232.079 191.025C232.238 196.397 235.173 201.384 239.025 205.132C242.878 208.88 247.612 211.571 252.289 214.22L253.022 215.344C266.597 199.856 278.488 181.992 282.153 161.728Z" fill="#E6E6E6"/>
<path d="M262.799 106.626C269.846 122.147 271.821 139.493 268.444 156.2C267.781 159.81 266.553 163.292 264.805 166.519C263.001 169.608 260.402 172.158 257.279 173.903C254.399 175.589 251.259 176.98 248.839 179.336C247.619 180.56 246.671 182.029 246.058 183.645C245.445 185.261 245.181 186.989 245.282 188.714C245.424 193.02 247.105 197.019 248.885 200.872C250.861 205.15 252.982 209.562 252.883 214.385C252.871 214.97 253.779 214.954 253.791 214.37C253.962 205.979 247.855 199.276 246.456 191.233C245.803 187.48 246.277 183.508 248.902 180.58C251.198 178.02 254.435 176.583 257.365 174.902C260.437 173.244 263.056 170.859 264.994 167.956C266.9 164.828 268.261 161.399 269.016 157.815C270.846 149.773 271.4 141.493 270.657 133.28C269.861 123.9 267.466 114.727 263.575 106.155C263.334 105.624 262.56 106.099 262.799 106.626L262.799 106.626Z" fill="white"/>
<path d="M269.849 150.885C272.73 151.07 275.583 150.226 277.899 148.503C280.215 146.78 281.843 144.29 282.492 141.478C282.621 140.909 281.742 140.681 281.613 141.251C281.013 143.871 279.496 146.19 277.336 147.79C275.176 149.39 272.516 150.166 269.834 149.977C269.251 149.937 269.269 150.844 269.849 150.885V150.885Z" fill="white"/>
<path d="M258.852 173.24C254.916 168.844 252.783 163.126 252.878 157.228C252.888 156.643 251.98 156.659 251.97 157.242C251.883 163.381 254.115 169.327 258.22 173.893C258.612 174.328 259.241 173.673 258.852 173.24V173.24Z" fill="white"/>
<path d="M268.801 124.47C267.671 124.631 266.519 124.508 265.449 124.113C264.378 123.719 263.422 123.064 262.667 122.209C262.281 121.769 261.653 122.424 262.036 122.861C262.875 123.802 263.931 124.524 265.113 124.962C266.295 125.401 267.566 125.544 268.816 125.378C268.935 125.372 269.047 125.321 269.13 125.236C269.213 125.15 269.26 125.036 269.262 124.917C269.26 124.797 269.21 124.682 269.123 124.599C269.037 124.515 268.921 124.469 268.801 124.47L268.801 124.47Z" fill="white"/>
<path d="M195.492 123.453C195.725 123.735 195.958 124.016 196.19 124.305C199.304 128.104 202.105 132.15 204.564 136.403C204.76 136.729 204.953 137.062 205.138 137.393C210.954 147.702 214.804 159.001 216.494 170.716C217.162 175.378 217.474 180.084 217.428 184.793C217.363 191.297 216.776 198.344 218.805 204.313C219.01 204.938 219.253 205.55 219.533 206.145L251.593 216.15C251.677 216.137 251.759 216.13 251.844 216.116L253.106 216.574C253.125 216.332 253.14 216.079 253.159 215.837C253.171 215.696 253.176 215.553 253.188 215.412C253.193 215.318 253.198 215.223 253.209 215.138C253.211 215.107 253.212 215.075 253.212 215.051C253.223 214.966 253.223 214.886 253.232 214.808C253.318 213.399 253.396 211.987 253.463 210.571C253.465 210.564 253.465 210.564 253.461 210.554C253.947 199.769 253.537 188.848 251.481 178.336C251.419 178.02 251.36 177.697 251.283 177.376C250.331 172.643 248.992 167.996 247.282 163.48C246.338 161.011 245.269 158.591 244.08 156.23C240.996 150.135 236.971 144.563 232.155 139.717C222.552 130.06 209.966 123.581 196.52 123.453C196.176 123.45 195.838 123.449 195.492 123.453Z" fill="#E6E6E6"/>
<path d="M195.437 123.882C210.412 132.034 222.436 144.695 229.802 160.067C231.447 163.348 232.564 166.868 233.112 170.497C233.532 174.049 232.992 177.648 231.549 180.922C230.266 184.001 228.596 187.002 228.083 190.339C227.846 192.051 227.974 193.794 228.458 195.453C228.942 197.113 229.771 198.651 230.892 199.968C233.598 203.321 237.349 205.501 241.09 207.507C245.245 209.733 249.595 211.98 252.422 215.89C252.764 216.364 253.479 215.805 253.137 215.332C248.22 208.529 239.306 206.853 233.345 201.273C230.564 198.669 228.55 195.212 228.883 191.295C229.174 187.869 230.893 184.773 232.22 181.667C233.674 178.494 234.329 175.014 234.128 171.53C233.766 167.885 232.787 164.328 231.232 161.012C227.849 153.49 223.305 146.546 217.764 140.434C211.48 133.425 204.043 127.541 195.774 123.039C195.262 122.76 194.929 123.605 195.437 123.882L195.437 123.882Z" fill="white"/>
<path d="M227.722 154.978C230.134 153.392 231.904 151.001 232.715 148.231C233.527 145.462 233.327 142.494 232.152 139.858C231.912 139.325 231.073 139.673 231.313 140.206C232.412 142.658 232.598 145.423 231.837 148C231.076 150.578 229.419 152.799 227.164 154.262C226.674 154.58 227.235 155.294 227.722 154.978V154.978Z" fill="white"/>
<path d="M232.406 179.447C226.616 178.305 221.469 175.023 217.992 170.256C217.648 169.784 216.932 170.343 217.276 170.815C220.904 175.768 226.267 179.172 232.295 180.347C232.869 180.459 232.977 179.557 232.406 179.447V179.447Z" fill="white"/>
<path d="M210.977 134.518C210.171 135.326 209.177 135.921 208.085 136.25C206.993 136.579 205.835 136.632 204.717 136.404C204.144 136.285 204.037 137.187 204.606 137.305C205.842 137.551 207.12 137.491 208.328 137.13C209.536 136.769 210.637 136.118 211.535 135.234C211.626 135.157 211.686 135.049 211.7 134.931C211.715 134.812 211.684 134.693 211.614 134.597C211.539 134.502 211.431 134.441 211.311 134.426C211.192 134.412 211.072 134.444 210.976 134.518L210.977 134.518Z" fill="white"/>
<path d="M31.725 232.373C36.1634 232.373 40.4201 234.135 43.5585 237.272C46.697 240.41 48.4601 244.665 48.4601 249.102V249.102C48.4595 252.983 47.1095 256.742 44.6412 259.738C42.1729 262.733 38.7398 264.778 34.9296 265.521V292.883H24.2476V232.373H31.725Z" fill="#3F3D56"/>
<path d="M441.646 392.652V398.381C439.217 401.485 436.714 404.528 434.138 407.51C433.861 407.835 433.578 408.155 433.289 408.481C432.852 408.991 432.403 409.495 431.955 409.999V392.652H441.646Z" fill="#CACACA"/>
<path d="M413.212 380.702C411.069 380.705 409.016 381.556 407.501 383.071C405.986 384.585 405.134 386.638 405.131 388.779V400.404C405.134 402.545 405.986 404.598 407.501 406.112C409.016 407.627 411.069 408.479 413.212 408.481H433.289C433.578 408.155 433.861 407.836 434.138 407.51C436.714 404.528 439.217 401.486 441.646 398.381C441.806 398.178 441.966 397.976 442.119 397.773C443.509 395.996 444.874 394.189 446.215 392.369C447.26 390.943 448.299 389.505 449.314 388.054C449.32 388.048 449.326 388.048 449.326 388.042C451.024 385.632 452.678 383.186 454.289 380.702H413.212Z" fill="#3F3D56"/>
<path d="M464.909 281.204C463.674 280.778 462.377 280.562 461.072 280.565H457.769C456.567 280.566 455.371 280.746 454.221 281.1C451.797 281.861 449.678 283.376 448.173 285.423C446.668 287.47 445.855 289.944 445.852 292.484V389.455C445.852 389.818 445.871 390.175 445.901 390.525C445.955 391.147 446.06 391.764 446.215 392.369C447.26 390.943 448.299 389.504 449.314 388.054C449.32 388.048 449.326 388.048 449.326 388.041C451.024 385.632 452.678 383.185 454.289 380.702C455.156 379.368 456.017 378.022 456.859 376.669C462.947 366.906 468.339 356.725 472.995 346.204V292.484C472.992 289.996 472.211 287.571 470.761 285.548C469.311 283.525 467.265 282.007 464.909 281.204Z" fill="#3F3D56"/>
<path d="M57.9111 392.652V404.227C55.1439 400.92 52.469 397.539 49.8863 394.084C49.5296 393.611 49.1791 393.131 48.8286 392.652H57.9111Z" fill="#CACACA"/>
<path d="M76.6544 380.702H40.5396C41.6772 382.454 42.8353 384.186 44.0139 385.896C45.5758 388.177 47.1808 390.429 48.8288 392.652C49.1793 393.132 49.5298 393.611 49.8865 394.084C52.4753 397.539 55.1503 400.92 57.9113 404.227C58.4279 404.854 58.9506 405.475 59.4794 406.096C60.1558 406.895 60.8425 407.69 61.5394 408.481H76.6544C78.796 408.478 80.849 407.626 82.3627 406.112C83.8765 404.597 84.7273 402.545 84.7284 400.404V388.779C84.7273 386.639 83.8765 384.586 82.3628 383.071C80.849 381.557 78.796 380.705 76.6544 380.702V380.702Z" fill="#3F3D56"/>
<path d="M37.5999 281.911C35.8974 281.029 34.008 280.567 32.0901 280.565H28.7941C27.2345 280.563 25.6899 280.87 24.2498 281.469C22.068 282.37 20.2024 283.897 18.889 285.858C17.5755 287.818 16.8731 290.124 16.8706 292.484V334.143C23.0796 350.461 31.0141 366.069 40.5393 380.702C41.6769 382.454 42.835 384.185 44.0136 385.896V292.484C44.012 290.305 43.4134 288.167 42.2828 286.303C41.1522 284.439 39.5327 282.92 37.5999 281.911V281.911Z" fill="#3F3D56"/>
<path d="M171.94 461.95L182.773 459.465L178.342 416.514L162.354 420.182L171.94 461.95Z" fill="#9E616A"/>
<path d="M181.795 424.685C181.573 423.928 181.423 423.152 181.346 422.367C181.256 421.44 181.075 420.524 180.805 419.632C180.497 418.821 180.116 418.039 179.667 417.296C179.452 416.903 179.224 416.509 179.021 416.11C178.817 415.71 178.64 415.297 178.493 414.874C172.153 396.156 163.304 370.719 157.167 355.831C153.557 347.071 131.358 344.157 110.414 343.414C107.862 343.321 105.328 343.26 102.85 343.229C101.995 343.217 101.147 343.205 100.304 343.198C98.152 343.186 96.055 343.186 94.0381 343.211C93.7737 343.211 93.5092 343.211 93.2448 343.217C91.7752 343.229 90.3506 343.25 88.9711 343.278C79.4888 343.463 72.5217 343.893 71.2795 343.973L60.2169 337.021L58.0585 335.662L57.831 337.021L56.0907 347.385L53.1206 365.07L60.5674 367.16L65.4008 368.512L94.0381 376.541L100.126 378.249L100.163 378.262L110.414 378.243L138.442 378.194L139.795 381.778C139.309 382.532 138.99 383.381 138.857 384.268C138.725 385.155 138.784 386.061 139.029 386.924C139.273 387.786 139.699 388.587 140.278 389.273C140.856 389.959 141.574 390.513 142.384 390.9L143.435 391.398L156.244 425.281C156.284 428.346 157.241 431.329 158.993 433.844C159.208 434.158 159.442 434.465 159.688 434.766L159.971 435.104L164.896 444.737L167.83 444.061L180.313 441.202L180.374 441.079C180.38 441.061 180.54 440.723 180.774 440.133V440.114C181.752 437.674 183.916 431.004 181.795 424.685Z" fill="#2F2E41"/>
<path d="M212.228 464.807C211.761 462.742 210.891 460.79 209.667 459.063C208.443 457.336 206.889 455.868 205.095 454.743C203.301 453.619 201.302 452.86 199.213 452.511C197.125 452.162 194.988 452.23 192.925 452.71L184.273 448.806L181.85 450.509L171.802 457.554L170.972 457.744L168.279 458.359L171.999 474.569L212.351 465.317L212.228 464.807Z" fill="#2F2E41"/>
<path d="M158.704 439.812L155.046 469.466L154.923 470.438L154.381 474.857C152.272 473.997 150.169 473.105 148.091 472.189C146.148 471.335 144.219 470.454 142.304 469.546V439.819L158.704 439.812Z" fill="#9E616A"/>
<path d="M79.308 235.954C91.559 235.954 101.49 226.026 101.49 213.779C101.49 201.532 91.559 191.604 79.308 191.604C67.0569 191.604 57.1255 201.532 57.1255 213.779C57.1255 226.026 67.0569 235.954 79.308 235.954Z" fill="#9E616A"/>
<path d="M161.059 451.13C160.444 450.287 159.805 449.408 159.768 448.566C159.627 445.597 159.479 442.659 159.325 439.782C159.215 437.772 159.104 435.786 158.993 433.844C158.981 433.598 158.962 433.352 158.95 433.112C158.76 429.897 159.713 426.504 160.629 423.216C160.93 422.14 161.232 421.052 161.502 419.964C162.179 417.539 162.463 415.022 162.345 412.507C160.77 392.597 153.736 373.872 150.581 370.719C145.784 365.924 124.096 354.847 110.414 348.11C107.985 346.911 105.808 345.854 104.025 344.993C102.444 344.225 101.171 343.616 100.304 343.198C99.6401 342.885 99.2097 342.682 99.0621 342.608L98.9883 342.571L94.0381 343.125L93.2448 343.217L88.8788 343.708L60.4752 346.893L56.0908 347.385L49.8861 348.085L44.2841 348.712L44.075 348.731L44.0381 348.94C44.0381 348.946 44.0258 348.989 44.0135 349.069C43.0502 355.145 43.0502 361.335 44.0135 367.412C44.7391 371.537 46.1104 375.729 48.5455 379.257C48.8776 379.737 49.222 380.198 49.5909 380.64C49.6034 380.664 49.6201 380.685 49.6401 380.702C49.7201 380.8 49.8 380.899 49.8861 380.997V381.003C52.6715 384.241 56.4103 386.516 60.5674 387.501C61.1824 387.667 61.8096 387.802 62.4553 387.913C69.3364 389.13 77.1091 390.248 84.728 391.232C87.8826 391.638 91.0126 392.019 94.0381 392.375C100.095 393.088 105.753 393.691 110.414 394.17C116.944 394.834 121.532 395.246 122.552 395.332L133.959 448.529C133.064 450.043 132.707 451.814 132.946 453.556C133.185 455.298 134.006 456.908 135.275 458.125L136.21 459.029L137.292 464.094L140.859 468.864L141.308 469.467H157.044L157.13 469.362C157.185 469.288 162.72 462.182 162.345 453.718C162.308 452.845 161.699 452.015 161.059 451.13Z" fill="#2F2E41"/>
<path d="M160.63 272.841C159.438 272.515 158.19 272.455 156.972 272.664C155.755 272.873 154.598 273.346 153.583 274.05C152.568 274.754 151.72 275.672 151.098 276.74C150.477 277.807 150.097 278.997 149.986 280.227L131.555 285.986L132.324 298.036L158.237 289.538C160.317 289.588 162.342 288.874 163.93 287.532C165.518 286.189 166.558 284.31 166.853 282.252C167.148 280.194 166.677 278.099 165.53 276.364C164.383 274.63 162.64 273.376 160.63 272.841V272.841Z" fill="#9E616A"/>
<path d="M148.604 292.782L134.829 297.993L134.477 298.677C134.059 299.487 133.485 300.208 132.788 300.797C132.092 301.387 131.286 301.833 130.416 302.111C129.547 302.389 128.632 302.493 127.722 302.417C126.813 302.341 125.927 302.087 125.116 301.669V301.669L94.1537 313.383C94.1537 313.383 80.3267 299.551 70.4824 287.207L73.8375 266.578C74.6146 261.791 76.2662 257.189 78.7099 253C98.8988 257.425 110.488 285.638 110.488 285.638L146.873 278.698L148.604 292.782Z" fill="#57B894"/>
<path d="M76.1561 234.769C70.6027 236.268 64.4803 234.275 60.1464 230.494C55.8126 226.712 53.1016 221.355 51.5395 215.82C50.3955 211.767 49.853 207.268 51.6584 203.463C53.4637 199.658 58.3225 197.09 62.071 199.013C59.7585 196.319 60.9138 191.865 63.6146 189.561C66.3153 187.257 70.0239 186.596 73.5559 186.235C78.682 185.711 83.9769 185.653 88.8547 187.313C93.7325 188.973 98.1644 192.602 99.691 197.522C101.25 198.248 103.006 198.436 104.684 198.057C106.361 197.679 107.866 196.754 108.962 195.429C109.245 196.951 109.018 198.524 108.316 199.903C107.615 201.283 106.478 202.393 105.082 203.062L112.556 200.64C113.841 203.36 111.589 206.726 108.709 207.597C105.829 208.468 102.72 207.516 99.9867 206.258C97.2537 204.999 94.6051 203.409 91.6365 202.918C88.6678 202.427 85.1807 203.381 83.8075 206.057C83.0883 207.459 83.0508 209.101 82.6332 210.62C82.2157 212.139 81.1579 213.714 79.5868 213.838C78.5942 213.917 77.6224 213.388 76.6326 213.496C76.0251 213.616 75.4657 213.91 75.0229 214.342C74.5801 214.775 74.2731 215.327 74.1394 215.931C73.8929 217.144 73.8899 218.394 74.1305 219.607L76.029 234.113L76.1561 234.769Z" fill="#2F2E41"/>
<path d="M104.025 344.993L102.85 343.229L94.2782 330.375L94.106 330.123L96.7564 316.378L97.5804 312.088L99.3821 302.75L98.8594 281.376L98.4843 266.255L98.429 263.882L96.5288 258.091C95.628 255.383 94.1809 252.889 92.277 250.763C90.3731 248.636 88.0529 246.923 85.4601 245.729L72.6695 239.877C71.1643 239.192 69.4485 239.133 67.8996 239.713C66.3506 240.292 65.0955 241.463 64.4102 242.968C64.353 243.094 64.2999 243.221 64.2511 243.35C62.4986 243.59 54.8919 244.869 48.4413 249.872C43.9223 253.309 40.7676 258.236 39.5371 263.777C39.5248 263.82 39.5187 263.863 39.5064 263.906C38.6516 267.724 38.0121 273.748 37.6001 281.911C37.3233 287.308 37.1491 293.632 37.0774 300.881C36.9626 312.965 37.6426 325.044 39.1128 337.039C39.2542 338.182 39.4018 339.319 39.5555 340.463C39.6847 341.422 40.6071 342.338 41.4987 343.217C42.3166 344.022 43.159 344.858 43.2759 345.614C43.3804 346.278 42.9561 346.973 42.4519 347.698C42.3904 347.79 42.3227 347.882 42.2612 347.974C41.634 348.866 40.9883 349.794 41.1544 350.771C41.5418 352.972 41.7693 355.21 41.9845 357.373C42.2249 360.353 42.6562 363.314 43.2759 366.238C43.4911 367.135 43.7371 368.039 44.0138 368.942C44.6595 371.063 45.4404 373.178 46.2029 375.243C46.8609 377.038 47.5435 378.882 48.1215 380.702C48.2322 381.04 48.3367 381.372 48.4351 381.704L48.4843 381.876L48.6627 381.907H48.675C48.9172 381.475 49.2059 381.071 49.5359 380.702C49.5508 380.678 49.5695 380.658 49.5912 380.64C49.6773 380.536 49.7757 380.425 49.8864 380.308C51.2331 378.839 54.1601 376.202 60.5677 371.758C62.0005 370.768 63.6055 369.692 65.4011 368.512C71.987 364.203 81.1863 358.591 94.0384 351.343C97.2606 349.524 100.719 347.6 104.412 345.571L104.025 344.993Z" fill="#57B894"/>
<path d="M173.002 480.218C171.508 478.718 169.732 477.53 167.776 476.721C165.82 475.911 163.724 475.497 161.607 475.503L154.923 470.438L154.043 469.768L148.091 472.19C150.169 473.105 152.272 473.997 154.382 474.857C160.98 477.55 167.717 479.955 174.594 482.074C174.111 481.416 173.579 480.795 173.002 480.218V480.218Z" fill="#2F2E41"/>
<path d="M321.465 461.531L313.093 457.529L324.593 422.549L336.949 428.456L321.465 461.531Z" fill="#FFB6B6"/>
<path d="M377.589 455.894C375.154 457.412 372.688 458.887 370.191 460.32V460.338L370.154 460.344L370.142 460.35L369.195 460.584L367.836 456.994L364.7 448.714L356.152 426.154L369.441 422.877L370.191 425.92L375.812 448.708L377.423 455.224L377.589 455.894Z" fill="#FFB6B6"/>
<path d="M343.697 309.493C344.891 311.431 346.796 312.826 349.005 313.38C351.214 313.934 353.552 313.603 355.52 312.458C355.915 312.218 356.291 311.946 356.641 311.645L383.109 326.828L381.959 311.242L357.002 299.213C355.644 297.85 353.871 296.975 351.963 296.727C350.054 296.478 348.117 296.87 346.455 297.84C344.552 298.982 343.181 300.833 342.644 302.985C342.106 305.137 342.446 307.415 343.588 309.317C343.624 309.376 343.66 309.435 343.697 309.493Z" fill="#FFB6B6"/>
<path d="M371.73 321.111L376.409 323.961L397.42 336.769C398.799 337.632 400.335 338.215 401.94 338.484C403.544 338.753 405.186 338.704 406.771 338.339C408.357 337.974 409.855 337.301 411.18 336.357C412.505 335.413 413.631 334.218 414.494 332.839L414.501 332.828C416.057 330.266 416.607 327.218 416.046 324.274L406.707 277.634C406.362 275.803 405.626 274.068 404.548 272.548C403.471 271.027 402.078 269.758 400.464 268.825C398.851 267.893 397.055 267.32 395.199 267.145C393.344 266.97 391.472 267.198 389.713 267.813C386.755 268.852 384.305 270.978 382.86 273.759C381.416 276.539 381.085 279.766 381.936 282.782L391.701 315.881L376.732 308.905L371.73 321.111Z" fill="#57B894"/>
<path d="M457.886 367.099C457.88 367.08 457.868 367.012 457.849 366.908L457.831 366.84C457.788 366.619 457.739 366.373 457.683 366.103C456.429 359.874 454.817 353.723 452.856 347.68C451.695 343.979 450.155 340.407 448.263 337.021C448.201 336.91 448.134 336.799 448.066 336.689L447.838 336.32L445.926 337.021L445.852 337.045L416.778 347.698L408.372 350.778L408.108 350.876L406.675 356.716L386.573 354.116L370.191 351.995L365.487 351.386C363.448 351.121 361.376 351.263 359.392 351.806C357.408 352.348 355.552 353.28 353.932 354.546C352.242 355.856 350.829 357.49 349.776 359.352C348.724 361.213 348.052 363.266 347.801 365.39C347.74 365.857 347.703 366.33 347.685 366.797L346.264 419.767V419.835L346.922 421.15L360.666 448.714H370.191L375.812 448.708H380.381L370.88 424.679L371.095 424.353C371.989 422.983 372.552 421.424 372.741 419.8C372.93 418.175 372.739 416.529 372.183 414.991L373.253 411.893C375.473 405.494 374.422 402.42 373.094 398.535C371.901 395.376 371.2 392.053 371.015 388.681L370.794 384.298C376.371 385.276 381.567 386.364 386.573 387.458C388.245 387.82 389.902 388.187 391.541 388.558C396.209 389.597 400.716 390.599 405.131 391.435C414.073 393.138 422.639 394.177 431.438 393.531C431.61 393.519 431.783 393.507 431.955 393.488C434.095 393.316 436.247 393.039 438.424 392.652C439.648 392.431 440.877 392.179 442.12 391.884C442.464 391.798 442.814 391.712 443.159 391.626C444.115 391.374 445.036 391.004 445.901 390.525C447.132 389.838 448.278 389.009 449.314 388.054C449.32 388.048 449.327 388.048 449.327 388.042C451.024 385.632 452.678 383.186 454.289 380.702C455.156 379.368 456.017 378.022 456.859 376.67C458.089 373.295 458.557 369.889 457.886 367.099Z" fill="#2F2E41"/>
<path d="M458.089 357.146C457.997 356.753 457.88 356.353 457.757 355.966C456.781 353.033 455.644 350.156 454.351 347.348C452.899 344.151 451.159 340.727 449.087 337.02C448.084 335.225 447.006 333.359 445.852 331.42C445.274 330.449 444.674 329.459 444.05 328.451C444.026 328.405 443.999 328.36 443.971 328.316L443.792 328.021L415.026 331.869L404.314 333.301L403.674 338.637L403.52 339.959C403.514 339.959 403.514 339.959 403.52 339.965L403.09 343.567V343.573L402.518 348.331L402.469 348.325L386.573 346.266L370.191 344.145L361.392 343.008C359.352 342.742 357.28 342.885 355.297 343.427C353.313 343.969 351.457 344.901 349.837 346.167C348.146 347.478 346.734 349.111 345.681 350.973C344.628 352.835 343.957 354.887 343.706 357.011C343.651 357.441 343.614 357.884 343.595 358.32L335.294 377.985C330.326 389.745 327.163 402.188 325.91 414.892L319.822 434.348L320.689 434.428L333.591 435.627L336.997 435.946L344.499 424.998C345.354 423.75 346.166 422.466 346.922 421.15C348.168 419.002 349.275 416.776 350.237 414.487L366.465 375.883C367.719 376.098 368.961 376.303 370.191 376.497C375.879 377.419 381.34 378.171 386.573 378.753C403.588 380.653 418.322 380.8 431.438 379.19C435.122 378.741 438.682 378.151 442.12 377.419C443.38 377.155 444.624 376.87 445.852 376.565C446.141 376.497 446.424 376.43 446.707 376.356C449.248 375.701 451.585 374.419 453.502 372.628C455.42 370.836 456.858 368.593 457.683 366.102C458.67 363.217 458.81 360.109 458.089 357.146V357.146Z" fill="#2F2E41"/>
<path d="M396.919 241.045C407.908 241.045 416.817 231.941 416.817 220.711C416.817 209.481 407.908 200.376 396.919 200.376C385.929 200.376 377.021 209.481 377.021 220.711C377.021 231.941 385.929 241.045 396.919 241.045Z" fill="#FFB6B6"/>
<path d="M444.167 329.134C444.137 328.906 444.1 328.679 444.051 328.451C443.577 325.956 442.347 323.509 441.16 321.136C440.029 318.874 438.953 316.735 438.51 314.608C438.074 312.512 438.332 310.41 438.584 308.381C438.855 306.18 439.137 303.906 438.504 301.699C435.292 290.429 430.88 279.535 425.344 269.205C423.948 264.663 421.27 260.62 417.633 257.56C413.995 254.501 409.552 252.555 404.837 251.956C405.387 250.929 405.616 249.759 405.495 248.6C405.417 247.851 405.192 247.124 404.832 246.463C404.473 245.801 403.985 245.218 403.398 244.746C402.833 244.292 402.185 243.953 401.489 243.751C400.794 243.548 400.065 243.485 399.345 243.566L390.097 244.604C388.614 244.791 387.265 245.554 386.342 246.73C385.42 247.905 384.999 249.397 385.171 250.881C385.223 251.338 385.326 251.787 385.479 252.221C376.894 263.15 372.485 273.109 372.079 282.526V282.532C372.03 283.62 372.036 284.709 372.098 285.796C372.292 289.312 373.056 292.773 374.361 296.044C375.9 299.822 377.962 303.367 380.485 306.574C381.002 307.225 381.537 307.865 382.09 308.492C382.607 309.106 383.185 309.752 383.824 310.428L385.442 312.961L386.948 315.327L395.004 333.91L399.105 333.775L399.677 337.863L399.813 338.815L402.469 348.325L402.666 349.038L406.3 347.311L427.983 337.02L444.192 329.324L444.167 329.134Z" fill="#57B894"/>
<path opacity="0.2" d="M374.604 295.945C376.453 300.472 379.052 304.655 382.292 308.318C382.847 308.98 383.433 309.631 384.046 310.283L387.194 315.22C398.797 306.526 408.198 272.293 408.198 272.293L395.106 269.748L374.604 295.945Z" fill="black"/>
<path d="M366.678 242.945C367.824 244.914 368.157 247.252 367.606 249.462C367.054 251.672 365.661 253.579 363.724 254.779C363.327 255.016 362.91 255.22 362.479 255.389L363.405 285.881L350.196 277.569L351.341 249.888C350.779 248.046 350.843 246.069 351.523 244.267C352.202 242.465 353.46 240.939 355.099 239.926C356.993 238.781 359.265 238.435 361.415 238.964C363.565 239.493 365.416 240.854 366.562 242.747C366.602 242.813 366.64 242.879 366.678 242.945Z" fill="#FFB6B6"/>
<path d="M364.566 274.371L350.04 276.436L350.665 306.507C350.701 308.652 351.285 310.752 352.362 312.608C353.439 314.464 354.973 316.014 356.818 317.11V317.11C359.072 318.436 361.695 318.993 364.294 318.698C366.892 318.403 369.324 317.272 371.223 315.475L405.518 282.5C407.931 280.212 409.375 277.087 409.553 273.767C409.731 270.447 408.63 267.185 406.476 264.651C404.365 262.154 401.349 260.597 398.089 260.323C394.83 260.049 391.596 261.08 389.097 263.19C389 263.272 388.903 263.356 388.808 263.442C388.469 263.745 388.147 264.066 387.843 264.403L365.198 290.445L364.566 274.371Z" fill="#57B894"/>
<path d="M377.958 455.125L377.423 455.223L370.191 456.557L367.836 456.994L364.128 457.676L365.444 462.981C367.024 462.127 368.586 461.248 370.142 460.35L370.154 460.344L370.191 460.338V460.319C372.688 458.893 375.154 457.418 377.589 455.893C377.761 455.789 377.933 455.684 378.105 455.568L377.958 455.125Z" fill="#2F2E41"/>
<path d="M324.139 455.82L315.081 451.48L313.661 450.798L311.392 456.367L295.551 459.853C294.768 460.024 294.06 460.442 293.531 461.044C293.002 461.647 292.68 462.402 292.611 463.201C292.542 463.999 292.731 464.799 293.149 465.483C293.568 466.167 294.194 466.699 294.936 467.002L310.414 473.315L315.327 468.895L314.122 474.827L319.951 477.206L326.341 456.877L324.139 455.82Z" fill="#2F2E41"/>
<path d="M450.164 211.892C446.782 207.949 445.174 202.718 442.47 198.241C439.766 193.763 435.061 189.756 430.09 190.798C426.664 191.516 424.015 194.539 422.675 197.909C421.334 201.279 421.083 204.995 420.848 208.636C420.931 201.154 416 193.901 409.208 191.513C402.416 189.126 394.287 191.789 390.019 197.8C388.156 196.074 385.725 195.091 383.186 195.038C380.647 194.985 378.177 195.865 376.243 197.511C372.426 200.922 371.581 207.414 374.388 211.764C377.196 216.115 383.277 217.736 387.738 215.323L389.316 216.773C388.428 219.878 390.15 223.545 393.044 224.713C395.391 225.661 398.705 225.503 399.583 227.966C400.197 229.686 399.05 231.522 397.829 232.844C396.609 234.166 395.16 235.532 395.014 237.361C394.793 240.121 397.646 242.055 400.24 242.637C406.495 244.042 413.435 241.146 417.04 235.628C417.109 235.522 417.185 235.415 417.266 235.309C419.289 232.723 420.763 229.752 421.598 226.578C422.434 223.404 422.613 220.093 422.125 216.847C421.922 215.571 422.126 214.623 423.006 214.321C426.808 213.015 437.459 215.755 440.683 218.232C443.907 220.708 446.488 223.985 449.593 226.621C452.699 229.257 456.656 231.291 460.598 230.573C463.756 229.998 466.442 227.706 468.249 224.942C470.056 222.178 471.096 218.956 472.027 215.754C465.045 219.786 455.488 218.098 450.164 211.892Z" fill="#2F2E41"/>
<path d="M386.571 333.102V450.021C384.345 451.552 382.09 453.041 379.806 454.49V340.854C379.806 337.559 378.7 334.885 377.341 334.879H274.961C273.596 334.885 272.495 337.559 272.489 340.854V491.741C271.124 491.877 269.759 492.006 268.393 492.116C267.828 492.166 267.256 492.209 266.69 492.252C266.364 491.649 266.044 491.041 265.725 490.426V333.102C265.725 332.193 265.761 331.277 265.823 330.373C266.376 322.701 269.125 317.095 272.341 317.083H379.954C380.344 317.086 380.728 317.167 381.086 317.323C383.779 318.466 385.907 323.482 386.442 329.967C386.528 331 386.577 332.051 386.571 333.102Z" fill="#E4E4E4"/>
<path d="M222.304 333.102V491.274C222.212 491.422 222.12 491.563 222.028 491.711C219.716 491.477 217.414 491.209 215.122 490.905V340.854C215.122 337.559 213.948 334.885 212.502 334.879H103.838C102.393 334.885 101.219 337.559 101.219 340.854V445.023C98.7895 443.234 96.3954 441.401 94.0361 439.522V333.102C94.0361 332.193 94.073 331.277 94.1407 330.373C94.7248 322.701 97.6458 317.095 101.065 317.083H215.276C215.687 317.084 216.095 317.166 216.475 317.323C219.334 318.466 221.597 323.482 222.169 329.967C222.261 331 222.304 332.051 222.304 333.102Z" fill="#E4E4E4"/>
<path d="M185.887 280.538L193.009 311.86L197.559 316.843H200.842L187.312 259.893L186.642 269.568V269.574L185.887 280.538Z" fill="#3F3D56"/>
<path d="M209.602 318.444C209.582 318.395 209.555 318.35 209.522 318.308C209.457 318.16 209.363 318.027 209.246 317.915L208.415 317.085L204.049 312.714C203.729 312.401 203.299 312.225 202.85 312.223H202.832L199.751 312.241L197.101 312.26L193.399 312.284L168.187 312.444L151.614 312.548C151.166 312.554 150.737 312.736 150.421 313.054C150.104 313.373 149.926 313.802 149.923 314.251C149.926 314.499 149.98 314.744 150.083 314.97L150.403 315.653L151.073 317.085L151.946 318.96L152.377 319.882C152.514 320.176 152.732 320.424 153.006 320.598C153.279 320.772 153.596 320.865 153.92 320.866H208.04C208.325 320.86 208.604 320.785 208.853 320.646C209.102 320.507 209.312 320.31 209.467 320.07C209.621 319.831 209.714 319.558 209.738 319.274C209.761 318.99 209.715 318.705 209.602 318.444H209.602Z" fill="#3F3D56"/>
<path opacity="0.17" d="M151.947 318.959L152.375 319.884C152.514 320.177 152.732 320.424 153.006 320.598C153.279 320.772 153.596 320.865 153.92 320.867H208.042C208.327 320.862 208.606 320.786 208.854 320.648C209.103 320.509 209.314 320.312 209.468 320.072C209.622 319.833 209.715 319.56 209.738 319.276C209.762 318.992 209.715 318.707 209.602 318.446C209.583 318.397 209.556 318.352 209.523 318.311L151.947 318.959Z" fill="black"/>
<path opacity="0.17" d="M186.643 269.568V269.574L198.229 316.843H200.843L187.312 259.893L186.643 269.568Z" fill="black"/>
<path d="M204.818 137.288L203.121 137.06C202.655 137 202.184 137.126 201.811 137.411L200.796 138.191L189.5 152.317C189.127 152.606 188.884 153.03 188.824 153.498L188.19 158.305L172.423 278.229C172.367 278.674 172.479 279.123 172.737 279.489L180.165 299.959L180.387 300.279L180.866 300.961C181.113 301.308 181.475 301.556 181.887 301.662L182.963 301.933C183.208 301.994 183.462 302.002 183.71 301.958C183.959 301.913 184.194 301.817 184.402 301.674C184.611 301.534 184.787 301.351 184.919 301.136C185.05 300.922 185.134 300.682 185.165 300.433L187.089 285.815V285.809L188.319 276.428L189.359 268.517V268.511L206.355 139.279C206.417 138.813 206.29 138.341 206.003 137.968C205.717 137.594 205.293 137.35 204.827 137.289L204.818 137.288Z" fill="#3F3D56"/>
<path opacity="0.17" d="M200.794 138.192L180.164 299.962L180.388 300.279L180.866 300.959C181.113 301.306 181.475 301.555 181.887 301.66L182.965 301.931C183.209 301.991 183.463 302 183.71 301.955C183.958 301.911 184.193 301.815 184.401 301.674C184.608 301.532 184.784 301.348 184.916 301.135C185.048 300.921 185.133 300.681 185.166 300.432L206.353 139.281C206.415 138.813 206.288 138.34 206 137.966C205.713 137.591 205.288 137.346 204.82 137.285L203.119 137.061C202.888 137.03 202.653 137.045 202.428 137.106C202.203 137.166 201.992 137.271 201.808 137.413L200.794 138.192Z" fill="black"/>
<path d="M200.186 142.818L189.238 158.439L176.226 257.408L183.281 271.399L200.186 142.818Z" fill="#93C5FD"/>
<path d="M306.826 280.538L299.705 311.86L295.154 316.843H291.871L305.402 259.893L306.071 269.568V269.574L306.826 280.538Z" fill="#3F3D56"/>
<path d="M341.099 312.548L299.32 312.284L295.612 312.26L292.968 312.241L289.887 312.223H289.863C289.416 312.223 288.987 312.4 288.67 312.714L283.467 317.915C283.352 318.028 283.258 318.162 283.191 318.308C283.158 318.35 283.131 318.395 283.111 318.444C282.998 318.705 282.952 318.99 282.975 319.274C282.999 319.558 283.092 319.831 283.246 320.07C283.401 320.31 283.611 320.507 283.86 320.646C284.109 320.785 284.388 320.86 284.673 320.866H338.793C339.117 320.864 339.435 320.771 339.709 320.597C339.984 320.423 340.203 320.175 340.342 319.882L340.767 318.96L341.64 317.085L342.63 314.97C342.736 314.745 342.79 314.5 342.79 314.251C342.787 313.802 342.609 313.373 342.293 313.054C341.976 312.736 341.548 312.554 341.099 312.548V312.548Z" fill="#3F3D56"/>
<path opacity="0.17" d="M340.766 318.959L340.339 319.884C340.2 320.177 339.981 320.424 339.708 320.598C339.435 320.772 339.118 320.865 338.794 320.867H284.672C284.387 320.862 284.108 320.786 283.859 320.648C283.611 320.509 283.4 320.312 283.246 320.072C283.092 319.833 282.999 319.56 282.976 319.276C282.952 318.992 282.999 318.707 283.112 318.446C283.131 318.397 283.158 318.352 283.191 318.311L340.766 318.959Z" fill="black"/>
<path opacity="0.17" d="M306.071 269.568V269.574L294.485 316.843H291.871L305.402 259.893L306.071 269.568Z" fill="black"/>
<path d="M320.29 278.229L303.89 153.498C303.829 153.03 303.586 152.606 303.213 152.318L291.923 138.192L290.908 137.411C290.533 137.126 290.06 137.001 289.592 137.06L287.895 137.288C287.427 137.348 287.002 137.592 286.714 137.965C286.426 138.339 286.298 138.812 286.358 139.28V139.28L303.355 268.517V268.523L304.394 276.428L305.63 285.815V285.827L307.548 300.433C307.579 300.683 307.663 300.924 307.796 301.138C307.929 301.353 308.107 301.536 308.317 301.675C308.524 301.817 308.759 301.914 309.006 301.958C309.253 302.003 309.506 301.994 309.75 301.933L310.826 301.662C311.238 301.556 311.6 301.308 311.847 300.962L312.326 300.279L312.548 299.96L319.976 279.49C320.237 279.124 320.349 278.674 320.29 278.229V278.229Z" fill="#3F3D56"/>
<path opacity="0.17" d="M291.92 138.192L312.55 299.962L312.325 300.279L311.847 300.959C311.601 301.306 311.239 301.554 310.826 301.66L309.749 301.931C309.505 301.991 309.251 302 309.003 301.955C308.756 301.911 308.521 301.815 308.313 301.674C308.105 301.532 307.93 301.348 307.798 301.135C307.666 300.921 307.581 300.681 307.548 300.432L286.36 139.281C286.299 138.813 286.426 138.34 286.714 137.966C287.001 137.591 287.425 137.346 287.893 137.285L289.595 137.061C289.826 137.03 290.061 137.045 290.286 137.106C290.511 137.166 290.721 137.271 290.906 137.413L291.92 138.192Z" fill="black"/>
<path d="M292.528 142.818L303.475 158.439L316.487 257.408L309.433 271.399L292.528 142.818Z" fill="#93C5FD"/>
<path d="M89.0514 342.356C89.053 342.665 89.0263 342.974 88.9714 343.278C88.9468 343.426 88.9161 343.567 88.8792 343.709C88.5797 344.852 87.9097 345.863 86.974 346.585C86.0383 347.307 84.8896 347.698 83.7076 347.698H60.5678V402.869C60.5688 404.035 60.1864 405.168 59.4794 406.096C58.9505 405.475 58.4278 404.854 57.9113 404.227C55.1441 400.92 52.4692 397.539 49.8865 394.084V347.698H39.5556C38.1781 347.697 36.8542 347.164 35.8605 346.211C34.8667 345.257 34.28 343.957 34.2229 342.581C34.1657 341.205 34.6426 339.86 35.5538 338.827C36.465 337.795 37.7402 337.154 39.1129 337.039C39.2605 337.027 39.408 337.021 39.5556 337.021H83.7076C85.124 337.02 86.4825 337.582 87.4846 338.582C88.4867 339.583 89.0502 340.94 89.0514 342.356V342.356Z" fill="#3F3D56"/>
<path d="M457.782 342.356C457.782 343.438 457.455 344.494 456.842 345.385C456.229 346.276 455.361 346.96 454.351 347.348C453.872 347.531 453.368 347.643 452.856 347.68C452.721 347.692 452.58 347.698 452.444 347.698H442.12V397.773C441.966 397.975 441.806 398.178 441.646 398.381C439.217 401.486 436.715 404.528 434.138 407.51C433.315 407.046 432.632 406.372 432.157 405.556C431.682 404.74 431.434 403.812 431.438 402.869V347.698H408.292C407.609 347.7 406.933 347.569 406.3 347.311C405.503 346.992 404.796 346.486 404.237 345.836C403.678 345.185 403.284 344.409 403.09 343.573V343.567C402.803 342.353 402.956 341.077 403.521 339.965C403.514 339.959 403.514 339.959 403.521 339.959C403.765 339.469 404.084 339.021 404.468 338.631C404.966 338.121 405.56 337.716 406.217 337.44C406.874 337.163 407.58 337.02 408.292 337.021H452.444C453.86 337.02 455.217 337.582 456.218 338.582C457.219 339.583 457.782 340.939 457.782 342.354L457.782 342.356Z" fill="#3F3D56"/>
<path d="M457.429 239.491C455.231 239.491 453.055 239.924 451.024 240.765C448.994 241.605 447.149 242.838 445.595 244.391C444.041 245.945 442.808 247.789 441.967 249.818C441.126 251.848 440.693 254.024 440.693 256.22V256.22C440.694 260.101 442.044 263.861 444.512 266.856C446.981 269.852 450.414 271.896 454.224 272.64V300.001H464.906V239.491H457.429Z" fill="#3F3D56"/>
<path d="M165.245 300.578C164.179 299.953 162.99 299.569 161.76 299.453C160.53 299.337 159.29 299.492 158.126 299.907C156.963 300.322 155.904 300.987 155.026 301.856C154.147 302.724 153.47 303.774 153.041 304.932L133.746 305.685L131.146 314.669L158.577 316.073C160.572 316.664 162.713 316.503 164.597 315.62C166.48 314.738 167.974 313.196 168.796 311.286C169.618 309.376 169.71 307.231 169.056 305.257C168.401 303.284 167.045 301.619 165.245 300.578H165.245Z" fill="#9E616A"/>
<path d="M149.395 317.042L129.574 316.795L127.065 316.761L86.7396 316.253C86.7396 316.253 75.7888 305.81 66.2534 295.057L67.5899 285.394C68.8936 275.91 73.5998 267.223 80.8326 260.949C94.4896 270.071 102.41 288.127 102.41 288.127L115.689 294.067C125.034 294.485 134.141 297.151 142.236 301.839L146.603 304.368L149.395 317.042Z" fill="#57B894"/>
<path d="M211.668 490.428H283.16C278.284 491.141 273.362 491.705 268.396 492.119H226.433C221.464 491.707 216.543 491.143 211.668 490.428Z" fill="#CCCCCC"/>
<path d="M226.042 454.449C227.426 441.966 234.988 429.584 246.823 425.37C242.306 438.259 242.495 452.331 247.357 465.095C249.25 470.011 251.868 475.281 250.216 480.283C249.188 483.395 246.604 485.8 243.7 487.321C240.796 488.842 237.56 489.592 234.365 490.327L233.741 490.857C228.501 479.442 224.658 466.932 226.042 454.449Z" fill="#CCCCCC"/>
<path d="M246.944 425.604C240.124 433.452 235.95 443.248 235.017 453.602C234.777 455.827 234.889 458.076 235.349 460.267C235.866 462.386 236.941 464.328 238.464 465.892C239.853 467.378 241.447 468.737 242.452 470.535C242.952 471.463 243.251 472.486 243.328 473.538C243.405 474.589 243.258 475.645 242.899 476.636C242.067 479.128 240.388 481.173 238.677 483.116C236.778 485.273 234.77 487.484 233.989 490.321C233.894 490.664 233.366 490.497 233.461 490.154C234.821 485.219 239.557 482.363 241.775 477.904C242.809 475.824 243.223 473.419 242.198 471.252C241.302 469.356 239.659 467.953 238.239 466.46C236.732 464.957 235.616 463.108 234.988 461.074C234.418 458.914 234.22 456.673 234.402 454.446C234.732 449.427 235.849 444.491 237.712 439.818C239.81 434.474 242.806 429.528 246.572 425.194C246.805 424.925 247.175 425.337 246.944 425.604H246.944Z" fill="white"/>
<path d="M235.121 450.25C233.405 449.858 231.884 448.868 230.83 447.458C229.776 446.048 229.258 444.31 229.368 442.553C229.373 442.481 229.405 442.415 229.459 442.367C229.512 442.319 229.582 442.293 229.654 442.296C229.726 442.299 229.794 442.329 229.843 442.381C229.893 442.432 229.921 442.501 229.921 442.573C229.816 444.209 230.299 445.828 231.283 447.139C232.267 448.45 233.688 449.366 235.288 449.722C235.636 449.8 235.467 450.327 235.121 450.25H235.121Z" fill="white"/>
<path d="M237.66 465.231C240.725 463.345 242.967 460.374 243.938 456.909C244.034 456.566 244.562 456.733 244.466 457.075C243.449 460.679 241.11 463.766 237.915 465.722C237.611 465.908 237.357 465.416 237.66 465.231Z" fill="white"/>
<path d="M240.331 434.991C240.963 435.282 241.658 435.41 242.352 435.366C243.047 435.321 243.719 435.105 244.309 434.736C244.612 434.546 244.865 435.039 244.565 435.227C243.911 435.631 243.168 435.869 242.401 435.92C241.634 435.971 240.866 435.834 240.164 435.519C240.095 435.495 240.039 435.446 240.005 435.381C239.971 435.317 239.964 435.242 239.983 435.172C240.006 435.102 240.055 435.044 240.12 435.01C240.185 434.977 240.261 434.97 240.331 434.991L240.331 434.991Z" fill="white"/>
<path d="M283.361 447.144C283.176 447.268 282.991 447.392 282.805 447.521C280.323 449.2 277.982 451.078 275.804 453.137C275.634 453.293 275.463 453.454 275.297 453.616C270.103 458.631 265.886 464.566 262.86 471.12C261.658 473.729 260.657 476.426 259.865 479.187C258.77 483 257.887 487.222 255.663 490.358C255.434 490.688 255.185 491.004 254.918 491.303L234.436 491.576C234.389 491.554 234.342 491.536 234.295 491.513L233.478 491.561C233.509 491.416 233.544 491.266 233.575 491.121C233.593 491.036 233.615 490.952 233.632 490.868C233.646 490.811 233.659 490.755 233.668 490.704C233.672 490.685 233.676 490.666 233.681 490.652C233.69 490.601 233.703 490.554 233.712 490.507C233.906 489.668 234.107 488.829 234.314 487.99C234.314 487.985 234.314 487.985 234.318 487.98C235.833 481.572 238.104 475.365 241.082 469.491C241.173 469.317 241.264 469.138 241.364 468.964C242.745 466.363 244.336 463.879 246.121 461.537C247.103 460.258 248.149 459.029 249.255 457.855C252.118 454.829 255.441 452.271 259.099 450.276C266.393 446.301 274.878 444.702 282.761 446.965C282.962 447.023 283.16 447.082 283.361 447.144Z" fill="#CCCCCC"/>
<path d="M283.318 447.405C273.146 449.566 263.914 454.876 256.933 462.581C255.401 464.213 254.135 466.077 253.183 468.103C252.32 470.106 252.009 472.304 252.283 474.469C252.497 476.492 252.951 478.536 252.67 480.576C252.511 481.618 252.133 482.615 251.561 483.501C250.99 484.387 250.237 485.142 249.353 485.717C247.187 487.206 244.615 487.829 242.079 488.35C239.263 488.929 236.329 489.486 233.997 491.28C233.714 491.498 233.393 491.047 233.675 490.83C237.734 487.708 243.236 488.278 247.692 486.053C249.771 485.015 251.549 483.344 252.036 480.996C252.462 478.943 251.996 476.834 251.761 474.788C251.463 472.68 251.686 470.532 252.41 468.53C253.255 466.462 254.447 464.554 255.933 462.885C259.219 459.076 263.084 455.807 267.386 453.198C272.28 450.193 277.651 448.048 283.268 446.853C283.616 446.78 283.664 447.332 283.318 447.405H283.318Z" fill="white"/>
<path d="M259.035 459.968C257.901 458.622 257.282 456.916 257.29 455.156C257.298 453.396 257.931 451.696 259.077 450.359C259.31 450.09 259.74 450.439 259.507 450.709C258.437 451.951 257.848 453.535 257.844 455.174C257.84 456.813 258.423 458.399 259.486 459.647C259.717 459.918 259.265 460.238 259.035 459.968Z" fill="white"/>
<path d="M252.039 473.457C255.622 473.797 259.202 472.773 262.064 470.591C262.347 470.375 262.668 470.826 262.385 471.042C259.403 473.307 255.675 474.364 251.947 474.003C251.592 473.969 251.685 473.423 252.039 473.457V473.457Z" fill="white"/>
<path d="M272.384 450.92C272.714 451.533 273.192 452.053 273.773 452.436C274.354 452.818 275.022 453.05 275.715 453.111C276.07 453.141 275.976 453.687 275.623 453.657C274.858 453.586 274.121 453.329 273.478 452.908C272.835 452.487 272.304 451.915 271.933 451.242C271.893 451.181 271.877 451.107 271.889 451.036C271.901 450.964 271.94 450.9 271.998 450.855C272.058 450.813 272.132 450.796 272.204 450.809C272.277 450.821 272.341 450.861 272.384 450.92V450.92Z" fill="white"/>
<path d="M293.985 464.535C297.583 464.535 300.499 461.62 300.499 458.024C300.499 454.428 297.583 451.512 293.985 451.512C290.388 451.512 287.471 454.428 287.471 458.024C287.471 461.62 290.388 464.535 293.985 464.535Z" fill="#CCCCCC"/>
<path d="M315.252 483.552C314.852 483.669 314.446 483.786 314.04 483.896C310.357 484.929 306.647 485.874 302.91 486.73C302.48 485.862 302.249 484.909 302.235 483.94C302.22 482.971 302.422 482.012 302.825 481.131C303.229 480.25 303.824 479.47 304.567 478.849C305.31 478.227 306.183 477.779 307.122 477.537C308.06 477.296 309.041 477.266 309.992 477.452C310.943 477.637 311.841 478.032 312.62 478.609C313.399 479.185 314.039 479.928 314.495 480.783C314.95 481.638 315.209 482.584 315.252 483.552V483.552Z" fill="#CCCCCC"/>
<path d="M352.467 469.573C351.969 469.807 351.471 470.04 350.973 470.268C350.432 470.526 349.885 470.772 349.343 471.018C348.735 471.294 348.132 471.565 347.523 471.835C345.236 472.856 342.924 473.839 340.605 474.786C340.574 474.737 340.544 474.681 340.513 474.626C339.701 473.105 339.526 471.323 340.026 469.673C340.526 468.022 341.66 466.638 343.18 465.822C344.7 465.007 346.482 464.827 348.134 465.323C349.786 465.819 351.174 466.949 351.994 468.467C352.182 468.822 352.341 469.192 352.467 469.573Z" fill="#CCCCCC"/>
<path d="M316.96 448.552C320.558 448.552 323.474 445.637 323.474 442.04C323.474 438.444 320.558 435.529 316.96 435.529C313.363 435.529 310.446 438.444 310.446 442.04C310.446 445.637 313.363 448.552 316.96 448.552Z" fill="#CCCCCC"/>
<path d="M257.208 85.2622C218.891 95.3374 176.437 101.466 133.269 103.144C126.942 103.489 120.601 103.446 114.28 103.015C100.388 101.847 88.4894 97.4827 75.2376 95.0976C68.8669 93.9542 61.7707 93.1182 55.3569 91.8827C56.8389 90.0447 58.3475 88.2292 59.8828 86.4363C73.7126 87.6043 87.7576 91.4278 101.753 93.2043C125.545 96.2287 152.202 92.8539 170.238 84.5307C178.989 80.492 185.691 75.4514 194.411 71.3943C195.597 70.7856 196.882 70.3923 198.205 70.2325C200.966 69.9804 203.389 71.0931 205.363 72.0889C219.992 79.4716 241.232 85.4712 260.947 82.1702C262.416 83.3197 259.624 84.629 257.208 85.2622Z" fill="white"/>
<path d="M344.448 111.243C344.628 111.21 344.808 111.185 344.988 111.153C344.231 110.684 343.518 110.147 342.858 109.549L344.448 111.243Z" fill="white"/>
<path d="M462.466 125.808C454.232 126.466 445.955 126.956 437.635 127.278C431.308 127.619 424.967 127.576 418.646 127.149C404.754 125.974 392.855 121.616 379.604 119.231C367.459 117.049 352.7 115.998 344.989 111.154C364.919 107.705 385.568 114.725 406.119 117.338C422.743 119.381 439.594 118.549 455.935 114.879C458.21 118.456 460.387 122.1 462.466 125.808Z" fill="white"/>
<path d="M277.112 218.018C257.822 151.833 246.469 83.5915 246.469 14.6544V9.6582H240.06V14.6542C240.06 83.5915 228.706 151.833 209.417 218.018C208.484 221.223 208.012 224.543 208.014 227.88V227.88C208.014 229.142 208.262 230.391 208.745 231.557C209.229 232.723 209.937 233.783 210.829 234.675C211.722 235.568 212.782 236.276 213.948 236.759C215.115 237.242 216.365 237.49 217.627 237.49H230.446C230.446 239.173 230.777 240.839 231.422 242.394C232.066 243.948 233.01 245.361 234.2 246.551C235.391 247.741 236.804 248.685 238.359 249.329C239.914 249.973 241.581 250.304 243.264 250.304C244.948 250.304 246.614 249.973 248.17 249.329C249.725 248.685 251.138 247.741 252.328 246.551C253.519 245.361 254.463 243.948 255.107 242.394C255.751 240.839 256.083 239.173 256.083 237.49H266.057V265.108C264.65 265.149 263.312 265.727 262.318 266.723C261.324 267.719 260.749 269.058 260.711 270.464C260.673 271.871 261.175 273.239 262.114 274.287C263.053 275.335 264.358 275.984 265.76 276.101C267.163 276.218 268.557 275.794 269.657 274.915C270.757 274.037 271.478 272.771 271.674 271.377C271.869 269.984 271.523 268.568 270.708 267.422C269.892 266.275 268.668 265.484 267.287 265.211V237.49H268.901C271.451 237.49 273.896 236.478 275.699 234.675C277.502 232.873 278.515 230.429 278.515 227.88V227.88C278.517 224.543 278.044 221.222 277.112 218.018V218.018Z" fill="white"/>
</g>
<defs>
<clipPath id="clip0_307_2054">
<rect width="494" height="493" fill="white"/>
</clipPath>
</defs>
</svg>
