<svg width="447" height="142" viewBox="0 0 447 142" fill="none" xmlns="http://www.w3.org/2000/svg">
<path d="M297.713 119V110.808H300.169V119H297.713ZM298.945 109.104C298.679 109.104 298.433 109.04 298.209 108.912C297.991 108.779 297.815 108.6 297.681 108.376C297.548 108.152 297.481 107.907 297.481 107.64C297.481 107.373 297.548 107.131 297.681 106.912C297.815 106.693 297.991 106.52 298.209 106.392C298.433 106.259 298.679 106.192 298.945 106.192C299.212 106.192 299.455 106.259 299.673 106.392C299.892 106.52 300.065 106.693 300.193 106.912C300.327 107.131 300.393 107.373 300.393 107.64C300.393 107.907 300.327 108.152 300.193 108.376C300.065 108.6 299.892 108.779 299.673 108.912C299.455 109.04 299.212 109.104 298.945 109.104ZM303.065 119V110.808H305.521V111.72C305.836 111.368 306.228 111.085 306.697 110.872C307.172 110.659 307.695 110.552 308.265 110.552C308.895 110.552 309.447 110.691 309.921 110.968C310.401 111.24 310.777 111.621 311.049 112.112C311.321 112.597 311.457 113.165 311.457 113.816V119H309.001V114.336C309.001 113.749 308.847 113.293 308.537 112.968C308.233 112.637 307.815 112.472 307.281 112.472C306.919 112.472 306.604 112.547 306.337 112.696C306.076 112.84 305.873 113.04 305.729 113.296C305.591 113.547 305.521 113.832 305.521 114.152V119H303.065ZM317.582 119.256C316.841 119.256 316.164 119.072 315.55 118.704C314.942 118.331 314.457 117.816 314.094 117.16C313.732 116.504 313.55 115.752 313.55 114.904C313.55 114.072 313.726 113.331 314.078 112.68C314.43 112.024 314.913 111.507 315.526 111.128C316.145 110.744 316.852 110.552 317.646 110.552C318.222 110.552 318.756 110.664 319.246 110.888C319.737 111.107 320.145 111.413 320.47 111.808V105.24H322.926V119H320.47V117.92C320.108 118.341 319.678 118.669 319.182 118.904C318.686 119.139 318.153 119.256 317.582 119.256ZM318.318 117.168C318.75 117.168 319.132 117.072 319.462 116.88C319.793 116.683 320.052 116.413 320.238 116.072C320.43 115.731 320.526 115.344 320.526 114.912C320.526 114.475 320.43 114.085 320.238 113.744C320.052 113.403 319.793 113.133 319.462 112.936C319.132 112.739 318.753 112.64 318.326 112.64C317.905 112.64 317.529 112.739 317.198 112.936C316.873 113.133 316.614 113.405 316.422 113.752C316.23 114.093 316.134 114.483 316.134 114.92C316.134 115.352 316.228 115.739 316.414 116.08C316.601 116.416 316.86 116.683 317.19 116.88C317.521 117.072 317.897 117.168 318.318 117.168ZM329.895 119.256C328.994 119.256 328.181 119.072 327.455 118.704C326.73 118.331 326.154 117.819 325.727 117.168C325.301 116.512 325.087 115.757 325.087 114.904C325.087 114.051 325.298 113.299 325.719 112.648C326.146 111.992 326.722 111.48 327.447 111.112C328.178 110.739 328.994 110.552 329.895 110.552C330.802 110.552 331.618 110.739 332.343 111.112C333.069 111.48 333.642 111.992 334.063 112.648C334.49 113.299 334.703 114.051 334.703 114.904C334.703 115.757 334.49 116.512 334.063 117.168C333.642 117.819 333.069 118.331 332.343 118.704C331.618 119.072 330.802 119.256 329.895 119.256ZM329.903 117.16C330.319 117.16 330.698 117.064 331.039 116.872C331.381 116.68 331.65 116.416 331.847 116.08C332.045 115.739 332.143 115.347 332.143 114.904C332.143 114.461 332.045 114.072 331.847 113.736C331.65 113.395 331.381 113.128 331.039 112.936C330.698 112.744 330.319 112.648 329.903 112.648C329.482 112.648 329.101 112.744 328.759 112.936C328.423 113.128 328.157 113.395 327.959 113.736C327.762 114.072 327.663 114.461 327.663 114.904C327.663 115.347 327.762 115.739 327.959 116.08C328.157 116.416 328.423 116.68 328.759 116.872C329.101 117.064 329.482 117.16 329.903 117.16ZM340.958 119.256C340.056 119.256 339.243 119.072 338.518 118.704C337.792 118.331 337.216 117.819 336.79 117.168C336.363 116.512 336.15 115.757 336.15 114.904C336.15 114.051 336.36 113.299 336.782 112.648C337.208 111.992 337.784 111.48 338.51 111.112C339.24 110.739 340.056 110.552 340.958 110.552C341.864 110.552 342.68 110.739 343.406 111.112C344.131 111.48 344.704 111.992 345.126 112.648C345.552 113.299 345.766 114.051 345.766 114.904C345.766 115.757 345.552 116.512 345.126 117.168C344.704 117.819 344.131 118.331 343.406 118.704C342.68 119.072 341.864 119.256 340.958 119.256ZM340.966 117.16C341.382 117.16 341.76 117.064 342.102 116.872C342.443 116.68 342.712 116.416 342.91 116.08C343.107 115.739 343.206 115.347 343.206 114.904C343.206 114.461 343.107 114.072 342.91 113.736C342.712 113.395 342.443 113.128 342.102 112.936C341.76 112.744 341.382 112.648 340.966 112.648C340.544 112.648 340.163 112.744 339.822 112.936C339.486 113.128 339.219 113.395 339.022 113.736C338.824 114.072 338.726 114.461 338.726 114.904C338.726 115.347 338.824 115.739 339.022 116.08C339.219 116.416 339.486 116.68 339.822 116.872C340.163 117.064 340.544 117.16 340.966 117.16ZM347.909 119V110.808H350.365V111.984C350.669 111.525 351.04 111.173 351.477 110.928C351.92 110.677 352.394 110.552 352.901 110.552C353.189 110.552 353.488 110.595 353.797 110.68C354.106 110.765 354.365 110.875 354.573 111.008L353.549 113.08C353.368 112.957 353.154 112.861 352.909 112.792C352.669 112.717 352.445 112.68 352.237 112.68C351.917 112.68 351.613 112.763 351.325 112.928C351.037 113.093 350.805 113.309 350.629 113.576C350.453 113.837 350.365 114.12 350.365 114.424V119H347.909ZM360.253 119V105.24H362.709V119H360.253ZM365.588 119V110.808H368.044V119H365.588ZM366.82 109.104C366.554 109.104 366.308 109.04 366.084 108.912C365.866 108.779 365.69 108.6 365.556 108.376C365.423 108.152 365.356 107.907 365.356 107.64C365.356 107.373 365.423 107.131 365.556 106.912C365.69 106.693 365.866 106.52 366.084 106.392C366.308 106.259 366.554 106.192 366.82 106.192C367.087 106.192 367.33 106.259 367.548 106.392C367.767 106.52 367.94 106.693 368.068 106.912C368.202 107.131 368.268 107.373 368.268 107.64C368.268 107.907 368.202 108.152 368.068 108.376C367.94 108.6 367.767 108.779 367.548 108.912C367.33 109.04 367.087 109.104 366.82 109.104ZM374.884 123.4C373.78 123.4 372.852 123.197 372.1 122.792C371.348 122.392 370.802 121.8 370.46 121.016L372.46 120.04C372.684 120.419 373.015 120.72 373.452 120.944C373.89 121.168 374.364 121.28 374.876 121.28C375.34 121.28 375.748 121.187 376.1 121C376.452 120.819 376.727 120.56 376.924 120.224C377.122 119.893 377.22 119.509 377.22 119.072V117.92C376.858 118.341 376.428 118.669 375.932 118.904C375.436 119.139 374.903 119.256 374.332 119.256C373.591 119.256 372.914 119.072 372.3 118.704C371.692 118.331 371.207 117.816 370.844 117.16C370.482 116.504 370.3 115.752 370.3 114.904C370.3 114.072 370.476 113.331 370.828 112.68C371.186 112.024 371.671 111.507 372.284 111.128C372.903 110.744 373.607 110.552 374.396 110.552C374.972 110.552 375.506 110.664 375.996 110.888C376.487 111.107 376.895 111.413 377.22 111.808V110.808H379.676V119.224C379.676 120.029 379.5 120.747 379.148 121.376C378.802 122.005 378.274 122.499 377.564 122.856C376.855 123.219 375.962 123.4 374.884 123.4ZM375.068 117.168C375.5 117.168 375.882 117.072 376.212 116.88C376.548 116.683 376.81 116.416 376.996 116.08C377.183 115.739 377.276 115.352 377.276 114.92C377.276 114.477 377.18 114.085 376.988 113.744C376.802 113.403 376.543 113.133 376.212 112.936C375.882 112.739 375.506 112.64 375.084 112.64C374.663 112.64 374.287 112.739 373.956 112.936C373.626 113.133 373.364 113.405 373.172 113.752C372.98 114.093 372.884 114.483 372.884 114.92C372.884 115.352 372.978 115.739 373.164 116.08C373.351 116.416 373.61 116.683 373.94 116.88C374.271 117.072 374.647 117.168 375.068 117.168ZM382.565 119V105.24H385.021V111.72C385.336 111.368 385.728 111.085 386.197 110.872C386.672 110.659 387.195 110.552 387.765 110.552C388.395 110.552 388.947 110.691 389.421 110.968C389.901 111.24 390.277 111.621 390.549 112.112C390.821 112.597 390.957 113.165 390.957 113.816V119H388.501V114.336C388.501 113.749 388.347 113.293 388.037 112.968C387.733 112.637 387.315 112.472 386.781 112.472C386.419 112.472 386.104 112.547 385.837 112.696C385.576 112.84 385.373 113.04 385.229 113.296C385.091 113.547 385.021 113.832 385.021 114.152V119H382.565ZM396.42 119.256C395.604 119.256 394.97 118.997 394.516 118.48C394.063 117.957 393.836 117.229 393.836 116.296V112.672H392.74V110.808H393.836V107.736H396.292V110.808H398.092V112.672H396.292V116.12C396.292 116.429 396.354 116.664 396.476 116.824C396.604 116.984 396.783 117.064 397.012 117.064C397.268 117.064 397.514 116.979 397.748 116.808L398.364 118.776C398.087 118.925 397.775 119.043 397.428 119.128C397.087 119.213 396.751 119.256 396.42 119.256ZM408.216 119.256C407.464 119.256 406.778 119.069 406.16 118.696C405.546 118.317 405.058 117.8 404.696 117.144C404.338 116.483 404.16 115.731 404.16 114.888C404.16 114.067 404.333 113.331 404.68 112.68C405.026 112.024 405.504 111.507 406.112 111.128C406.725 110.744 407.426 110.552 408.216 110.552C408.797 110.552 409.338 110.664 409.84 110.888C410.346 111.107 410.76 111.413 411.08 111.808V110.808H413.536V119H411.08V117.92C410.706 118.352 410.277 118.683 409.792 118.912C409.306 119.141 408.781 119.256 408.216 119.256ZM408.944 117.168C409.37 117.168 409.749 117.072 410.08 116.88C410.41 116.683 410.669 116.413 410.856 116.072C411.042 115.731 411.136 115.341 411.136 114.904C411.136 114.461 411.04 114.072 410.848 113.736C410.661 113.395 410.402 113.128 410.072 112.936C409.746 112.739 409.37 112.64 408.944 112.64C408.522 112.64 408.146 112.739 407.816 112.936C407.485 113.128 407.224 113.395 407.032 113.736C406.84 114.077 406.744 114.467 406.744 114.904C406.744 115.341 406.837 115.731 407.024 116.072C407.216 116.413 407.477 116.683 407.808 116.88C408.138 117.072 408.517 117.168 408.944 117.168ZM416.425 119V110.808H418.881V111.72C419.195 111.368 419.587 111.085 420.057 110.872C420.531 110.659 421.054 110.552 421.625 110.552C422.254 110.552 422.806 110.691 423.281 110.968C423.761 111.24 424.137 111.621 424.409 112.112C424.681 112.597 424.817 113.165 424.817 113.816V119H422.361V114.336C422.361 113.749 422.206 113.293 421.897 112.968C421.593 112.637 421.174 112.472 420.641 112.472C420.278 112.472 419.963 112.547 419.697 112.696C419.435 112.84 419.233 113.04 419.089 113.296C418.95 113.547 418.881 113.832 418.881 114.152V119H416.425ZM430.942 119.256C430.2 119.256 429.523 119.072 428.91 118.704C428.302 118.331 427.816 117.816 427.454 117.16C427.091 116.504 426.91 115.752 426.91 114.904C426.91 114.072 427.086 113.331 427.438 112.68C427.79 112.024 428.272 111.507 428.886 111.128C429.504 110.744 430.211 110.552 431.006 110.552C431.582 110.552 432.115 110.664 432.606 110.888C433.096 111.107 433.504 111.413 433.83 111.808V105.24H436.286V119H433.83V117.92C433.467 118.341 433.038 118.669 432.542 118.904C432.046 119.139 431.512 119.256 430.942 119.256ZM431.678 117.168C432.11 117.168 432.491 117.072 432.822 116.88C433.152 116.683 433.411 116.413 433.598 116.072C433.79 115.731 433.886 115.344 433.886 114.912C433.886 114.475 433.79 114.085 433.598 113.744C433.411 113.403 433.152 113.133 432.822 112.936C432.491 112.739 432.112 112.64 431.686 112.64C431.264 112.64 430.888 112.739 430.558 112.936C430.232 113.133 429.974 113.405 429.782 113.752C429.59 114.093 429.494 114.483 429.494 114.92C429.494 115.352 429.587 115.739 429.774 116.08C429.96 116.416 430.219 116.683 430.55 116.88C430.88 117.072 431.256 117.168 431.678 117.168ZM298.231 137L293.927 128.808H296.823L299.055 133.752L301.287 128.808H304.183L299.871 137H298.231ZM305.518 137V128.808H307.974V137H305.518ZM306.75 127.104C306.483 127.104 306.238 127.04 306.014 126.912C305.795 126.779 305.619 126.6 305.486 126.376C305.353 126.152 305.286 125.907 305.286 125.64C305.286 125.373 305.353 125.131 305.486 124.912C305.619 124.693 305.795 124.52 306.014 124.392C306.238 124.259 306.483 124.192 306.75 124.192C307.017 124.192 307.259 124.259 307.478 124.392C307.697 124.52 307.87 124.693 307.998 124.912C308.131 125.131 308.198 125.373 308.198 125.64C308.198 125.907 308.131 126.152 307.998 126.376C307.87 126.6 307.697 126.779 307.478 126.912C307.259 127.04 307.017 127.104 306.75 127.104ZM313.19 137.256C312.497 137.256 311.875 137.147 311.326 136.928C310.782 136.709 310.329 136.389 309.966 135.968L310.998 134.32C311.339 134.683 311.697 134.96 312.07 135.152C312.443 135.344 312.817 135.44 313.19 135.44C313.398 135.44 313.577 135.405 313.726 135.336C313.881 135.267 314.001 135.168 314.086 135.04C314.177 134.907 314.222 134.747 314.222 134.56C314.222 134.347 314.161 134.179 314.038 134.056C313.921 133.933 313.739 133.821 313.494 133.72C313.249 133.613 312.931 133.48 312.542 133.32C312.211 133.181 311.894 133.024 311.59 132.848C311.286 132.672 311.038 132.448 310.846 132.176C310.659 131.904 310.566 131.56 310.566 131.144C310.566 130.637 310.707 130.192 310.99 129.808C311.273 129.419 311.662 129.115 312.158 128.896C312.659 128.677 313.235 128.568 313.886 128.568C314.291 128.568 314.715 128.629 315.158 128.752C315.606 128.875 316.083 129.061 316.59 129.312L315.75 130.888C315.062 130.445 314.446 130.224 313.902 130.224C313.598 130.224 313.355 130.291 313.174 130.424C312.993 130.557 312.902 130.725 312.902 130.928C312.902 131.12 312.995 131.288 313.182 131.432C313.374 131.571 313.606 131.696 313.878 131.808C314.155 131.915 314.419 132.013 314.67 132.104C315.081 132.253 315.443 132.419 315.758 132.6C316.078 132.781 316.329 133.019 316.51 133.312C316.691 133.6 316.782 133.987 316.782 134.472C316.782 135.064 316.638 135.568 316.35 135.984C316.067 136.395 315.657 136.709 315.118 136.928C314.585 137.147 313.942 137.256 313.19 137.256ZM323.073 137.256C321.58 137.256 320.503 136.96 319.841 136.368C319.18 135.776 318.849 134.808 318.849 133.464V128.808H321.305V132.888C321.305 133.752 321.439 134.363 321.705 134.72C321.977 135.077 322.433 135.256 323.073 135.256C323.724 135.256 324.18 135.077 324.441 134.72C324.708 134.363 324.841 133.752 324.841 132.888V128.808H327.297V133.464C327.297 134.808 326.967 135.776 326.305 136.368C325.649 136.96 324.572 137.256 323.073 137.256ZM333.411 137.256C332.659 137.256 331.974 137.069 331.355 136.696C330.742 136.317 330.254 135.8 329.891 135.144C329.534 134.483 329.355 133.731 329.355 132.888C329.355 132.067 329.528 131.331 329.875 130.68C330.222 130.024 330.699 129.507 331.307 129.128C331.92 128.744 332.622 128.552 333.411 128.552C333.992 128.552 334.534 128.664 335.035 128.888C335.542 129.107 335.955 129.413 336.275 129.808V128.808H338.731V137H336.275V135.92C335.902 136.352 335.472 136.683 334.987 136.912C334.502 137.141 333.976 137.256 333.411 137.256ZM334.139 135.168C334.566 135.168 334.944 135.072 335.275 134.88C335.606 134.683 335.864 134.413 336.051 134.072C336.238 133.731 336.331 133.341 336.331 132.904C336.331 132.461 336.235 132.072 336.043 131.736C335.856 131.395 335.598 131.128 335.267 130.936C334.942 130.739 334.566 130.64 334.139 130.64C333.718 130.64 333.342 130.739 333.011 130.936C332.68 131.128 332.419 131.395 332.227 131.736C332.035 132.077 331.939 132.467 331.939 132.904C331.939 133.341 332.032 133.731 332.219 134.072C332.411 134.413 332.672 134.683 333.003 134.88C333.334 135.072 333.712 135.168 334.139 135.168ZM341.62 137V123.24H344.076V137H341.62ZM355.108 137.256C354.484 137.256 353.895 137.144 353.34 136.92C352.791 136.696 352.305 136.387 351.884 135.992C351.463 135.592 351.132 135.131 350.892 134.608C350.652 134.08 350.532 133.515 350.532 132.912C350.532 132.331 350.644 131.779 350.868 131.256C351.097 130.733 351.417 130.269 351.828 129.864C352.244 129.459 352.729 129.139 353.284 128.904C353.844 128.669 354.449 128.552 355.1 128.552C355.628 128.552 356.135 128.627 356.62 128.776C357.111 128.925 357.505 129.117 357.804 129.352L356.964 131.008C356.564 130.715 356.068 130.568 355.476 130.568C354.969 130.568 354.54 130.68 354.188 130.904C353.836 131.128 353.567 131.419 353.38 131.776C353.199 132.133 353.108 132.509 353.108 132.904C353.108 133.336 353.207 133.731 353.404 134.088C353.601 134.44 353.879 134.72 354.236 134.928C354.599 135.136 355.017 135.24 355.492 135.24C355.785 135.24 356.06 135.2 356.316 135.12C356.572 135.04 356.788 134.933 356.964 134.8L357.804 136.456C357.5 136.685 357.108 136.875 356.628 137.024C356.148 137.179 355.641 137.256 355.108 137.256ZM363.872 137.256C362.97 137.256 362.157 137.072 361.432 136.704C360.706 136.331 360.13 135.819 359.704 135.168C359.277 134.512 359.064 133.757 359.064 132.904C359.064 132.051 359.274 131.299 359.696 130.648C360.122 129.992 360.698 129.48 361.424 129.112C362.154 128.739 362.97 128.552 363.872 128.552C364.778 128.552 365.594 128.739 366.32 129.112C367.045 129.48 367.618 129.992 368.04 130.648C368.466 131.299 368.68 132.051 368.68 132.904C368.68 133.757 368.466 134.512 368.04 135.168C367.618 135.819 367.045 136.331 366.32 136.704C365.594 137.072 364.778 137.256 363.872 137.256ZM363.88 135.16C364.296 135.16 364.674 135.064 365.016 134.872C365.357 134.68 365.626 134.416 365.824 134.08C366.021 133.739 366.12 133.347 366.12 132.904C366.12 132.461 366.021 132.072 365.824 131.736C365.626 131.395 365.357 131.128 365.016 130.936C364.674 130.744 364.296 130.648 363.88 130.648C363.458 130.648 363.077 130.744 362.736 130.936C362.4 131.128 362.133 131.395 361.936 131.736C361.738 132.072 361.64 132.461 361.64 132.904C361.64 133.347 361.738 133.739 361.936 134.08C362.133 134.416 362.4 134.68 362.736 134.872C363.077 135.064 363.458 135.16 363.88 135.16ZM370.823 137V128.808H373.279V129.72C373.594 129.368 373.986 129.085 374.455 128.872C374.93 128.659 375.452 128.552 376.023 128.552C376.652 128.552 377.204 128.691 377.679 128.968C378.159 129.24 378.535 129.621 378.807 130.112C379.079 130.597 379.215 131.165 379.215 131.816V137H376.759V132.336C376.759 131.749 376.604 131.293 376.295 130.968C375.991 130.637 375.572 130.472 375.039 130.472C374.676 130.472 374.362 130.547 374.095 130.696C373.834 130.84 373.631 131.04 373.487 131.296C373.348 131.547 373.279 131.832 373.279 132.152V137H370.823ZM385.34 137.256C384.599 137.256 383.921 137.072 383.308 136.704C382.7 136.331 382.215 135.816 381.852 135.16C381.489 134.504 381.308 133.752 381.308 132.904C381.308 132.072 381.484 131.331 381.836 130.68C382.188 130.024 382.671 129.507 383.284 129.128C383.903 128.744 384.609 128.552 385.404 128.552C385.98 128.552 386.513 128.664 387.004 128.888C387.495 129.107 387.903 129.413 388.228 129.808V123.24H390.684V137H388.228V135.92C387.865 136.341 387.436 136.669 386.94 136.904C386.444 137.139 385.911 137.256 385.34 137.256ZM386.076 135.168C386.508 135.168 386.889 135.072 387.22 134.88C387.551 134.683 387.809 134.413 387.996 134.072C388.188 133.731 388.284 133.344 388.284 132.912C388.284 132.475 388.188 132.085 387.996 131.744C387.809 131.403 387.551 131.133 387.22 130.936C386.889 130.739 386.511 130.64 386.084 130.64C385.663 130.64 385.287 130.739 384.956 130.936C384.631 131.133 384.372 131.405 384.18 131.752C383.988 132.093 383.892 132.483 383.892 132.92C383.892 133.352 383.985 133.739 384.172 134.08C384.359 134.416 384.617 134.683 384.948 134.88C385.279 135.072 385.655 135.168 386.076 135.168ZM393.565 137V128.808H396.021V137H393.565ZM394.797 127.104C394.53 127.104 394.285 127.04 394.061 126.912C393.842 126.779 393.666 126.6 393.533 126.376C393.4 126.152 393.333 125.907 393.333 125.64C393.333 125.373 393.4 125.131 393.533 124.912C393.666 124.693 393.842 124.52 394.061 124.392C394.285 124.259 394.53 124.192 394.797 124.192C395.064 124.192 395.306 124.259 395.525 124.392C395.744 124.52 395.917 124.693 396.045 124.912C396.178 125.131 396.245 125.373 396.245 125.64C396.245 125.907 396.178 126.152 396.045 126.376C395.917 126.6 395.744 126.779 395.525 126.912C395.306 127.04 395.064 127.104 394.797 127.104ZM401.741 137.256C400.925 137.256 400.29 136.997 399.837 136.48C399.383 135.957 399.157 135.229 399.157 134.296V130.672H398.061V128.808H399.157V125.736H401.613V128.808H403.413V130.672H401.613V134.12C401.613 134.429 401.674 134.664 401.797 134.824C401.925 134.984 402.103 135.064 402.333 135.064C402.589 135.064 402.834 134.979 403.069 134.808L403.685 136.776C403.407 136.925 403.095 137.043 402.749 137.128C402.407 137.213 402.071 137.256 401.741 137.256ZM405.799 137V128.808H408.255V137H405.799ZM407.031 127.104C406.765 127.104 406.519 127.04 406.295 126.912C406.077 126.779 405.901 126.6 405.767 126.376C405.634 126.152 405.567 125.907 405.567 125.64C405.567 125.373 405.634 125.131 405.767 124.912C405.901 124.693 406.077 124.52 406.295 124.392C406.519 124.259 406.765 124.192 407.031 124.192C407.298 124.192 407.541 124.259 407.759 124.392C407.978 124.52 408.151 124.693 408.279 124.912C408.413 125.131 408.479 125.373 408.479 125.64C408.479 125.907 408.413 126.152 408.279 126.376C408.151 126.6 407.978 126.779 407.759 126.912C407.541 127.04 407.298 127.104 407.031 127.104ZM415.231 137.256C414.33 137.256 413.516 137.072 412.791 136.704C412.066 136.331 411.49 135.819 411.063 135.168C410.636 134.512 410.423 133.757 410.423 132.904C410.423 132.051 410.634 131.299 411.055 130.648C411.482 129.992 412.058 129.48 412.783 129.112C413.514 128.739 414.33 128.552 415.231 128.552C416.138 128.552 416.954 128.739 417.679 129.112C418.404 129.48 418.978 129.992 419.399 130.648C419.826 131.299 420.039 132.051 420.039 132.904C420.039 133.757 419.826 134.512 419.399 135.168C418.978 135.819 418.404 136.331 417.679 136.704C416.954 137.072 416.138 137.256 415.231 137.256ZM415.239 135.16C415.655 135.16 416.034 135.064 416.375 134.872C416.716 134.68 416.986 134.416 417.183 134.08C417.38 133.739 417.479 133.347 417.479 132.904C417.479 132.461 417.38 132.072 417.183 131.736C416.986 131.395 416.716 131.128 416.375 130.936C416.034 130.744 415.655 130.648 415.239 130.648C414.818 130.648 414.436 130.744 414.095 130.936C413.759 131.128 413.492 131.395 413.295 131.736C413.098 132.072 412.999 132.461 412.999 132.904C412.999 133.347 413.098 133.739 413.295 134.08C413.492 134.416 413.759 134.68 414.095 134.872C414.436 135.064 414.818 135.16 415.239 135.16ZM422.182 137V128.808H424.638V129.72C424.953 129.368 425.345 129.085 425.814 128.872C426.289 128.659 426.812 128.552 427.382 128.552C428.012 128.552 428.564 128.691 429.038 128.968C429.518 129.24 429.894 129.621 430.166 130.112C430.438 130.597 430.574 131.165 430.574 131.816V137H428.118V132.336C428.118 131.749 427.964 131.293 427.654 130.968C427.35 130.637 426.932 130.472 426.398 130.472C426.036 130.472 425.721 130.547 425.454 130.696C425.193 130.84 424.99 131.04 424.846 131.296C424.708 131.547 424.638 131.832 424.638 132.152V137H422.182ZM435.549 137.256C434.856 137.256 434.235 137.147 433.685 136.928C433.141 136.709 432.688 136.389 432.325 135.968L433.357 134.32C433.699 134.683 434.056 134.96 434.429 135.152C434.803 135.344 435.176 135.44 435.549 135.44C435.757 135.44 435.936 135.405 436.085 135.336C436.24 135.267 436.36 135.168 436.445 135.04C436.536 134.907 436.581 134.747 436.581 134.56C436.581 134.347 436.52 134.179 436.397 134.056C436.28 133.933 436.099 133.821 435.853 133.72C435.608 133.613 435.291 133.48 434.901 133.32C434.571 133.181 434.253 133.024 433.949 132.848C433.645 132.672 433.397 132.448 433.205 132.176C433.019 131.904 432.925 131.56 432.925 131.144C432.925 130.637 433.067 130.192 433.349 129.808C433.632 129.419 434.021 129.115 434.517 128.896C435.019 128.677 435.595 128.568 436.245 128.568C436.651 128.568 437.075 128.629 437.517 128.752C437.965 128.875 438.443 129.061 438.949 129.312L438.109 130.888C437.421 130.445 436.805 130.224 436.261 130.224C435.957 130.224 435.715 130.291 435.533 130.424C435.352 130.557 435.261 130.725 435.261 130.928C435.261 131.12 435.355 131.288 435.541 131.432C435.733 131.571 435.965 131.696 436.237 131.808C436.515 131.915 436.779 132.013 437.029 132.104C437.44 132.253 437.803 132.419 438.117 132.6C438.437 132.781 438.688 133.019 438.869 133.312C439.051 133.6 439.141 133.987 439.141 134.472C439.141 135.064 438.997 135.568 438.709 135.984C438.427 136.395 438.016 136.709 437.477 136.928C436.944 137.147 436.301 137.256 435.549 137.256Z" fill="black"/>
<g clip-path="url(#clip0_319_4245)">
<path d="M361.169 82.9491C359.96 82.949 358.79 82.5202 357.868 81.7389C356.945 80.9577 356.33 79.8746 356.131 78.6823L356.129 78.6725L356.136 78.6648C356.462 78.2735 356.726 77.834 356.918 77.3618C356.69 77.6548 356.414 77.9073 356.102 78.1089L356.07 78.1303L356.068 78.0918C356.064 78.0072 356.062 77.9232 356.062 77.842C356.059 76.9736 356.279 76.1189 356.7 75.3597C357.122 74.6005 357.731 73.9621 358.47 73.5056C357.721 72.7237 357.157 71.7833 356.82 70.7539C356.484 69.7245 356.383 68.6325 356.526 67.559C356.668 66.4854 357.051 65.4577 357.645 64.552C358.239 63.6463 359.029 62.8859 359.956 62.327C360.884 61.7681 361.926 61.4251 363.004 61.3234C364.082 61.2217 365.169 61.3639 366.185 61.7395C367.201 62.1151 368.119 62.7144 368.872 63.4931C369.625 64.2717 370.193 65.2098 370.534 66.2378L370.54 66.2572L370.521 66.2648C370.086 66.4523 369.618 66.5509 369.145 66.5548C369.638 66.6944 370.149 66.7563 370.662 66.7382L370.679 66.7376L370.683 66.7547C370.827 67.3286 370.899 67.9178 370.899 68.5093C370.899 68.5306 370.899 68.552 370.898 68.5733C370.897 69.0332 370.993 69.4882 371.179 69.9087C371.365 70.3292 371.638 70.7057 371.979 71.0137C372.525 71.5101 372.957 72.1188 373.244 72.7979C373.532 73.477 373.67 74.2104 373.647 74.9476C373.624 75.6849 373.442 76.4085 373.113 77.0686C372.784 77.7288 372.316 78.3098 371.741 78.7718L371.731 78.7802L371.718 78.7747C370.963 78.4321 370.438 78.0497 370.079 77.5801C370.322 78.1713 370.675 78.7107 371.12 79.1692L371.139 79.1892L371.115 79.2033C370.352 79.6478 369.486 79.887 368.603 79.8976C367.72 79.9081 366.849 79.6895 366.075 79.2632C365.765 80.3247 365.119 81.2573 364.235 81.9216C363.35 82.5859 362.275 82.9463 361.169 82.9491V82.9491Z" fill="#4A773C"/>
<path d="M359.349 91.0841C359.326 91.0841 359.305 91.076 359.288 91.0614C359.271 91.0467 359.26 91.0265 359.257 91.0044C359.014 88.8406 359 86.6573 359.214 84.4905C359.534 81.0724 360.562 76.149 363.644 72.1055C363.651 72.0957 363.66 72.0875 363.671 72.0813C363.681 72.0752 363.693 72.0711 363.705 72.0695C363.717 72.0678 363.729 72.0686 363.741 72.0717C363.753 72.0748 363.764 72.0802 363.774 72.0876C363.784 72.095 363.792 72.1042 363.798 72.1148C363.804 72.1254 363.808 72.1371 363.81 72.1492C363.811 72.1613 363.81 72.1736 363.807 72.1854C363.804 72.1972 363.799 72.2083 363.791 72.218C360.737 76.2265 359.717 81.1138 359.398 84.5079C359.186 86.6602 359.2 88.8289 359.441 90.9782C359.443 90.9914 359.442 91.0048 359.438 91.0176C359.434 91.0303 359.428 91.0421 359.419 91.0521C359.41 91.0622 359.399 91.0702 359.387 91.0757C359.375 91.0812 359.362 91.0841 359.349 91.0841V91.0841Z" fill="#A7ACA2"/>
<path d="M360.889 77.452C360.87 77.4521 360.851 77.4459 360.835 77.4344C360.819 77.4228 360.807 77.4066 360.801 77.388C360.795 77.3693 360.795 77.3492 360.801 77.3306C360.807 77.312 360.819 77.2957 360.835 77.2842C361.713 76.6899 362.661 76.2072 363.658 75.8469C365.216 75.2767 367.584 74.7597 370.023 75.5358C370.046 75.5432 370.066 75.5597 370.077 75.5816C370.088 75.6034 370.091 75.6289 370.083 75.6523C370.076 75.6758 370.059 75.6953 370.037 75.7066C370.016 75.7179 369.99 75.72 369.967 75.7126C367.578 74.9524 365.252 75.4609 363.722 76.0212C362.741 76.3753 361.808 76.8499 360.944 77.4343C360.928 77.4458 360.909 77.452 360.889 77.452V77.452Z" fill="#A7ACA2"/>
<path d="M329.105 26.6567C334.088 26.6567 338.128 22.6172 338.128 17.6341C338.128 12.6511 334.088 8.61157 329.105 8.61157C324.122 8.61157 320.083 12.6511 320.083 17.6341C320.083 22.6172 324.122 26.6567 329.105 26.6567Z" fill="#FFB500"/>
<path d="M289.406 8.57775V91.4186H327.1V8.57776L289.406 8.57775Z" fill="#8E9089"/>
<path d="M347.97 51.1179H346.974V49.7262C346.974 48.8032 346.621 47.9153 345.987 47.2441C345.353 46.573 344.487 46.1695 343.566 46.116V36.6818H342.764V46.1053H339.155V51.1179H326.323V91.4186H354.794V57.942C354.794 57.0458 354.617 56.1584 354.274 55.3305C353.932 54.5026 353.429 53.7503 352.795 53.1166C352.161 52.4829 351.409 51.9803 350.581 51.6373C349.753 51.2944 348.866 51.1179 347.97 51.1179V51.1179Z" fill="#8E9089"/>
<path d="M402.914 22.2672V19.8514C402.913 18.9284 402.56 18.0405 401.927 17.3694C401.293 16.6983 400.427 16.2947 399.505 16.2413V6.80701H398.703V16.2306H395.094V22.2456H378.052V91.4185H415.746V35.8284C415.746 32.3561 414.416 29.0157 412.029 26.4936C409.643 23.9714 406.381 22.4591 402.914 22.2672Z" fill="#8E9089"/>
<path d="M389.28 32.0702H384.268V36.0802H389.28V32.0702Z" fill="white"/>
<path d="M397.5 32.0702H392.488V36.0802H397.5V32.0702Z" fill="white"/>
<path d="M405.721 32.0702H400.708V36.0802H405.721V32.0702Z" fill="white"/>
<path d="M389.28 42.2958H384.268V46.3058H389.28V42.2958Z" fill="white"/>
<path d="M397.5 42.2958H392.488V46.3058H397.5V42.2958Z" fill="white"/>
<path d="M405.721 42.2958H400.708V46.3058H405.721V42.2958Z" fill="white"/>
<path d="M389.28 52.5212H384.268V56.5313H389.28V52.5212Z" fill="white"/>
<path d="M397.5 52.5212H392.488V56.5313H397.5V52.5212Z" fill="white"/>
<path d="M405.721 52.5212H400.708V56.5313H405.721V52.5212Z" fill="white"/>
<path d="M389.28 62.7468H384.268V66.7569H389.28V62.7468Z" fill="white"/>
<path d="M397.5 62.7468H392.488V66.7569H397.5V62.7468Z" fill="white"/>
<path d="M405.721 62.7468H400.708V66.7569H405.721V62.7468Z" fill="white"/>
<path d="M389.28 72.9724H384.268V76.9824H389.28V72.9724Z" fill="white"/>
<path d="M397.5 72.9724H392.488V76.9824H397.5V72.9724Z" fill="white"/>
<path d="M405.721 72.9724H400.708V76.9824H405.721V72.9724Z" fill="white"/>
<path d="M389.28 83.198H384.268V87.208H389.28V83.198Z" fill="white"/>
<path d="M397.5 83.198H392.488V87.208H397.5V83.198Z" fill="white"/>
<path d="M405.721 83.198H400.708V87.208H405.721V83.198Z" fill="white"/>
<path d="M316.297 4H300.057V5.20301H316.297V4Z" fill="white"/>
<path d="M316.297 11.4186H300.057V12.6216H316.297V11.4186Z" fill="white"/>
<path d="M316.297 18.837H300.057V20.04H316.297V18.837Z" fill="white"/>
<path d="M316.297 26.2556H300.057V27.4586H316.297V26.2556Z" fill="white"/>
<path d="M316.297 33.6742H300.057V34.8772H316.297V33.6742Z" fill="white"/>
<path d="M316.297 41.0928H300.057V42.2958H316.297V41.0928Z" fill="white"/>
<path d="M316.297 48.5112H300.057V49.7142H316.297V48.5112Z" fill="white"/>
<path d="M316.297 55.9298H300.057V57.1328H316.297V55.9298Z" fill="white"/>
<path d="M316.297 63.3484H300.057V64.5514H316.297V63.3484Z" fill="white"/>
<path d="M316.297 70.767H300.057V71.97H316.297V70.767Z" fill="white"/>
<path d="M316.297 78.1854H300.057V79.3884H316.297V78.1854Z" fill="white"/>
<path d="M334.844 56.5314H329.831V60.5414H334.844V56.5314Z" fill="white"/>
<path d="M343.064 56.5314H338.052V60.5414H343.064V56.5314Z" fill="white"/>
<path d="M351.285 56.5314H346.272V60.5414H351.285V56.5314Z" fill="white"/>
<path d="M334.944 66.7568H329.932V70.7669H334.944V66.7568Z" fill="white"/>
<path d="M343.165 66.7568H338.152V70.7669H343.165V66.7568Z" fill="white"/>
<path d="M351.385 66.7568H346.373V70.7669H351.385V66.7568Z" fill="white"/>
<path d="M335.044 76.9824H330.032V80.9924H335.044V76.9824Z" fill="white"/>
<path d="M343.265 76.9824H338.252V80.9924H343.265V76.9824Z" fill="white"/>
<path d="M351.486 76.9824H346.473V80.9924H351.486V76.9824Z" fill="white"/>
<path d="M290.706 81.4334C291.105 78.2296 293.09 75.073 296.146 74.0304C294.941 77.328 294.941 80.9455 296.147 84.2428C296.616 85.5128 297.27 86.8764 296.829 88.1564C296.554 88.9528 295.882 89.5621 295.13 89.9431C294.379 90.3241 293.545 90.5057 292.722 90.6837L292.56 90.8177C291.252 87.8658 290.308 84.6371 290.706 81.4334Z" fill="#4A773C"/>
<path d="M296.176 74.091C294.397 76.0847 293.291 78.5884 293.016 81.2464C292.946 81.8175 292.967 82.3961 293.078 82.9607C293.203 83.5072 293.473 84.0101 293.859 84.4171C294.211 84.8039 294.616 85.1587 294.868 85.6243C294.993 85.8646 295.066 86.1286 295.082 86.3991C295.099 86.6696 295.057 86.9405 294.962 87.194C294.739 87.8318 294.301 88.3517 293.855 88.8451C293.359 89.3931 292.836 89.9543 292.625 90.6807C292.6 90.7688 292.465 90.724 292.49 90.6361C292.856 89.3723 294.083 88.6544 294.668 87.5161C294.941 86.985 295.056 86.3683 294.8 85.8076C294.576 85.3173 294.159 84.9511 293.799 84.5625C293.417 84.171 293.137 83.6918 292.983 83.1669C292.843 82.6097 292.8 82.033 292.855 81.4613C292.957 80.1723 293.261 78.9074 293.755 77.7129C294.313 76.3465 295.1 75.0854 296.082 73.9843C296.143 73.9162 296.237 74.0234 296.176 74.091H296.176Z" fill="white"/>
<path d="M293.054 80.3852C292.614 80.2785 292.227 80.0189 291.961 79.6529C291.695 79.2869 291.568 78.8382 291.602 78.3871C291.609 78.2958 291.752 78.3028 291.744 78.3942C291.712 78.8142 291.83 79.2321 292.079 79.5725C292.327 79.9128 292.689 80.1531 293.099 80.2501C293.188 80.2713 293.143 80.4063 293.054 80.3852H293.054Z" fill="white"/>
<path d="M293.655 84.2445C294.449 83.7704 295.035 83.0143 295.296 82.1272C295.322 82.0392 295.457 82.0839 295.431 82.1718C295.158 83.0945 294.546 83.88 293.718 84.3716C293.64 84.4184 293.576 84.2911 293.655 84.2445V84.2445Z" fill="white"/>
<path d="M294.445 76.4812C294.606 76.5579 294.784 76.5934 294.963 76.5843C295.142 76.5752 295.315 76.522 295.468 76.4292C295.546 76.3815 295.61 76.5089 295.532 76.5563C295.363 76.658 295.171 76.7166 294.974 76.727C294.776 76.7375 294.58 76.6995 294.4 76.6163C294.383 76.6099 294.368 76.597 294.36 76.5803C294.352 76.5636 294.35 76.5444 294.355 76.5264C294.361 76.5086 294.374 76.4938 294.391 76.4853C294.408 76.4769 294.427 76.4754 294.445 76.4812H294.445Z" fill="white"/>
<path d="M305.459 79.7528C305.411 79.784 305.363 79.8152 305.315 79.8476C304.672 80.2708 304.064 80.7455 303.497 81.2671C303.453 81.3067 303.408 81.3475 303.365 81.3884C302.013 82.6596 300.909 84.1707 300.109 85.8449C299.792 86.5114 299.525 87.2011 299.312 87.908C299.018 88.8843 298.776 89.9663 298.194 90.7649C298.134 90.8489 298.069 90.9291 297.999 91.0051H292.736C292.724 90.9991 292.712 90.9943 292.7 90.9883L292.49 90.9979C292.498 90.9607 292.508 90.9222 292.516 90.885C292.521 90.8634 292.527 90.8418 292.532 90.8202C292.535 90.8058 292.539 90.7913 292.541 90.7781C292.543 90.7733 292.544 90.7685 292.545 90.7649C292.547 90.7517 292.551 90.7397 292.553 90.7277C292.606 90.5128 292.661 90.2978 292.717 90.0828C292.717 90.0816 292.717 90.0816 292.718 90.0804C293.129 88.4384 293.734 86.8509 294.519 85.3513C294.543 85.3069 294.567 85.2612 294.594 85.2168C294.957 84.553 295.375 83.92 295.841 83.3242C296.098 82.9988 296.371 82.6865 296.659 82.3887C297.405 81.6206 298.268 80.9746 299.215 80.4745C301.103 79.4778 303.288 79.0959 305.306 79.7047C305.357 79.7203 305.408 79.7359 305.459 79.7528Z" fill="#4A773C"/>
<path d="M305.448 79.8196C302.826 80.3401 300.436 81.6733 298.616 83.6298C298.217 84.044 297.885 84.5186 297.634 85.0361C297.405 85.548 297.317 86.112 297.38 86.6692C297.428 87.1899 297.538 87.717 297.459 88.2404C297.414 88.5077 297.314 88.7626 297.164 88.9883C297.014 89.214 296.818 89.4055 296.589 89.5502C296.027 89.9256 295.364 90.0768 294.711 90.2021C293.985 90.3413 293.23 90.4744 292.624 90.9275C292.551 90.9824 292.47 90.8654 292.543 90.8106C293.596 90.0221 295.008 90.1876 296.161 89.6309C296.699 89.3712 297.161 88.9478 297.295 88.3461C297.411 87.8198 297.298 87.2762 297.245 86.7494C297.176 86.2067 297.24 85.6553 297.433 85.1433C297.658 84.6147 297.97 84.1282 298.358 83.7045C299.215 82.7367 300.22 81.9097 301.334 81.2539C302.602 80.4984 303.989 79.9653 305.437 79.6777C305.526 79.6599 305.537 79.8019 305.447 79.8196H305.448Z" fill="white"/>
<path d="M299.165 82.9653C298.878 82.6154 298.725 82.1749 298.733 81.7225C298.741 81.2701 298.91 80.8353 299.209 80.4957C299.269 80.4272 299.379 80.5184 299.318 80.587C299.039 80.9027 298.882 81.3077 298.875 81.729C298.869 82.1503 299.013 82.56 299.282 82.8843C299.34 82.9548 299.223 83.0355 299.165 82.9653V82.9653Z" fill="white"/>
<path d="M297.321 86.4084C298.241 86.5079 299.164 86.2572 299.907 85.7062C299.98 85.6516 300.061 85.7686 299.988 85.8232C299.214 86.3951 298.252 86.654 297.296 86.5484C297.204 86.5382 297.23 86.3983 297.321 86.4084V86.4084Z" fill="white"/>
<path d="M302.626 80.6855C302.709 80.8441 302.829 80.9795 302.977 81.0798C303.126 81.1801 303.296 81.2421 303.474 81.2601C303.565 81.2691 303.539 81.409 303.449 81.4001C303.252 81.3792 303.064 81.3106 302.9 81.2002C302.736 81.0897 302.602 80.9408 302.509 80.7665C302.499 80.7508 302.495 80.7319 302.498 80.7135C302.502 80.6951 302.512 80.6787 302.527 80.6675C302.542 80.6569 302.561 80.6528 302.58 80.6562C302.599 80.6595 302.615 80.6701 302.626 80.6855Z" fill="white"/>
<path d="M386.346 81.4334C386.744 78.2296 388.73 75.073 391.785 74.0304C390.58 77.328 390.58 80.9455 391.786 84.2428C392.255 85.5128 392.91 86.8764 392.468 88.1564C392.193 88.9528 391.521 89.5621 390.77 89.9431C390.018 90.3241 389.184 90.5057 388.361 90.6837L388.199 90.8177C386.891 87.8658 385.947 84.6371 386.346 81.4334Z" fill="#4A773C"/>
<path d="M391.815 74.091C390.036 76.0847 388.93 78.5884 388.655 81.2464C388.585 81.8175 388.606 82.3961 388.717 82.9607C388.843 83.5072 389.112 84.0101 389.498 84.4171C389.85 84.8039 390.255 85.1587 390.507 85.6243C390.632 85.8646 390.705 86.1286 390.722 86.3991C390.738 86.6696 390.697 86.9405 390.601 87.194C390.378 87.8318 389.94 88.3517 389.494 88.8451C388.998 89.3931 388.475 89.9543 388.264 90.6807C388.239 90.7688 388.104 90.724 388.129 90.6361C388.496 89.3723 389.722 88.6544 390.308 87.5161C390.581 86.985 390.695 86.3683 390.439 85.8076C390.215 85.3173 389.798 84.9511 389.438 84.5625C389.056 84.171 388.776 83.6918 388.622 83.1669C388.483 82.6097 388.439 82.033 388.494 81.4613C388.596 80.1723 388.9 78.9074 389.395 77.7129C389.952 76.3465 390.739 75.0854 391.721 73.9843C391.782 73.9162 391.876 74.0234 391.815 74.091V74.091Z" fill="white"/>
<path d="M388.693 80.3852C388.254 80.2785 387.866 80.0189 387.6 79.6529C387.334 79.2869 387.207 78.8382 387.241 78.3871C387.249 78.2958 387.391 78.3028 387.383 78.3942C387.351 78.8142 387.469 79.2321 387.718 79.5725C387.966 79.9128 388.328 80.1531 388.738 80.2501C388.827 80.2713 388.782 80.4063 388.693 80.3852V80.3852Z" fill="white"/>
<path d="M389.294 84.2445C390.088 83.7704 390.674 83.0143 390.935 82.1272C390.961 82.0392 391.096 82.0839 391.071 82.1718C390.797 83.0945 390.185 83.88 389.358 84.3716C389.279 84.4184 389.215 84.2911 389.294 84.2445V84.2445Z" fill="white"/>
<path d="M390.084 76.4812C390.246 76.5579 390.424 76.5934 390.602 76.5843C390.781 76.5752 390.954 76.522 391.107 76.4292C391.186 76.3815 391.249 76.5089 391.171 76.5563C391.002 76.658 390.81 76.7166 390.613 76.727C390.416 76.7375 390.219 76.6995 390.039 76.6163C390.022 76.6099 390.007 76.597 389.999 76.5803C389.991 76.5636 389.989 76.5444 389.994 76.5264C390 76.5086 390.013 76.4938 390.03 76.4853C390.047 76.4769 390.066 76.4754 390.084 76.4812H390.084Z" fill="white"/>
<path d="M401.099 79.7528C401.051 79.784 401.003 79.8152 400.954 79.8476C400.311 80.2708 399.703 80.7455 399.136 81.2671C399.092 81.3067 399.047 81.3475 399.004 81.3884C397.653 82.6596 396.549 84.1707 395.749 85.8449C395.431 86.5114 395.164 87.2011 394.951 87.908C394.657 88.8843 394.416 89.9663 393.833 90.7649C393.773 90.8489 393.708 90.9291 393.639 91.0051H388.375C388.363 90.9991 388.351 90.9943 388.339 90.9883L388.129 90.9979C388.137 90.9607 388.147 90.9222 388.155 90.885C388.16 90.8634 388.166 90.8418 388.171 90.8202C388.175 90.8058 388.178 90.7913 388.181 90.7781C388.182 90.7733 388.183 90.7685 388.184 90.7649C388.187 90.7517 388.19 90.7397 388.193 90.7277C388.245 90.5128 388.3 90.2978 388.356 90.0828C388.356 90.0816 388.356 90.0816 388.357 90.0804C388.768 88.4384 389.373 86.8509 390.158 85.3513C390.182 85.3069 390.206 85.2612 390.233 85.2168C390.597 84.553 391.014 83.92 391.481 83.3242C391.737 82.9988 392.01 82.6865 392.298 82.3887C393.045 81.6206 393.907 80.9746 394.854 80.4745C396.742 79.4778 398.927 79.0959 400.945 79.7047C400.996 79.7203 401.047 79.7359 401.099 79.7528Z" fill="#4A773C"/>
<path d="M401.087 79.8196C398.466 80.3401 396.075 81.6733 394.255 83.6298C393.856 84.044 393.524 84.5186 393.273 85.0361C393.044 85.548 392.956 86.112 393.019 86.6692C393.068 87.1899 393.177 87.717 393.098 88.2404C393.053 88.5077 392.953 88.7626 392.803 88.9883C392.653 89.214 392.457 89.4055 392.228 89.5502C391.666 89.9256 391.003 90.0768 390.35 90.2021C389.624 90.3413 388.869 90.4744 388.263 90.9275C388.19 90.9824 388.109 90.8654 388.182 90.8106C389.236 90.0221 390.647 90.1876 391.8 89.6309C392.338 89.3712 392.8 88.9478 392.934 88.3461C393.05 87.8198 392.938 87.2762 392.884 86.7494C392.815 86.2067 392.879 85.6553 393.072 85.1433C393.297 84.6147 393.609 84.1282 393.997 83.7045C394.855 82.7367 395.859 81.9097 396.973 81.2539C398.241 80.4984 399.628 79.9653 401.076 79.6777C401.165 79.6599 401.176 79.8019 401.087 79.8196H401.087Z" fill="white"/>
<path d="M394.804 82.9653C394.517 82.6154 394.364 82.1749 394.372 81.7225C394.38 81.2701 394.549 80.8353 394.848 80.4957C394.909 80.4272 395.018 80.5184 394.957 80.587C394.678 80.9027 394.521 81.3077 394.515 81.729C394.508 82.1503 394.652 82.56 394.921 82.8843C394.98 82.9548 394.862 83.0355 394.804 82.9653V82.9653Z" fill="white"/>
<path d="M392.96 86.4084C393.88 86.5079 394.803 86.2572 395.546 85.7062C395.619 85.6516 395.7 85.7686 395.627 85.8232C394.853 86.3951 393.891 86.654 392.935 86.5484C392.844 86.5382 392.869 86.3983 392.96 86.4084V86.4084Z" fill="white"/>
<path d="M398.265 80.6855C398.348 80.8441 398.469 80.9795 398.617 81.0798C398.765 81.1801 398.935 81.2421 399.113 81.2601C399.204 81.2691 399.178 81.409 399.088 81.4001C398.891 81.3792 398.703 81.3106 398.539 81.2002C398.375 81.0897 398.241 80.9408 398.148 80.7665C398.138 80.7508 398.134 80.7319 398.137 80.7135C398.141 80.6951 398.151 80.6787 398.166 80.6675C398.182 80.6569 398.201 80.6528 398.219 80.6562C398.238 80.6595 398.254 80.6701 398.265 80.6855V80.6855Z" fill="white"/>
<path d="M341.384 20.6321C340.965 20.3365 340.507 20.0282 339.994 20.0405C338.754 20.0703 338.085 21.8888 336.846 21.8249C336.056 21.7841 335.531 20.9813 334.795 20.6902C333.837 20.3112 332.618 21.0524 332.514 22.0772L332.637 21.9646C336.361 22.8724 340.225 23.051 344.016 22.4904C343.139 21.871 342.261 21.2515 341.384 20.6321Z" fill="#B8DDE1"/>
<path d="M424.592 17.2236C424.173 16.9279 423.715 16.6196 423.202 16.6319C421.962 16.6618 421.293 18.4802 420.054 18.4163C419.264 18.3755 418.739 17.5727 418.003 17.2816C417.045 16.9027 415.826 17.6438 415.722 18.6687L415.845 18.5561C419.569 19.4639 423.433 19.6424 427.224 19.0818C426.347 18.4624 425.469 17.843 424.592 17.2236Z" fill="#B8DDE1"/>
<path d="M378.878 28.8526C378.459 28.557 378.001 28.2487 377.488 28.261C376.248 28.2908 375.579 30.1093 374.34 30.0453C373.549 30.0045 373.025 29.2017 372.289 28.9106C371.331 28.5317 370.112 29.2728 370.007 30.2977L370.13 30.1851C373.854 31.0929 377.718 31.2714 381.51 30.7108C380.633 30.0914 379.755 29.472 378.878 28.8526Z" fill="#B8DDE1"/>
<path d="M353.63 7.81196C353.211 7.51631 352.752 7.208 352.24 7.22033C351 7.25016 350.331 9.06862 349.092 9.00467C348.301 8.96389 347.777 8.16109 347.041 7.87C346.083 7.49105 344.864 8.23219 344.759 9.25706L344.882 9.14446C348.606 10.0523 352.47 10.2308 356.262 9.67017C355.385 9.05077 354.507 8.43136 353.63 7.81196Z" fill="#F0F0F0"/>
<path d="M374.555 62.4554C374.566 62.4487 374.575 62.4394 374.581 62.4285C374.587 62.4176 374.591 62.4053 374.591 62.3927C374.581 62.4019 374.571 62.4116 374.56 62.4205C374.558 62.4323 374.558 62.4434 374.555 62.4554Z" fill="#171717"/>
<path d="M287 4V91.619H447V4H287ZM439.381 84H294.619V11.619H439.381V84Z" fill="#171717"/>
<path opacity="0.5" d="M324.682 83.9182L328.356 91.5372H293.897L294.569 11.5372H349.085C349.085 11.5372 335.119 41.6445 312.213 58.0535L324.682 83.9182Z" fill="#D0CDE1"/>
<path d="M314.82 55.447H292.364V59.2565H314.82V55.447Z" fill="#171717"/>
<path opacity="0.5" d="M409.248 84L405.575 91.619H440.033L439.361 11.619H384.845C384.845 11.619 398.812 41.7263 421.717 58.1353L409.248 84Z" fill="#D0CDE1"/>
<path d="M442.168 55.5288H419.712V59.3383H442.168V55.5288Z" fill="#171717"/>
</g>
<path d="M187 63L197 68.7735V57.2265L187 63ZM247 63L237 57.2265V68.7735L247 63ZM196 64L238 64V62L196 62V64Z" fill="black"/>
<path d="M49.7996 119.256C49.2343 119.256 48.7036 119.139 48.2076 118.904C47.7116 118.669 47.2823 118.341 46.9196 117.92V119H44.4636V105.24H46.9196V111.808C47.245 111.413 47.653 111.107 48.1436 110.888C48.6343 110.664 49.165 110.552 49.7356 110.552C50.525 110.552 51.229 110.744 51.8476 111.128C52.4663 111.507 52.9516 112.024 53.3036 112.68C53.6556 113.331 53.8316 114.072 53.8316 114.904C53.8316 115.752 53.6503 116.504 53.2876 117.16C52.925 117.816 52.437 118.331 51.8236 118.704C51.2156 119.072 50.541 119.256 49.7996 119.256ZM49.0636 117.168C49.4956 117.168 49.8743 117.072 50.1996 116.88C50.525 116.683 50.781 116.416 50.9676 116.08C51.1543 115.739 51.2476 115.352 51.2476 114.92C51.2476 114.483 51.1516 114.093 50.9596 113.752C50.7676 113.405 50.509 113.133 50.1836 112.936C49.8583 112.739 49.485 112.64 49.0636 112.64C48.6423 112.64 48.2636 112.739 47.9276 112.936C47.597 113.133 47.3356 113.403 47.1436 113.744C46.9516 114.085 46.8556 114.477 46.8556 114.92C46.8556 115.352 46.949 115.739 47.1356 116.08C47.3276 116.416 47.589 116.683 47.9196 116.88C48.2556 117.072 48.637 117.168 49.0636 117.168ZM60.1046 119.256C58.6113 119.256 57.534 118.96 56.8726 118.368C56.2113 117.776 55.8806 116.808 55.8806 115.464V110.808H58.3366V114.888C58.3366 115.752 58.47 116.363 58.7366 116.72C59.0086 117.077 59.4646 117.256 60.1046 117.256C60.7553 117.256 61.2113 117.077 61.4726 116.72C61.7393 116.363 61.8726 115.752 61.8726 114.888V110.808H64.3286V115.464C64.3286 116.808 63.998 117.776 63.3366 118.368C62.6806 118.96 61.6033 119.256 60.1046 119.256ZM67.0181 119V110.808H69.4741V119H67.0181ZM68.2501 109.104C67.9835 109.104 67.7381 109.04 67.5141 108.912C67.2955 108.779 67.1195 108.6 66.9861 108.376C66.8528 108.152 66.7861 107.907 66.7861 107.64C66.7861 107.373 66.8528 107.131 66.9861 106.912C67.1195 106.693 67.2955 106.52 67.5141 106.392C67.7381 106.259 67.9835 106.192 68.2501 106.192C68.5168 106.192 68.7595 106.259 68.9781 106.392C69.1968 106.52 69.3701 106.693 69.4981 106.912C69.6315 107.131 69.6981 107.373 69.6981 107.64C69.6981 107.907 69.6315 108.152 69.4981 108.376C69.3701 108.6 69.1968 108.779 68.9781 108.912C68.7595 109.04 68.5168 109.104 68.2501 109.104ZM72.3699 119V105.24H74.8259V119H72.3699ZM81.1056 119.256C80.3643 119.256 79.687 119.072 79.0736 118.704C78.4656 118.331 77.9803 117.816 77.6176 117.16C77.255 116.504 77.0736 115.752 77.0736 114.904C77.0736 114.072 77.2496 113.331 77.6016 112.68C77.9536 112.024 78.4363 111.507 79.0496 111.128C79.6683 110.744 80.375 110.552 81.1696 110.552C81.7456 110.552 82.279 110.664 82.7696 110.888C83.2603 111.107 83.6683 111.413 83.9936 111.808V105.24H86.4496V119H83.9936V117.92C83.631 118.341 83.2016 118.669 82.7056 118.904C82.2096 119.139 81.6763 119.256 81.1056 119.256ZM81.8416 117.168C82.2736 117.168 82.655 117.072 82.9856 116.88C83.3163 116.683 83.575 116.413 83.7616 116.072C83.9536 115.731 84.0496 115.344 84.0496 114.912C84.0496 114.475 83.9536 114.085 83.7616 113.744C83.575 113.403 83.3163 113.133 82.9856 112.936C82.655 112.739 82.2763 112.64 81.8496 112.64C81.4283 112.64 81.0523 112.739 80.7216 112.936C80.3963 113.133 80.1376 113.405 79.9456 113.752C79.7536 114.093 79.6576 114.483 79.6576 114.92C79.6576 115.352 79.751 115.739 79.9376 116.08C80.1243 116.416 80.383 116.683 80.7136 116.88C81.0443 117.072 81.4203 117.168 81.8416 117.168ZM89.3306 119V110.808H91.7866V119H89.3306ZM90.5626 109.104C90.296 109.104 90.0506 109.04 89.8266 108.912C89.608 108.779 89.432 108.6 89.2986 108.376C89.1653 108.152 89.0986 107.907 89.0986 107.64C89.0986 107.373 89.1653 107.131 89.2986 106.912C89.432 106.693 89.608 106.52 89.8266 106.392C90.0506 106.259 90.296 106.192 90.5626 106.192C90.8293 106.192 91.072 106.259 91.2906 106.392C91.5093 106.52 91.6826 106.693 91.8106 106.912C91.944 107.131 92.0106 107.373 92.0106 107.64C92.0106 107.907 91.944 108.152 91.8106 108.376C91.6826 108.6 91.5093 108.779 91.2906 108.912C91.072 109.04 90.8293 109.104 90.5626 109.104ZM94.6824 119V110.808H97.1384V111.72C97.453 111.368 97.845 111.085 98.3144 110.872C98.789 110.659 99.3117 110.552 99.8824 110.552C100.512 110.552 101.064 110.691 101.538 110.968C102.018 111.24 102.394 111.621 102.666 112.112C102.938 112.597 103.074 113.165 103.074 113.816V119H100.618V114.336C100.618 113.749 100.464 113.293 100.154 112.968C99.8504 112.637 99.4317 112.472 98.8984 112.472C98.5357 112.472 98.221 112.547 97.9544 112.696C97.693 112.84 97.4904 113.04 97.3464 113.296C97.2077 113.547 97.1384 113.832 97.1384 114.152V119H94.6824ZM109.751 123.4C108.647 123.4 107.719 123.197 106.967 122.792C106.215 122.392 105.669 121.8 105.327 121.016L107.327 120.04C107.551 120.419 107.882 120.72 108.319 120.944C108.757 121.168 109.231 121.28 109.743 121.28C110.207 121.28 110.615 121.187 110.967 121C111.319 120.819 111.594 120.56 111.791 120.224C111.989 119.893 112.087 119.509 112.087 119.072V117.92C111.725 118.341 111.295 118.669 110.799 118.904C110.303 119.139 109.77 119.256 109.199 119.256C108.458 119.256 107.781 119.072 107.167 118.704C106.559 118.331 106.074 117.816 105.711 117.16C105.349 116.504 105.167 115.752 105.167 114.904C105.167 114.072 105.343 113.331 105.695 112.68C106.053 112.024 106.538 111.507 107.151 111.128C107.77 110.744 108.474 110.552 109.263 110.552C109.839 110.552 110.373 110.664 110.863 110.888C111.354 111.107 111.762 111.413 112.087 111.808V110.808H114.543V119.224C114.543 120.029 114.367 120.747 114.015 121.376C113.669 122.005 113.141 122.499 112.431 122.856C111.722 123.219 110.829 123.4 109.751 123.4ZM109.935 117.168C110.367 117.168 110.749 117.072 111.079 116.88C111.415 116.683 111.677 116.416 111.863 116.08C112.05 115.739 112.143 115.352 112.143 114.92C112.143 114.477 112.047 114.085 111.855 113.744C111.669 113.403 111.41 113.133 111.079 112.936C110.749 112.739 110.373 112.64 109.951 112.64C109.53 112.64 109.154 112.739 108.823 112.936C108.493 113.133 108.231 113.405 108.039 113.752C107.847 114.093 107.751 114.483 107.751 114.92C107.751 115.352 107.845 115.739 108.031 116.08C108.218 116.416 108.477 116.683 108.807 116.88C109.138 117.072 109.514 117.168 109.935 117.168ZM40.8327 137.256C39.9314 137.256 39.118 137.072 38.3927 136.704C37.6674 136.331 37.0914 135.819 36.6647 135.168C36.238 134.512 36.0247 133.757 36.0247 132.904C36.0247 132.051 36.2354 131.299 36.6567 130.648C37.0834 129.992 37.6594 129.48 38.3847 129.112C39.1154 128.739 39.9314 128.552 40.8327 128.552C41.7394 128.552 42.5554 128.739 43.2807 129.112C44.006 129.48 44.5794 129.992 45.0007 130.648C45.4274 131.299 45.6407 132.051 45.6407 132.904C45.6407 133.757 45.4274 134.512 45.0007 135.168C44.5794 135.819 44.006 136.331 43.2807 136.704C42.5554 137.072 41.7394 137.256 40.8327 137.256ZM40.8407 135.16C41.2567 135.16 41.6354 135.064 41.9767 134.872C42.318 134.68 42.5874 134.416 42.7847 134.08C42.982 133.739 43.0807 133.347 43.0807 132.904C43.0807 132.461 42.982 132.072 42.7847 131.736C42.5874 131.395 42.318 131.128 41.9767 130.936C41.6354 130.744 41.2567 130.648 40.8407 130.648C40.4194 130.648 40.038 130.744 39.6967 130.936C39.3607 131.128 39.094 131.395 38.8967 131.736C38.6994 132.072 38.6007 132.461 38.6007 132.904C38.6007 133.347 38.6994 133.739 38.8967 134.08C39.094 134.416 39.3607 134.68 39.6967 134.872C40.038 135.064 40.4194 135.16 40.8407 135.16ZM51.6472 137.256C51.0232 137.256 50.4339 137.144 49.8792 136.92C49.3299 136.696 48.8445 136.387 48.4232 135.992C48.0019 135.592 47.6712 135.131 47.4312 134.608C47.1912 134.08 47.0712 133.515 47.0712 132.912C47.0712 132.331 47.1832 131.779 47.4072 131.256C47.6365 130.733 47.9565 130.269 48.3672 129.864C48.7832 129.459 49.2685 129.139 49.8232 128.904C50.3832 128.669 50.9885 128.552 51.6392 128.552C52.1672 128.552 52.6739 128.627 53.1592 128.776C53.6499 128.925 54.0445 129.117 54.3432 129.352L53.5032 131.008C53.1032 130.715 52.6072 130.568 52.0152 130.568C51.5085 130.568 51.0792 130.68 50.7272 130.904C50.3752 131.128 50.1059 131.419 49.9192 131.776C49.7379 132.133 49.6472 132.509 49.6472 132.904C49.6472 133.336 49.7459 133.731 49.9432 134.088C50.1405 134.44 50.4179 134.72 50.7752 134.928C51.1379 135.136 51.5565 135.24 52.0312 135.24C52.3245 135.24 52.5992 135.2 52.8552 135.12C53.1112 135.04 53.3272 134.933 53.5032 134.8L54.3432 136.456C54.0392 136.685 53.6472 136.875 53.1672 137.024C52.6872 137.179 52.1805 137.256 51.6472 137.256ZM60.1628 137.256C59.5388 137.256 58.9495 137.144 58.3948 136.92C57.8455 136.696 57.3601 136.387 56.9388 135.992C56.5175 135.592 56.1868 135.131 55.9468 134.608C55.7068 134.08 55.5868 133.515 55.5868 132.912C55.5868 132.331 55.6988 131.779 55.9228 131.256C56.1521 130.733 56.4721 130.269 56.8828 129.864C57.2988 129.459 57.7841 129.139 58.3388 128.904C58.8988 128.669 59.5041 128.552 60.1548 128.552C60.6828 128.552 61.1895 128.627 61.6748 128.776C62.1655 128.925 62.5601 129.117 62.8588 129.352L62.0188 131.008C61.6188 130.715 61.1228 130.568 60.5308 130.568C60.0241 130.568 59.5948 130.68 59.2428 130.904C58.8908 131.128 58.6215 131.419 58.4348 131.776C58.2535 132.133 58.1628 132.509 58.1628 132.904C58.1628 133.336 58.2615 133.731 58.4588 134.088C58.6561 134.44 58.9335 134.72 59.2908 134.928C59.6535 135.136 60.0721 135.24 60.5468 135.24C60.8401 135.24 61.1148 135.2 61.3708 135.12C61.6268 135.04 61.8428 134.933 62.0188 134.8L62.8588 136.456C62.5548 136.685 62.1628 136.875 61.6828 137.024C61.2028 137.179 60.6961 137.256 60.1628 137.256ZM68.8624 137.256C67.3691 137.256 66.2918 136.96 65.6304 136.368C64.9691 135.776 64.6384 134.808 64.6384 133.464V128.808H67.0944V132.888C67.0944 133.752 67.2278 134.363 67.4944 134.72C67.7664 135.077 68.2224 135.256 68.8624 135.256C69.5131 135.256 69.9691 135.077 70.2304 134.72C70.4971 134.363 70.6304 133.752 70.6304 132.888V128.808H73.0864V133.464C73.0864 134.808 72.7558 135.776 72.0944 136.368C71.4384 136.96 70.3611 137.256 68.8624 137.256ZM75.7839 141.16V128.808H78.2399V129.808C78.5706 129.408 78.9813 129.099 79.4719 128.88C79.9626 128.661 80.4906 128.552 81.0559 128.552C81.8453 128.552 82.5466 128.741 83.1599 129.12C83.7786 129.499 84.2639 130.016 84.6159 130.672C84.9733 131.328 85.1519 132.072 85.1519 132.904C85.1519 133.725 84.9759 134.467 84.6239 135.128C84.2719 135.784 83.7893 136.304 83.1759 136.688C82.5679 137.067 81.8799 137.256 81.1119 137.256C80.5519 137.256 80.0239 137.141 79.5279 136.912C79.0319 136.677 78.6026 136.347 78.2399 135.92V141.16H75.7839ZM80.3839 135.168C80.8106 135.168 81.1866 135.072 81.5119 134.88C81.8426 134.683 82.1013 134.416 82.2879 134.08C82.4746 133.739 82.5679 133.349 82.5679 132.912C82.5679 132.475 82.4719 132.085 82.2799 131.744C82.0879 131.403 81.8293 131.133 81.5039 130.936C81.1786 130.739 80.8053 130.64 80.3839 130.64C79.9626 130.64 79.5839 130.739 79.2479 130.936C78.9173 131.133 78.6559 131.403 78.4639 131.744C78.2719 132.08 78.1759 132.469 78.1759 132.912C78.1759 133.344 78.2693 133.731 78.4559 134.072C78.6479 134.413 78.9119 134.683 79.2479 134.88C79.5839 135.072 79.9626 135.168 80.3839 135.168ZM90.8249 137.256C90.0729 137.256 89.3876 137.069 88.7689 136.696C88.1556 136.317 87.6676 135.8 87.3049 135.144C86.9476 134.483 86.7689 133.731 86.7689 132.888C86.7689 132.067 86.9423 131.331 87.2889 130.68C87.6356 130.024 88.1129 129.507 88.7209 129.128C89.3343 128.744 90.0356 128.552 90.8249 128.552C91.4063 128.552 91.9476 128.664 92.4489 128.888C92.9556 129.107 93.3689 129.413 93.6889 129.808V128.808H96.1449V137H93.6889V135.92C93.3156 136.352 92.8863 136.683 92.4009 136.912C91.9156 137.141 91.3903 137.256 90.8249 137.256ZM91.5529 135.168C91.9796 135.168 92.3583 135.072 92.6889 134.88C93.0196 134.683 93.2783 134.413 93.4649 134.072C93.6516 133.731 93.7449 133.341 93.7449 132.904C93.7449 132.461 93.6489 132.072 93.4569 131.736C93.2703 131.395 93.0116 131.128 92.6809 130.936C92.3556 130.739 91.9796 130.64 91.5529 130.64C91.1316 130.64 90.7556 130.739 90.4249 130.936C90.0943 131.128 89.8329 131.395 89.6409 131.736C89.4489 132.077 89.3529 132.467 89.3529 132.904C89.3529 133.341 89.4463 133.731 89.6329 134.072C89.8249 134.413 90.0863 134.683 90.4169 134.88C90.7476 135.072 91.1263 135.168 91.5529 135.168ZM99.0339 137V128.808H101.49V129.72C101.805 129.368 102.197 129.085 102.666 128.872C103.141 128.659 103.663 128.552 104.234 128.552C104.863 128.552 105.415 128.691 105.89 128.968C106.37 129.24 106.746 129.621 107.018 130.112C107.29 130.597 107.426 131.165 107.426 131.816V137H104.97V132.336C104.97 131.749 104.815 131.293 104.506 130.968C104.202 130.637 103.783 130.472 103.25 130.472C102.887 130.472 102.573 130.547 102.306 130.696C102.045 130.84 101.842 131.04 101.698 131.296C101.559 131.547 101.49 131.832 101.49 132.152V137H99.0339ZM112.889 137.256C112.073 137.256 111.439 136.997 110.985 136.48C110.532 135.957 110.305 135.229 110.305 134.296V130.672H109.209V128.808H110.305V125.736H112.761V128.808H114.561V130.672H112.761V134.12C112.761 134.429 112.823 134.664 112.945 134.824C113.073 134.984 113.252 135.064 113.481 135.064C113.737 135.064 113.983 134.979 114.217 134.808L114.833 136.776C114.556 136.925 114.244 137.043 113.897 137.128C113.556 137.213 113.22 137.256 112.889 137.256ZM119.276 137.256C118.582 137.256 117.961 137.147 117.412 136.928C116.868 136.709 116.414 136.389 116.052 135.968L117.084 134.32C117.425 134.683 117.782 134.96 118.156 135.152C118.529 135.344 118.902 135.44 119.276 135.44C119.484 135.44 119.662 135.405 119.812 135.336C119.966 135.267 120.086 135.168 120.172 135.04C120.262 134.907 120.308 134.747 120.308 134.56C120.308 134.347 120.246 134.179 120.124 134.056C120.006 133.933 119.825 133.821 119.58 133.72C119.334 133.613 119.017 133.48 118.628 133.32C118.297 133.181 117.98 133.024 117.676 132.848C117.372 132.672 117.124 132.448 116.932 132.176C116.745 131.904 116.652 131.56 116.652 131.144C116.652 130.637 116.793 130.192 117.076 129.808C117.358 129.419 117.748 129.115 118.244 128.896C118.745 128.677 119.321 128.568 119.972 128.568C120.377 128.568 120.801 128.629 121.244 128.752C121.692 128.875 122.169 129.061 122.676 129.312L121.836 130.888C121.148 130.445 120.532 130.224 119.988 130.224C119.684 130.224 119.441 130.291 119.26 130.424C119.078 130.557 118.988 130.725 118.988 130.928C118.988 131.12 119.081 131.288 119.268 131.432C119.46 131.571 119.692 131.696 119.964 131.808C120.241 131.915 120.505 132.013 120.756 132.104C121.166 132.253 121.529 132.419 121.844 132.6C122.164 132.781 122.414 133.019 122.596 133.312C122.777 133.6 122.868 133.987 122.868 134.472C122.868 135.064 122.724 135.568 122.436 135.984C122.153 136.395 121.742 136.709 121.204 136.928C120.67 137.147 120.028 137.256 119.276 137.256Z" fill="black"/>
<g clip-path="url(#clip1_319_4245)">
<path d="M141.958 91.0668L143.235 91.0961L135.532 49.9226L134.255 50.1635L136.266 60.8444H129.786L131.797 50.1635L130.52 49.9226L122.881 91.0961L124.095 91.0668L128.11 69.742H137.942L141.958 91.0668ZM128.408 68.1602L129.488 62.4262H136.564L137.644 68.1602H128.408Z" fill="#8E9089"/>
<path d="M86.1753 42.2425V28.7211C86.1753 28.3196 86.7958 27.993 87.5586 27.993C88.3213 27.993 88.9418 28.3196 88.9418 28.7211V42.2425C88.9418 42.644 88.3213 42.9706 87.5586 42.9706C86.7958 42.9706 86.1753 42.644 86.1753 42.2425Z" fill="#F0F0F0"/>
<path d="M82.8652 42.2425V28.7211C82.8652 28.3196 83.4858 27.993 84.2485 27.993C85.0113 27.993 85.6318 28.3196 85.6318 28.7211V42.2425C85.6318 42.644 85.0113 42.9706 84.2485 42.9706C83.4858 42.9706 82.8652 42.644 82.8652 42.2425Z" fill="#F0F0F0"/>
<path d="M79.5552 42.2425V28.7211C79.5552 28.3196 80.1757 27.993 80.9384 27.993C81.7012 27.993 82.3217 28.3196 82.3217 28.7211V42.2425C82.3217 42.644 81.7012 42.9706 80.9384 42.9706C80.1757 42.9706 79.5552 42.644 79.5552 42.2425Z" fill="#F0F0F0"/>
<path d="M107.401 32.2989C107.395 32.2578 107.38 32.2185 107.358 32.1835C107.336 32.1484 107.306 32.1185 107.272 32.0956L96.8432 25.2071C97.0004 25.1415 97.1318 25.0263 97.2175 24.8791H97.2176C97.3218 24.6973 97.3498 24.4816 97.2956 24.2792C97.2414 24.0768 97.1093 23.904 96.9282 23.7987L96.0726 23.3044C95.8909 23.2001 95.6753 23.1721 95.473 23.2263C95.2707 23.2805 95.0981 23.4127 94.9929 23.5939C94.936 23.6935 94.9018 23.8044 94.8927 23.9187L87.365 18.9463C87.1122 18.3337 86.7289 17.7836 86.2419 17.3343C85.7548 16.8851 85.1758 16.5475 84.545 16.345V14.1526H81.7785V16.345C80.8606 16.6387 80.0597 17.2166 79.4914 17.9953C78.9231 18.774 78.6168 19.7132 78.6167 20.6775V21.2706H81.3832C81.3832 21.7426 81.5706 22.1952 81.9042 22.5289C82.2377 22.8627 82.69 23.0501 83.1617 23.0501C83.6334 23.0501 84.0858 22.8627 84.4193 22.5289C84.7528 22.1952 84.9402 21.7426 84.9402 21.2706H87.7068V20.6775C87.7065 20.3931 87.6797 20.1094 87.6268 19.83L106.67 32.4092L98.7597 42.0324C98.6983 42.0321 98.6372 42.0316 98.5753 42.0316C97.9442 42.0316 97.3326 42.0465 96.7499 42.0722C96.7851 41.9745 96.8004 41.8707 96.7951 41.767C96.7836 41.5577 96.6898 41.3615 96.5342 41.2213C96.3786 41.081 96.1738 41.008 95.9646 41.0183L94.9779 41.0697C94.7688 41.0813 94.5727 41.1751 94.4325 41.3308C94.2923 41.4865 94.2194 41.6914 94.2296 41.9007C94.2369 42.0244 94.2737 42.1445 94.3367 42.2511C92.592 42.4366 91.4614 42.6923 91.4614 42.8225C91.4614 43.0357 94.4973 42.8327 98.2971 42.8229C98.3146 42.8724 98.3448 42.9163 98.3848 42.9502C98.4248 42.984 98.4731 43.0067 98.5247 43.0157C98.5763 43.0248 98.6293 43.02 98.6785 43.0017C98.7276 42.9835 98.771 42.9525 98.8042 42.912L98.8774 42.823C102.666 42.8335 105.689 43.0352 105.689 42.8225C105.689 42.6218 103.001 42.1228 99.5187 42.0428L107.337 32.5315C107.364 32.4994 107.383 32.4621 107.394 32.422C107.405 32.3819 107.408 32.34 107.401 32.2989Z" fill="#CCCCCC"/>
<path d="M107.687 91.1658H83.338C82.8459 91.1652 82.3742 90.9694 82.0263 90.6212C81.6783 90.2731 81.4827 89.801 81.4821 89.3087V49.3259C81.4816 48.886 81.3067 48.4643 80.9958 48.1532C80.6849 47.8422 80.2634 47.6672 79.8238 47.6667H22.8694C22.4297 47.6672 22.0082 47.8422 21.6973 48.1532C21.3864 48.4643 21.2116 48.886 21.211 49.3259V89.3087C21.2105 89.801 21.0148 90.2731 20.6668 90.6212C20.3189 90.9694 19.8471 91.1652 19.3551 91.1658H18.522C18.0299 91.1653 17.5582 90.9694 17.2102 90.6212C16.8623 90.2731 16.6666 89.8011 16.666 89.3087V47.1724C16.6673 45.9929 17.1362 44.8621 17.9697 44.0281C18.8033 43.1941 19.9334 42.725 21.1122 42.7236H105.097C106.275 42.725 107.405 43.1941 108.239 44.0281C109.073 44.8621 109.541 45.9929 109.543 47.1724V89.3087C109.542 89.8011 109.346 90.2731 108.998 90.6213C108.651 90.9694 108.179 91.1653 107.687 91.1658V91.1658Z" fill="#8E9089"/>
<path d="M109.444 53.104H81.5811V54.2903H109.444V53.104Z" fill="white"/>
<path d="M109.444 69.1196H81.5811V70.306H109.444V69.1196Z" fill="white"/>
<path d="M58.5165 42.5283L57.7157 42.1909L57.1663 38.1742H49.8507L49.2553 42.1745L48.5388 42.533C48.5046 42.5501 48.4771 42.5783 48.4609 42.6131C48.4446 42.6478 48.4406 42.687 48.4494 42.7243C48.4582 42.7616 48.4793 42.7949 48.5094 42.8187C48.5394 42.8425 48.5766 42.8554 48.6149 42.8554H58.4505C58.4897 42.8554 58.5278 42.8418 58.5582 42.817C58.5886 42.7921 58.6095 42.7574 58.6172 42.7189C58.625 42.6804 58.6192 42.6404 58.6008 42.6056C58.5825 42.5709 58.5527 42.5436 58.5165 42.5283V42.5283Z" fill="#E6E6E6"/>
<path d="M71.5166 38.7086H35.5805C35.3919 38.7082 35.2113 38.633 35.0781 38.4994C34.9449 38.3659 34.8701 38.1849 34.8701 37.9963V32.9259H72.227V37.9963C72.227 38.1849 72.1522 38.3659 72.019 38.4994C71.8858 38.633 71.7051 38.7082 71.5166 38.7086V38.7086Z" fill="#CCCCCC"/>
<path d="M72.2646 35.3222H34.8374V13.6272C34.8377 13.3995 34.9282 13.1812 35.0891 13.0202C35.25 12.8592 35.4681 12.7687 35.6957 12.7684H71.4063C71.6339 12.7687 71.852 12.8592 72.0129 13.0202C72.1738 13.1812 72.2643 13.3995 72.2646 13.6272V35.3222Z" fill="#171717"/>
<path d="M70.0293 33.7476H37.0728C36.8974 33.7474 36.7292 33.6776 36.6051 33.5535C36.4811 33.4293 36.4113 33.2611 36.4111 33.0855V15.0051C36.4113 14.8296 36.4811 14.6613 36.6051 14.5372C36.7292 14.413 36.8974 14.3432 37.0728 14.343H70.0293C70.2047 14.3432 70.3729 14.413 70.4969 14.5372C70.621 14.6613 70.6907 14.8296 70.6909 15.0051V33.0855C70.6907 33.2611 70.621 33.4293 70.4969 33.5535C70.3729 33.6776 70.2047 33.7474 70.0293 33.7476V33.7476Z" fill="white"/>
<path d="M106.974 16.4186C107.289 16.3732 107.611 16.3975 107.916 16.4897C108.221 16.582 108.502 16.74 108.739 16.9527C108.976 17.1654 109.164 17.4275 109.289 17.7206C109.414 18.0137 109.473 18.3307 109.462 18.6492L116.688 21.4321L113.414 23.7723L107.055 20.7709C106.521 20.7175 106.026 20.4702 105.662 20.0757C105.299 19.6812 105.092 19.167 105.082 18.6305C105.072 18.0941 105.26 17.5726 105.608 17.1649C105.957 16.7573 106.443 16.4917 106.974 16.4186V16.4186Z" fill="#9E616A"/>
<path d="M134.41 15.0526L135.632 17.2764C135.337 18.6868 134.573 19.9558 133.466 20.8771C131.594 22.4564 121.809 28.3384 121.809 28.3384L109.455 22.1328L111.616 19.2593L121.315 22.5117C124.913 19.1122 129.255 16.6007 133.994 15.1774L134.41 15.0526Z" fill="#D73F09"/>
<path d="M132.137 51.8498C137.461 51.8498 141.778 50.4425 141.778 48.7064C141.778 46.9703 137.461 45.563 132.137 45.563C126.812 45.563 122.495 46.9703 122.495 48.7064C122.495 50.4425 126.812 51.8498 132.137 51.8498Z" fill="#8E9089"/>
<path d="M110.507 88.403L107.947 87.695L109.458 77.4771L113.237 78.5224L110.507 88.403Z" fill="#9E616A"/>
<path d="M110.474 91.0669L102.219 88.7835L102.248 88.6791C102.483 87.8264 103.048 87.1023 103.817 86.6661C104.586 86.2298 105.497 86.1171 106.349 86.3527L106.349 86.3527L111.391 87.7473L110.474 91.0669Z" fill="#FFB500"/>
<path d="M103.084 88.4363L100.654 87.3627L103.636 77.4741L107.222 79.0585L103.084 88.4363Z" fill="#9E616A"/>
<path d="M102.664 91.0669L94.8286 87.6052L94.8724 87.506C95.2295 86.6968 95.8933 86.0627 96.7177 85.7431C97.5422 85.4235 98.4597 85.4447 99.2685 85.802L99.2687 85.802L104.054 87.9163L102.664 91.0669Z" fill="#FFB500"/>
<path d="M139.641 41.0211C139.641 41.0211 140.928 45.0137 133.026 50.063L122.849 60.2099L112.275 85.5197L105.997 82.7035L107.228 79.4149L108.054 77.2083L108.477 76.0793L108.93 74.8691L115.651 56.9185L121.297 47.0277L121.46 41.6608L122.849 37.8777L132.924 34.3007L139.641 41.0211Z" fill="#171717"/>
<path d="M134.502 41.2188C134.502 41.2188 135.79 45.2114 127.888 50.2607L117.711 60.4076L107.136 85.7174L100.858 82.9012L102.09 79.6127L102.916 77.406L103.339 76.2771L103.792 75.0669L110.513 57.1162L112.403 53.8046C114.897 49.4357 117.927 45.3961 121.423 41.78L123.276 39.8633L123.474 36.8974L127.786 34.4984L134.502 41.2188Z" fill="#171717"/>
<path d="M128.415 21.6727L131.576 14.9501L137.094 14.197C137.094 14.197 141.402 19.6892 140.271 27.4067C139.847 30.3007 139.501 33.182 139.481 35.7111C139.475 36.384 140.064 36.6845 140.074 37.2928C140.083 37.8905 138.958 38.8639 139.283 39.2701C139.747 39.8298 140.024 40.5216 140.074 41.2473C139.682 42.1798 127.83 37.1279 122.849 37.8776L128.415 21.6727Z" fill="#D73F09"/>
<path d="M136.251 10.8126C137.66 8.44201 136.881 5.37792 134.512 3.96875C132.142 2.55958 129.08 3.33895 127.672 5.70952C126.263 8.0801 127.042 11.1442 129.411 12.5534C131.781 13.9625 134.843 13.1832 136.251 10.8126Z" fill="#9E616A"/>
<path d="M135.152 6.46812C135.142 6.59951 135.129 6.77352 135.114 6.97039C135.098 7.50933 135.25 8.03983 135.548 8.48889C135.828 8.96133 135.494 11.8148 135.494 11.8148C143.669 6.11314 137.21 0.384978 134.683 0.894173C134.736 0.169096 132.675 0.456337 132.675 0.456337C131.89 -0.767139 130.169 0.856924 130.169 0.856924L130.501 0.297974C129.165 0.638002 127.845 4.76955 127.845 4.76955C128.298 6.55196 135.205 5.74304 135.152 6.46812Z" fill="#171717"/>
<path d="M124.548 42.9557C124.604 42.6419 124.728 42.3443 124.912 42.0838C125.095 41.8233 125.334 41.6062 125.61 41.4479C125.886 41.2895 126.194 41.1937 126.511 41.1672C126.829 41.1407 127.148 41.1841 127.447 41.2945L132.361 35.3077L133.551 39.1533L128.702 44.2488C128.484 44.7388 128.093 45.1316 127.604 45.3527C127.116 45.5738 126.563 45.6078 126.051 45.4484C125.539 45.289 125.103 44.9472 124.826 44.4878C124.549 44.0284 124.45 43.4832 124.548 42.9557V42.9557Z" fill="#9E616A"/>
<path d="M130.734 42.5667L128.57 39.4389L134.715 31.2402L131.549 24.4524L131.78 16.3783L134.396 15.8948L134.429 15.9111C135.7 16.6436 136.684 17.7894 137.215 19.1582C137.867 20.7907 139.324 26.919 140.135 30.4265C140.294 31.1062 140.276 31.8154 140.084 32.4865C139.892 33.1576 139.531 33.7682 139.036 34.2602L130.734 42.5667Z" fill="#D73F09"/>
<path d="M69.7986 27.453C69.7807 27.6049 69.7747 27.758 69.7807 27.9109L58.7002 35.9768L55.6561 34.6288L53.0225 38.9596L58.1796 41.8699C58.5963 42.105 59.0779 42.1986 59.5522 42.1365C60.0265 42.0744 60.4678 41.8601 60.81 41.5257L71.9622 30.6265C72.5331 30.7717 73.1345 30.7395 73.6866 30.5342C74.2387 30.329 74.7153 29.9604 75.0529 29.4775C75.3906 28.9947 75.5733 28.4204 75.5768 27.8311C75.5803 27.2418 75.4044 26.6654 75.0725 26.1785C74.7406 25.6917 74.2684 25.3175 73.7188 25.1057C73.1692 24.894 72.5681 24.8546 71.9956 24.993C71.4231 25.1313 70.9062 25.4408 70.5138 25.8802C70.1213 26.3197 69.8719 26.8682 69.7986 27.453V27.453Z" fill="#FFB8B8"/>
<path d="M58.3418 36.2716L55.1105 41.6592C55.0185 41.8125 54.8947 41.9441 54.7473 42.0452C54.5999 42.1462 54.4325 42.2143 54.2564 42.2448C54.0804 42.2753 53.8998 42.2675 53.7271 42.2219C53.5543 42.1762 53.3934 42.0939 53.2553 41.9804L48.4172 38.0047C47.6362 37.5295 47.0754 36.7639 46.8577 35.8756C46.64 34.9874 46.7831 34.049 47.2558 33.2662C47.7284 32.4833 48.492 31.92 49.3791 31.6995C50.2662 31.4791 51.2044 31.6196 51.9882 32.0902L57.7524 34.4825C57.9174 34.551 58.0657 34.6543 58.1872 34.7854C58.3087 34.9165 58.4006 35.0722 58.4565 35.242C58.5125 35.4118 58.5312 35.5916 58.5114 35.7693C58.4916 35.947 58.4337 36.1183 58.3418 36.2716L58.3418 36.2716Z" fill="#B8DDE1"/>
<path d="M44.4967 83.0997H50.8306V72.5976H44.4967V83.0997Z" fill="#8E9089"/>
<path d="M50.5131 78.1547L49.7002 79.3534L64.9016 89.6745L65.7145 88.4757L50.5131 78.1547Z" fill="#8E9089"/>
<path d="M44.8141 78.1546L29.6128 88.4757L30.4257 89.6744L45.6271 79.3533L44.8141 78.1546Z" fill="#8E9089"/>
<path d="M65.308 91.0668C66.4074 91.0668 67.2987 90.1751 67.2987 89.075C67.2987 87.975 66.4074 87.0833 65.308 87.0833C64.2086 87.0833 63.3174 87.975 63.3174 89.075C63.3174 90.1751 64.2086 91.0668 65.308 91.0668Z" fill="#8E9089"/>
<path d="M47.5732 91.0668C48.6726 91.0668 49.5638 90.1751 49.5638 89.075C49.5638 87.975 48.6726 87.0833 47.5732 87.0833C46.4738 87.0833 45.5825 87.975 45.5825 89.075C45.5825 90.1751 46.4738 91.0668 47.5732 91.0668Z" fill="#8E9089"/>
<path d="M30.019 91.0668C31.1184 91.0668 32.0096 90.1751 32.0096 89.075C32.0096 87.975 31.1184 87.0833 30.019 87.0833C28.9196 87.0833 28.0283 87.975 28.0283 89.075C28.0283 90.1751 28.9196 91.0668 30.019 91.0668Z" fill="#8E9089"/>
<path d="M48.2969 78.754H46.8491V89.0751H48.2969V78.754Z" fill="#8E9089"/>
<path d="M46.3065 77.3054H49.021V63.3629H46.3065V77.3054Z" fill="#8E9089"/>
<path d="M39.8818 65.5358V62.2765C39.8825 61.6764 40.1211 61.1011 40.5451 60.6767C40.9692 60.2524 41.5442 60.0137 42.1439 60.0131H54.2688C54.8685 60.0137 55.4435 60.2524 55.8676 60.6767C56.2917 61.1011 56.5302 61.6764 56.5309 62.2765V65.5358C56.5302 66.1358 56.2917 66.7112 55.8676 67.1355C55.4435 67.5598 54.8685 67.7985 54.2688 67.7991H42.1439C41.5442 67.7985 40.9692 67.5598 40.5451 67.1355C40.1211 66.7112 39.8825 66.1358 39.8818 65.5358V65.5358Z" fill="#A7ACA2"/>
<path d="M61.7812 87.8146L65.1342 87.8144L66.7297 79.1124L61.7808 79.1126L61.7812 87.8146Z" fill="#FFB8B8"/>
<path d="M60.926 91.0669L71.7382 91.0665V90.9297C71.7382 90.3767 71.6294 89.8291 71.4179 89.3183C71.2064 88.8074 70.8965 88.3432 70.5057 87.9522C70.1149 87.5612 69.651 87.251 69.1404 87.0394C68.6298 86.8278 68.0826 86.7189 67.53 86.7189H67.5295L60.9258 86.7191L60.926 91.0669Z" fill="#FFB500"/>
<path d="M66.7962 82.4184L73.4812 67.419C74.0394 66.1548 74.1011 64.7266 73.6541 63.4189C73.2071 62.1113 72.2842 61.02 71.0692 60.3626L56.5692 52.5827L49.9525 52.0196L43.849 51.4645L43.805 51.539C43.7487 51.6342 42.4365 53.9021 43.3235 56.389C43.9964 58.2753 45.7466 59.7487 48.5255 60.7683C55.0117 63.148 62.5047 65.1818 65.4251 65.9457C65.5541 65.9787 65.6747 66.0387 65.779 66.1217C65.8832 66.2047 65.9687 66.3088 66.0298 66.4273C66.0911 66.5443 66.1276 66.6728 66.1368 66.8046C66.146 66.9364 66.1279 67.0688 66.0835 67.1932L59.8729 81.1546C59.8081 81.3316 59.7847 81.5212 59.8047 81.7088C59.8246 81.8963 59.8873 82.0767 59.988 82.2362C60.0887 82.3956 60.2246 82.5298 60.3853 82.6283C60.546 82.7269 60.7272 82.7872 60.9148 82.8046L65.5555 83.1427C65.5949 83.1464 65.6341 83.1483 65.6731 83.1483C65.9108 83.1482 66.1434 83.0792 66.3427 82.9497C66.542 82.8202 66.6995 82.6356 66.7962 82.4184V82.4184Z" fill="#171717"/>
<path d="M59.5927 87.8146L62.9457 87.8144L64.5412 79.1124L59.5923 79.1126L59.5927 87.8146Z" fill="#FFB8B8"/>
<path d="M58.7375 91.0669L69.5498 91.0665V90.9297C69.5498 90.3767 69.4409 89.8291 69.2294 89.3183C69.018 88.8074 68.708 88.3432 68.3172 87.9522C67.9264 87.5612 67.4625 87.251 66.9519 87.0394C66.4413 86.8278 65.8941 86.7189 65.3415 86.7189H65.341L58.7373 86.7191L58.7375 91.0669Z" fill="#FFB500"/>
<path d="M64.3349 83.2393L71.0199 68.24C71.578 66.9758 71.6397 65.5476 71.1927 64.2399C70.7457 62.9322 69.8229 61.841 68.6079 61.1835L54.1078 53.4036L47.4912 52.8405L42.7106 52.4256L42.7113 52.36C42.655 52.4551 41.3427 54.7231 42.2298 57.2099C42.9026 59.0962 43.2852 60.5696 46.0641 61.5892C52.5504 63.9689 60.0433 66.0028 62.9637 66.7666C63.0928 66.7996 63.2134 66.8596 63.3176 66.9426C63.4219 67.0256 63.5074 67.1298 63.5685 67.2482C63.6298 67.3653 63.6662 67.4937 63.6755 67.6256C63.6847 67.7574 63.6666 67.8897 63.6222 68.0142L57.4116 81.9755C57.3467 82.1526 57.3234 82.3422 57.3433 82.5297C57.3633 82.7172 57.426 82.8977 57.5267 83.0571C57.6274 83.2165 57.7633 83.3507 57.924 83.4492C58.0847 83.5478 58.2658 83.6081 58.4535 83.6255L63.0941 83.9636C63.1335 83.9674 63.1728 83.9692 63.2118 83.9692C63.4495 83.9692 63.682 83.9002 63.8813 83.7706C64.0807 83.6411 64.2382 83.4566 64.3349 83.2393V83.2393Z" fill="#171717"/>
<path d="M60.1415 18.6332C60.9999 15.0217 58.7697 11.3977 55.1602 10.5388C51.5507 9.67989 47.9288 11.9114 47.0704 15.5229C46.212 19.1345 48.4422 22.7585 52.0517 23.6174C55.6612 24.4763 59.2831 22.2448 60.1415 18.6332Z" fill="#FFB8B8"/>
<path d="M76.7624 42.9032C79.5715 39.1645 81.7922 35.0176 83.3474 30.6066C83.4375 30.3427 83.431 30.0554 83.3293 29.7959C83.2275 29.5363 83.037 29.3213 82.7916 29.1891L73.1788 24.0354C73.0233 23.9514 72.8507 23.904 72.6741 23.8968C72.4975 23.8897 72.3216 23.9229 72.1598 23.994C71.995 24.0657 71.8487 24.174 71.732 24.3108C71.6154 24.4476 71.5314 24.6092 71.4866 24.7833C70.3678 29.0339 68.2646 32.9612 65.3474 36.2477C65.2273 36.3814 65.1393 36.5408 65.0901 36.7138C65.0408 36.8867 65.0317 37.0686 65.0634 37.2456C65.0938 37.4198 65.1636 37.5847 65.2674 37.7279C65.3711 37.871 65.5062 37.9886 65.6622 38.0716L75.2751 43.2253C75.5209 43.3565 75.8054 43.3961 76.0777 43.3371C76.3501 43.2782 76.5927 43.1244 76.7624 42.9032Z" fill="#CCCCCC"/>
<path d="M76.1061 42.41C76.0544 42.4746 75.9818 42.5191 75.9008 42.5358C75.8198 42.5526 75.7355 42.5405 75.6625 42.5017L66.0496 37.3479C66.0029 37.3236 65.9625 37.2887 65.9316 37.2461C65.9006 37.2035 65.8799 37.1544 65.8711 37.1024C65.8611 37.0476 65.8639 36.9912 65.8793 36.9376C65.8948 36.8841 65.9224 36.8348 65.96 36.7937C68.9633 33.4105 71.1283 29.3674 72.2801 24.9916C72.2935 24.9375 72.3191 24.8873 72.3551 24.8448C72.3911 24.8023 72.4364 24.7687 72.4875 24.7467C72.5356 24.7251 72.5881 24.715 72.6408 24.7172C72.6935 24.7194 72.745 24.7338 72.7912 24.7592L82.4038 29.9129C82.4766 29.9522 82.5334 30.0158 82.5644 30.0926C82.5953 30.1695 82.5985 30.2547 82.5733 30.3336C81.046 34.6656 78.865 38.7382 76.1061 42.41Z" fill="white"/>
<path d="M72.743 29.6557L79.3733 33.5441C80.033 33.931 80.6304 32.906 79.9717 32.5198L73.3415 28.6313C72.6818 28.2444 72.0844 29.2694 72.743 29.6557V29.6557Z" fill="#CCCCCC"/>
<path d="M71.5575 31.8306L78.1877 35.7191C78.8474 36.106 79.4448 35.081 78.7862 34.6947L72.1559 30.8062C71.4962 30.4194 70.8989 31.4443 71.5575 31.8306V31.8306Z" fill="#CCCCCC"/>
<path d="M70.6258 33.9971L76.6556 37.5788C77.2556 37.9352 77.8972 37.1984 77.2982 36.8426L71.2683 33.2609C70.6684 32.9045 70.0268 33.6413 70.6258 33.9971Z" fill="#CCCCCC"/>
<path d="M68.7909 36.1805L75.4211 40.0689C76.0808 40.4558 76.6782 39.4308 76.0196 39.0446L69.3893 35.1561C68.7296 34.7692 68.1323 35.7942 68.7909 36.1805V36.1805Z" fill="#CCCCCC"/>
<path d="M57.4794 53.1272L44.1854 53.0476L44.1817 52.953C43.9283 46.2791 44.7434 40.2334 46.6739 34.4709C46.7012 34.2552 46.7307 34.0247 46.7596 33.7984C47.0894 31.2202 47.3512 29.1733 49.8014 28.411C49.5973 28.1394 49.4769 27.814 49.4552 27.4749C49.4398 27.2495 49.4693 27.0233 49.5421 26.8094C49.6148 26.5956 49.7294 26.3984 49.8791 26.2293C50.0223 26.0659 50.1966 25.9327 50.3917 25.8375C50.5869 25.7422 50.7991 25.6867 51.0159 25.6743L55.7477 25.5131C55.9964 25.5114 56.2383 25.5935 56.4347 25.7461C56.795 26.0139 57.0482 26.4013 57.1489 26.8388C57.2497 27.2764 57.1916 27.7355 56.9848 28.1341C56.9291 28.2451 56.9077 28.2957 56.8996 28.3177C57.0678 29.1996 57.567 30.2471 58.0951 31.3556C58.8514 32.9428 59.7085 34.7416 59.9289 36.6661C60.048 37.7052 59.9985 38.7567 59.7824 39.7801C59.6838 40.3315 59.6611 40.8938 59.7149 41.4514C59.7582 42.2782 59.7989 43.0589 59.3319 43.8139C59.2128 44.0186 59.0766 44.2367 58.9167 44.4785L58.2597 46.0501L57.4794 53.1272Z" fill="#D73F09"/>
<path d="M37.5293 62.4668V35.2875C37.5303 34.4018 37.8824 33.5527 38.5083 32.9264C39.1342 32.3002 39.9828 31.9479 40.8679 31.9469H41.7913C42.6765 31.9479 43.5251 32.3002 44.151 32.9264C44.7769 33.5527 45.129 34.4018 45.13 35.2875V62.4668C45.129 63.3525 44.7769 64.2016 44.151 64.8278C43.5251 65.4541 42.6765 65.8063 41.7913 65.8073H40.8679C39.9828 65.8063 39.1342 65.4541 38.5083 64.8278C37.8824 64.2016 37.5303 63.3525 37.5293 62.4668V62.4668Z" fill="#A7ACA2"/>
<path d="M73.1788 38.0001C73.0834 38.1197 72.9975 38.2465 72.922 38.3796L59.2557 39.378L57.3814 36.6254L52.8599 38.9127L55.7047 44.1084C55.9345 44.5281 56.2943 44.8619 56.7298 45.0597C57.1654 45.2575 57.6533 45.3086 58.1204 45.2052L73.3422 41.8383C73.7505 42.263 74.2783 42.5533 74.8555 42.6706C75.4327 42.7879 76.0319 42.7265 76.5734 42.4947C77.1149 42.263 77.5731 41.8717 77.8869 41.373C78.2008 40.8743 78.3555 40.2919 78.3304 39.7031C78.3053 39.1143 78.1017 38.5471 77.7466 38.077C77.3915 37.6068 76.9018 37.256 76.3425 37.0711C75.7833 36.8862 75.181 36.8761 74.6159 37.042C74.0508 37.208 73.5495 37.5422 73.1788 38.0001V38.0001Z" fill="#FFB8B8"/>
<path d="M58.796 39.4392L53.2094 42.3084C53.0504 42.3901 52.8757 42.4365 52.6972 42.4445C52.5188 42.4525 52.3406 42.4219 52.175 42.3548C52.0094 42.2877 51.8602 42.1857 51.7375 42.0557C51.6149 41.9257 51.5216 41.7708 51.4642 41.6015L49.4524 35.6695C49.0399 34.8552 48.9665 33.9105 49.2482 33.0422C49.53 32.1738 50.1439 31.4524 50.9558 31.0358C48.4793 32.3076 53.6371 28.6948 55.6056 32.5321L59.2393 37.6083C59.3433 37.7537 59.4148 37.9198 59.4488 38.0953C59.4829 38.2708 59.4787 38.4516 59.4367 38.6253C59.3946 38.7991 59.3156 38.9617 59.2051 39.1022C59.0945 39.2426 58.955 39.3576 58.7961 39.4392H58.796Z" fill="#D73F09"/>
<path d="M50.571 23.6157C50.1666 23.6157 49.7205 23.4207 49.2175 23.0256C47.7373 21.8627 46.6794 20.2461 46.2058 18.4236C45.7323 16.6012 45.8694 14.6737 46.5961 12.9367C46.9619 12.0626 47.6459 10.8745 48.8276 10.1783C49.6771 9.67796 50.675 9.49723 51.5437 9.36709C52.2957 9.25432 53.0572 9.16454 53.807 9.10062C54.7028 9.02397 55.7376 8.97222 56.6814 9.33097C57.3729 9.59396 57.9615 10.0583 58.5307 10.5075C58.7291 10.6639 58.9342 10.8259 59.1397 10.9757C59.6376 11.3643 60.2118 11.6434 60.8248 11.7946C60.9542 11.8214 61.0763 11.8757 61.1829 11.9539C61.2895 12.032 61.3781 12.1321 61.4427 12.2474C61.5086 12.3646 61.5486 12.4946 61.5599 12.6286C61.5713 12.7626 61.5538 12.8975 61.5086 13.0242C61.4199 13.2733 61.3397 13.4978 61.5018 13.7411C61.5619 13.8268 61.6421 13.8965 61.7353 13.944C61.8285 13.9916 61.9319 14.0155 62.0366 14.0138C62.0918 14.0129 62.1463 14.0258 62.1953 14.0513C62.2442 14.0769 62.286 14.1143 62.3169 14.1601C62.3482 14.2056 62.3679 14.258 62.3742 14.3127C62.3806 14.3675 62.3735 14.4231 62.3535 14.4745L62.3275 14.5415C62.3971 14.548 62.464 14.5713 62.5225 14.6094C62.5811 14.6475 62.6295 14.6993 62.6636 14.7602C62.7143 14.8471 62.7339 14.9486 62.7192 15.0481C62.7044 15.1476 62.6562 15.2391 62.5824 15.3075C61.9829 15.8784 61.2355 16.2698 60.4249 16.4372C59.8703 16.5461 59.2996 16.5448 58.7455 16.4334L58.6563 16.416L58.6673 16.3171C56.4256 15.5172 54.402 16.8748 53.2485 18.4268L53.0818 18.3216C53.1105 18.2637 53.1271 18.2007 53.1307 18.1363C53.1344 18.0718 53.1249 18.0073 53.103 17.9466C53.0798 17.8738 53.0424 17.8062 52.9931 17.7478C52.9437 17.6895 52.8834 17.6414 52.8154 17.6064C52.678 17.5497 52.5269 17.5349 52.3812 17.5641C52.2354 17.5932 52.1016 17.6648 51.9965 17.7699C51.8894 17.8822 51.8069 18.0155 51.7542 18.1614C51.7015 18.3073 51.6797 18.4626 51.6903 18.6174C51.7206 18.9455 51.8041 19.2664 51.9376 19.5676C51.9918 19.7116 52.0479 19.8607 52.0935 20.0109C52.3488 20.8643 52.2807 21.7819 51.9023 22.5883C51.7277 22.9561 51.4119 23.4251 50.8993 23.5705C50.7925 23.6007 50.682 23.6159 50.571 23.6157V23.6157Z" fill="#171717"/>
<path d="M159.765 91.4623H0.235099C0.172814 91.4621 0.113143 91.4372 0.0691645 91.3931C0.0251861 91.349 0.000488281 91.2892 0.000488281 91.2269C0.000488281 91.1646 0.0251861 91.1048 0.0691645 91.0607C0.113143 91.0165 0.172814 90.9916 0.235099 90.9915H159.765C159.827 90.9915 159.887 91.0163 159.931 91.0604C159.975 91.1046 160 91.1645 160 91.2269C160 91.2893 159.975 91.3492 159.931 91.3934C159.887 91.4375 159.827 91.4623 159.765 91.4623V91.4623Z" fill="#8E9089"/>
</g>
<defs>
<clipPath id="clip0_319_4245">
<rect width="160" height="87.619" fill="white" transform="translate(287 4)"/>
</clipPath>
<clipPath id="clip1_319_4245">
<rect width="160" height="91.4623" fill="white"/>
</clipPath>
</defs>
</svg>
