<svg width="447" height="157" viewBox="0 0 447 157" fill="none" xmlns="http://www.w3.org/2000/svg">
<path d="M27.9324 135V126.808H30.3884V127.72C30.703 127.368 31.095 127.085 31.5644 126.872C32.039 126.659 32.5617 126.552 33.1324 126.552C33.7617 126.552 34.3137 126.691 34.7884 126.968C35.2684 127.24 35.6444 127.621 35.9164 128.112C36.1884 128.597 36.3244 129.165 36.3244 129.816V135H33.8684V130.336C33.8684 129.749 33.7137 129.293 33.4044 128.968C33.1004 128.637 32.6817 128.472 32.1484 128.472C31.7857 128.472 31.471 128.547 31.2044 128.696C30.943 128.84 30.7404 129.04 30.5964 129.296C30.4577 129.547 30.3884 129.832 30.3884 130.152V135H27.9324ZM42.4734 135.256C41.7214 135.256 41.036 135.069 40.4174 134.696C39.804 134.317 39.316 133.8 38.9534 133.144C38.596 132.483 38.4174 131.731 38.4174 130.888C38.4174 130.067 38.5907 129.331 38.9374 128.68C39.284 128.024 39.7614 127.507 40.3694 127.128C40.9827 126.744 41.684 126.552 42.4734 126.552C43.0547 126.552 43.596 126.664 44.0974 126.888C44.604 127.107 45.0174 127.413 45.3374 127.808V126.808H47.7934V135H45.3374V133.92C44.964 134.352 44.5347 134.683 44.0494 134.912C43.564 135.141 43.0387 135.256 42.4734 135.256ZM43.2014 133.168C43.628 133.168 44.0067 133.072 44.3374 132.88C44.668 132.683 44.9267 132.413 45.1134 132.072C45.3 131.731 45.3934 131.341 45.3934 130.904C45.3934 130.461 45.2974 130.072 45.1054 129.736C44.9187 129.395 44.66 129.128 44.3294 128.936C44.004 128.739 43.628 128.64 43.2014 128.64C42.78 128.64 42.404 128.739 42.0734 128.936C41.7427 129.128 41.4814 129.395 41.2894 129.736C41.0974 130.077 41.0014 130.467 41.0014 130.904C41.0014 131.341 41.0947 131.731 41.2814 132.072C41.4734 132.413 41.7347 132.683 42.0654 132.88C42.396 133.072 42.7747 133.168 43.2014 133.168ZM53.397 135.256C52.581 135.256 51.9463 134.997 51.493 134.48C51.0397 133.957 50.813 133.229 50.813 132.296V128.672H49.717V126.808H50.813V123.736H53.269V126.808H55.069V128.672H53.269V132.12C53.269 132.429 53.3303 132.664 53.453 132.824C53.581 132.984 53.7597 133.064 53.989 133.064C54.245 133.064 54.4903 132.979 54.725 132.808L55.341 134.776C55.0637 134.925 54.7517 135.043 54.405 135.128C54.0637 135.213 53.7277 135.256 53.397 135.256ZM61.4796 135.256C59.9863 135.256 58.909 134.96 58.2476 134.368C57.5863 133.776 57.2556 132.808 57.2556 131.464V126.808H59.7116V130.888C59.7116 131.752 59.845 132.363 60.1116 132.72C60.3836 133.077 60.8396 133.256 61.4796 133.256C62.1303 133.256 62.5863 133.077 62.8476 132.72C63.1143 132.363 63.2476 131.752 63.2476 130.888V126.808H65.7036V131.464C65.7036 132.808 65.373 133.776 64.7116 134.368C64.0556 134.96 62.9783 135.256 61.4796 135.256ZM68.4011 135V126.808H70.8571V127.984C71.1611 127.525 71.5318 127.173 71.9691 126.928C72.4118 126.677 72.8865 126.552 73.3931 126.552C73.6811 126.552 73.9798 126.595 74.2891 126.68C74.5985 126.765 74.8571 126.875 75.0651 127.008L74.0411 129.08C73.8598 128.957 73.6465 128.861 73.4011 128.792C73.1611 128.717 72.9371 128.68 72.7291 128.68C72.4091 128.68 72.1051 128.763 71.8171 128.928C71.5291 129.093 71.2971 129.309 71.1211 129.576C70.9451 129.837 70.8571 130.12 70.8571 130.424V135H68.4011ZM79.7234 135.256C78.9714 135.256 78.286 135.069 77.6674 134.696C77.054 134.317 76.566 133.8 76.2034 133.144C75.846 132.483 75.6674 131.731 75.6674 130.888C75.6674 130.067 75.8407 129.331 76.1874 128.68C76.534 128.024 77.0114 127.507 77.6194 127.128C78.2327 126.744 78.934 126.552 79.7234 126.552C80.3047 126.552 80.846 126.664 81.3474 126.888C81.854 127.107 82.2674 127.413 82.5874 127.808V126.808H85.0434V135H82.5874V133.92C82.214 134.352 81.7847 134.683 81.2994 134.912C80.814 135.141 80.2887 135.256 79.7234 135.256ZM80.4514 133.168C80.878 133.168 81.2567 133.072 81.5874 132.88C81.918 132.683 82.1767 132.413 82.3634 132.072C82.55 131.731 82.6434 131.341 82.6434 130.904C82.6434 130.461 82.5474 130.072 82.3554 129.736C82.1687 129.395 81.91 129.128 81.5794 128.936C81.254 128.739 80.878 128.64 80.4514 128.64C80.03 128.64 79.654 128.739 79.3234 128.936C78.9927 129.128 78.7314 129.395 78.5394 129.736C78.3474 130.077 78.2514 130.467 78.2514 130.904C78.2514 131.341 78.3447 131.731 78.5314 132.072C78.7234 132.413 78.9847 132.683 79.3154 132.88C79.646 133.072 80.0247 133.168 80.4514 133.168ZM87.9324 135V121.24H90.3884V135H87.9324ZM101.005 135.256C100.253 135.256 99.5673 135.069 98.9486 134.696C98.3353 134.317 97.8473 133.8 97.4846 133.144C97.1273 132.483 96.9486 131.731 96.9486 130.888C96.9486 130.067 97.122 129.331 97.4686 128.68C97.8153 128.024 98.2926 127.507 98.9006 127.128C99.514 126.744 100.215 126.552 101.005 126.552C101.586 126.552 102.127 126.664 102.629 126.888C103.135 127.107 103.549 127.413 103.869 127.808V126.808H106.325V135H103.869V133.92C103.495 134.352 103.066 134.683 102.581 134.912C102.095 135.141 101.57 135.256 101.005 135.256ZM101.733 133.168C102.159 133.168 102.538 133.072 102.869 132.88C103.199 132.683 103.458 132.413 103.645 132.072C103.831 131.731 103.925 131.341 103.925 130.904C103.925 130.461 103.829 130.072 103.637 129.736C103.45 129.395 103.191 129.128 102.861 128.936C102.535 128.739 102.159 128.64 101.733 128.64C101.311 128.64 100.935 128.739 100.605 128.936C100.274 129.128 100.013 129.395 99.8206 129.736C99.6286 130.077 99.5326 130.467 99.5326 130.904C99.5326 131.341 99.626 131.731 99.8126 132.072C100.005 132.413 100.266 132.683 100.597 132.88C100.927 133.072 101.306 133.168 101.733 133.168ZM109.214 135V126.808H111.67V127.72C111.984 127.368 112.376 127.085 112.846 126.872C113.32 126.659 113.843 126.552 114.414 126.552C115.043 126.552 115.595 126.691 116.07 126.968C116.55 127.24 116.926 127.621 117.198 128.112C117.47 128.597 117.606 129.165 117.606 129.816V135H115.15V130.336C115.15 129.749 114.995 129.293 114.686 128.968C114.382 128.637 113.963 128.472 113.43 128.472C113.067 128.472 112.752 128.547 112.486 128.696C112.224 128.84 112.022 129.04 111.878 129.296C111.739 129.547 111.67 129.832 111.67 130.152V135H109.214ZM123.731 135.256C122.989 135.256 122.312 135.072 121.699 134.704C121.091 134.331 120.605 133.816 120.243 133.16C119.88 132.504 119.699 131.752 119.699 130.904C119.699 130.072 119.875 129.331 120.227 128.68C120.579 128.024 121.061 127.507 121.675 127.128C122.293 126.744 123 126.552 123.795 126.552C124.371 126.552 124.904 126.664 125.395 126.888C125.885 127.107 126.293 127.413 126.619 127.808V121.24H129.075V135H126.619V133.92C126.256 134.341 125.827 134.669 125.331 134.904C124.835 135.139 124.301 135.256 123.731 135.256ZM124.467 133.168C124.899 133.168 125.28 133.072 125.611 132.88C125.941 132.683 126.2 132.413 126.387 132.072C126.579 131.731 126.675 131.344 126.675 130.912C126.675 130.475 126.579 130.085 126.387 129.744C126.2 129.403 125.941 129.133 125.611 128.936C125.28 128.739 124.901 128.64 124.475 128.64C124.053 128.64 123.677 128.739 123.347 128.936C123.021 129.133 122.763 129.405 122.571 129.752C122.379 130.093 122.283 130.483 122.283 130.92C122.283 131.352 122.376 131.739 122.563 132.08C122.749 132.416 123.008 132.683 123.339 132.88C123.669 133.072 124.045 133.168 124.467 133.168ZM7.27619 153.256C6.71085 153.256 6.18019 153.139 5.68419 152.904C5.18819 152.669 4.75885 152.341 4.39619 151.92V153H1.94019V139.24H4.39619V145.808C4.72152 145.413 5.12952 145.107 5.62019 144.888C6.11085 144.664 6.64152 144.552 7.21219 144.552C8.00152 144.552 8.70552 144.744 9.32419 145.128C9.94285 145.507 10.4282 146.024 10.7802 146.68C11.1322 147.331 11.3082 148.072 11.3082 148.904C11.3082 149.752 11.1269 150.504 10.7642 151.16C10.4015 151.816 9.91352 152.331 9.30019 152.704C8.69219 153.072 8.01752 153.256 7.27619 153.256ZM6.54019 151.168C6.97219 151.168 7.35085 151.072 7.67619 150.88C8.00152 150.683 8.25752 150.416 8.44419 150.08C8.63085 149.739 8.72419 149.352 8.72419 148.92C8.72419 148.483 8.62819 148.093 8.43619 147.752C8.24419 147.405 7.98552 147.133 7.66019 146.936C7.33485 146.739 6.96152 146.64 6.54019 146.64C6.11885 146.64 5.74019 146.739 5.40419 146.936C5.07352 147.133 4.81219 147.403 4.62019 147.744C4.42819 148.085 4.33219 148.477 4.33219 148.92C4.33219 149.352 4.42552 149.739 4.61219 150.08C4.80419 150.416 5.06552 150.683 5.39619 150.88C5.73219 151.072 6.11352 151.168 6.54019 151.168ZM17.5812 153.256C16.0879 153.256 15.0105 152.96 14.3492 152.368C13.6879 151.776 13.3572 150.808 13.3572 149.464V144.808H15.8132V148.888C15.8132 149.752 15.9465 150.363 16.2132 150.72C16.4852 151.077 16.9412 151.256 17.5812 151.256C18.2319 151.256 18.6879 151.077 18.9492 150.72C19.2159 150.363 19.3492 149.752 19.3492 148.888V144.808H21.8052V149.464C21.8052 150.808 21.4745 151.776 20.8132 152.368C20.1572 152.96 19.0799 153.256 17.5812 153.256ZM24.4947 153V144.808H26.9507V153H24.4947ZM25.7267 143.104C25.46 143.104 25.2147 143.04 24.9907 142.912C24.772 142.779 24.596 142.6 24.4627 142.376C24.3294 142.152 24.2627 141.907 24.2627 141.64C24.2627 141.373 24.3294 141.131 24.4627 140.912C24.596 140.693 24.772 140.52 24.9907 140.392C25.2147 140.259 25.46 140.192 25.7267 140.192C25.9934 140.192 26.236 140.259 26.4547 140.392C26.6734 140.52 26.8467 140.693 26.9747 140.912C27.108 141.131 27.1747 141.373 27.1747 141.64C27.1747 141.907 27.108 142.152 26.9747 142.376C26.8467 142.6 26.6734 142.779 26.4547 142.912C26.236 143.04 25.9934 143.104 25.7267 143.104ZM29.8464 153V139.24H32.3024V153H29.8464ZM38.0142 153.256C37.1982 153.256 36.5635 152.997 36.1102 152.48C35.6569 151.957 35.4302 151.229 35.4302 150.296V146.672H34.3342V144.808H35.4302V141.736H37.8862V144.808H39.6862V146.672H37.8862V150.12C37.8862 150.429 37.9475 150.664 38.0702 150.824C38.1982 150.984 38.3769 151.064 38.6062 151.064C38.8622 151.064 39.1075 150.979 39.3422 150.808L39.9582 152.776C39.6809 152.925 39.3689 153.043 39.0222 153.128C38.6809 153.213 38.3449 153.256 38.0142 153.256ZM50.3293 153.256C49.444 153.256 48.6493 153.067 47.9453 152.688C47.2466 152.304 46.692 151.784 46.2813 151.128C45.8706 150.472 45.6653 149.731 45.6653 148.904C45.6653 148.296 45.78 147.728 46.0093 147.2C46.244 146.672 46.5693 146.211 46.9853 145.816C47.4013 145.416 47.884 145.107 48.4333 144.888C48.9826 144.664 49.5773 144.552 50.2173 144.552C51.0706 144.552 51.8173 144.731 52.4573 145.088C53.1026 145.44 53.604 145.931 53.9613 146.56C54.324 147.189 54.5053 147.923 54.5053 148.76C54.5053 148.829 54.5026 148.891 54.4973 148.944C54.4973 148.992 54.4893 149.085 54.4733 149.224H48.1933C48.1933 149.64 48.2866 150.003 48.4733 150.312C48.6653 150.621 48.932 150.864 49.2733 151.04C49.6146 151.211 50.012 151.296 50.4653 151.296C50.892 151.296 51.268 151.213 51.5933 151.048C51.924 150.883 52.2413 150.619 52.5453 150.256L54.3133 151.144C53.9293 151.805 53.3853 152.323 52.6813 152.696C51.9773 153.069 51.1933 153.256 50.3293 153.256ZM48.2813 147.864H52.0893C52.036 147.549 51.9213 147.277 51.7453 147.048C51.5746 146.819 51.356 146.643 51.0893 146.52C50.8226 146.397 50.5213 146.336 50.1853 146.336C49.828 146.336 49.5133 146.397 49.2413 146.52C48.9693 146.643 48.7506 146.819 48.5853 147.048C48.42 147.277 48.3186 147.549 48.2813 147.864ZM56.6902 153V144.808H59.1462V145.72C59.4609 145.368 59.8529 145.085 60.3222 144.872C60.7969 144.659 61.3195 144.552 61.8902 144.552C62.5195 144.552 63.0715 144.691 63.5462 144.968C64.0262 145.24 64.4022 145.621 64.6742 146.112C64.9462 146.597 65.0822 147.165 65.0822 147.816V153H62.6262V148.336C62.6262 147.749 62.4715 147.293 62.1622 146.968C61.8582 146.637 61.4395 146.472 60.9062 146.472C60.5435 146.472 60.2289 146.547 59.9622 146.696C59.7009 146.84 59.4982 147.04 59.3542 147.296C59.2155 147.547 59.1462 147.832 59.1462 148.152V153H56.6902ZM70.5672 153L66.2632 144.808H69.1592L71.3912 149.752L73.6232 144.808H76.5192L72.2072 153H70.5672ZM77.8541 153V144.808H80.3101V153H77.8541ZM79.0861 143.104C78.8194 143.104 78.5741 143.04 78.3501 142.912C78.1314 142.779 77.9554 142.6 77.8221 142.376C77.6887 142.152 77.6221 141.907 77.6221 141.64C77.6221 141.373 77.6887 141.131 77.8221 140.912C77.9554 140.693 78.1314 140.52 78.3501 140.392C78.5741 140.259 78.8194 140.192 79.0861 140.192C79.3527 140.192 79.5954 140.259 79.8141 140.392C80.0327 140.52 80.2061 140.693 80.3341 140.912C80.4674 141.131 80.5341 141.373 80.5341 141.64C80.5341 141.907 80.4674 142.152 80.3341 142.376C80.2061 142.6 80.0327 142.779 79.8141 142.912C79.5954 143.04 79.3527 143.104 79.0861 143.104ZM83.2058 153V144.808H85.6618V145.984C85.9658 145.525 86.3365 145.173 86.7738 144.928C87.2165 144.677 87.6911 144.552 88.1978 144.552C88.4858 144.552 88.7845 144.595 89.0938 144.68C89.4031 144.765 89.6618 144.875 89.8698 145.008L88.8458 147.08C88.6645 146.957 88.4511 146.861 88.2058 146.792C87.9658 146.717 87.7418 146.68 87.5338 146.68C87.2138 146.68 86.9098 146.763 86.6218 146.928C86.3338 147.093 86.1018 147.309 85.9258 147.576C85.7498 147.837 85.6618 148.12 85.6618 148.424V153H83.2058ZM95.2233 153.256C94.322 153.256 93.5086 153.072 92.7833 152.704C92.058 152.331 91.482 151.819 91.0553 151.168C90.6286 150.512 90.4153 149.757 90.4153 148.904C90.4153 148.051 90.626 147.299 91.0473 146.648C91.474 145.992 92.05 145.48 92.7753 145.112C93.506 144.739 94.322 144.552 95.2233 144.552C96.13 144.552 96.946 144.739 97.6713 145.112C98.3966 145.48 98.97 145.992 99.3913 146.648C99.818 147.299 100.031 148.051 100.031 148.904C100.031 149.757 99.818 150.512 99.3913 151.168C98.97 151.819 98.3966 152.331 97.6713 152.704C96.946 153.072 96.13 153.256 95.2233 153.256ZM95.2313 151.16C95.6473 151.16 96.026 151.064 96.3673 150.872C96.7086 150.68 96.978 150.416 97.1753 150.08C97.3726 149.739 97.4713 149.347 97.4713 148.904C97.4713 148.461 97.3726 148.072 97.1753 147.736C96.978 147.395 96.7086 147.128 96.3673 146.936C96.026 146.744 95.6473 146.648 95.2313 146.648C94.81 146.648 94.4286 146.744 94.0873 146.936C93.7513 147.128 93.4846 147.395 93.2873 147.736C93.09 148.072 92.9913 148.461 92.9913 148.904C92.9913 149.347 93.09 149.739 93.2873 150.08C93.4846 150.416 93.7513 150.68 94.0873 150.872C94.4286 151.064 94.81 151.16 95.2313 151.16ZM102.175 153V144.808H104.631V145.72C104.945 145.368 105.337 145.085 105.807 144.872C106.281 144.659 106.804 144.552 107.375 144.552C108.004 144.552 108.556 144.691 109.031 144.968C109.511 145.24 109.887 145.621 110.159 146.112C110.431 146.597 110.567 147.165 110.567 147.816V153H108.111V148.336C108.111 147.749 107.956 147.293 107.647 146.968C107.343 146.637 106.924 146.472 106.391 146.472C106.028 146.472 105.713 146.547 105.447 146.696C105.185 146.84 104.983 147.04 104.839 147.296C104.7 147.547 104.631 147.832 104.631 148.152V153H102.175ZM113.3 153V144.808H115.756V145.72C116.161 145.315 116.564 145.019 116.964 144.832C117.364 144.645 117.796 144.552 118.26 144.552C118.889 144.552 119.457 144.693 119.964 144.976C120.47 145.259 120.833 145.637 121.052 146.112C121.452 145.595 121.881 145.205 122.34 144.944C122.798 144.683 123.324 144.552 123.916 144.552C124.508 144.552 125.033 144.675 125.492 144.92C125.95 145.165 126.31 145.515 126.572 145.968C126.838 146.416 126.972 146.947 126.972 147.56V153H124.516V148.232C124.516 147.699 124.377 147.28 124.1 146.976C123.822 146.667 123.452 146.512 122.988 146.512C122.668 146.512 122.385 146.579 122.14 146.712C121.9 146.845 121.71 147.024 121.572 147.248C121.433 147.472 121.364 147.72 121.364 147.992V153H118.908V148.184C118.908 147.677 118.772 147.272 118.5 146.968C118.233 146.664 117.862 146.512 117.388 146.512C117.073 146.512 116.79 146.579 116.54 146.712C116.294 146.845 116.102 147.027 115.964 147.256C115.825 147.485 115.756 147.739 115.756 148.016V153H113.3ZM133.673 153.256C132.788 153.256 131.993 153.067 131.289 152.688C130.59 152.304 130.036 151.784 129.625 151.128C129.214 150.472 129.009 149.731 129.009 148.904C129.009 148.296 129.124 147.728 129.353 147.2C129.588 146.672 129.913 146.211 130.329 145.816C130.745 145.416 131.228 145.107 131.777 144.888C132.326 144.664 132.921 144.552 133.561 144.552C134.414 144.552 135.161 144.731 135.801 145.088C136.446 145.44 136.948 145.931 137.305 146.56C137.668 147.189 137.849 147.923 137.849 148.76C137.849 148.829 137.846 148.891 137.841 148.944C137.841 148.992 137.833 149.085 137.817 149.224H131.537C131.537 149.64 131.63 150.003 131.817 150.312C132.009 150.621 132.276 150.864 132.617 151.04C132.958 151.211 133.356 151.296 133.809 151.296C134.236 151.296 134.612 151.213 134.937 151.048C135.268 150.883 135.585 150.619 135.889 150.256L137.657 151.144C137.273 151.805 136.729 152.323 136.025 152.696C135.321 153.069 134.537 153.256 133.673 153.256ZM131.625 147.864H135.433C135.38 147.549 135.265 147.277 135.089 147.048C134.918 146.819 134.7 146.643 134.433 146.52C134.166 146.397 133.865 146.336 133.529 146.336C133.172 146.336 132.857 146.397 132.585 146.52C132.313 146.643 132.094 146.819 131.929 147.048C131.764 147.277 131.662 147.549 131.625 147.864ZM140.034 153V144.808H142.49V145.72C142.805 145.368 143.197 145.085 143.666 144.872C144.141 144.659 144.663 144.552 145.234 144.552C145.863 144.552 146.415 144.691 146.89 144.968C147.37 145.24 147.746 145.621 148.018 146.112C148.29 146.597 148.426 147.165 148.426 147.816V153H145.97V148.336C145.97 147.749 145.815 147.293 145.506 146.968C145.202 146.637 144.783 146.472 144.25 146.472C143.887 146.472 143.573 146.547 143.306 146.696C143.045 146.84 142.842 147.04 142.698 147.296C142.559 147.547 142.49 147.832 142.49 148.152V153H140.034ZM153.889 153.256C153.073 153.256 152.439 152.997 151.985 152.48C151.532 151.957 151.305 151.229 151.305 150.296V146.672H150.209V144.808H151.305V141.736H153.761V144.808H155.561V146.672H153.761V150.12C153.761 150.429 153.823 150.664 153.945 150.824C154.073 150.984 154.252 151.064 154.481 151.064C154.737 151.064 154.983 150.979 155.217 150.808L155.833 152.776C155.556 152.925 155.244 153.043 154.897 153.128C154.556 153.213 154.22 153.256 153.889 153.256Z" fill="white"/>
<g clip-path="url(#clip0_317_3889)">
<path d="M65.4513 22.2792H55.292V26.9826H65.4513V22.2792Z" fill="white"/>
<path d="M83.7877 22.2792H73.6284V26.9826H83.7877V22.2792Z" fill="white"/>
<path d="M102.124 22.2792H91.9648V26.9826H102.124V22.2792Z" fill="white"/>
<path d="M102.124 34.6566H91.9648V39.36H102.124V34.6566Z" fill="white"/>
<path d="M102.124 47.0339H91.9648V51.7373H102.124V47.0339Z" fill="white"/>
<path d="M102.124 59.4113H91.9648V64.1147H102.124V59.4113Z" fill="white"/>
<path d="M102.124 71.7887H91.9648V76.4921H102.124V71.7887Z" fill="white"/>
<path d="M83.7877 71.7887H73.6284V76.4921H83.7877V71.7887Z" fill="white"/>
<path d="M65.4513 71.7887H55.292V76.4921H65.4513V71.7887Z" fill="white"/>
<path d="M65.4513 59.4113H55.292V64.1147H65.4513V59.4113Z" fill="white"/>
<path d="M65.4513 47.0339H55.292V51.7373H65.4513V47.0339Z" fill="white"/>
<path d="M65.4513 34.6566H55.292V39.36H65.4513V34.6566Z" fill="white"/>
<path d="M83.7877 34.6566H73.6284V39.36H83.7877V34.6566Z" fill="white"/>
<path d="M83.7877 47.0339H73.6284V51.7373H83.7877V47.0339Z" fill="white"/>
<path d="M83.7877 59.4113H73.6284V64.1147H83.7877V59.4113Z" fill="white"/>
<path d="M43.8939 78.9675H38.1948V83.6709H43.8939V78.9675Z" fill="white"/>
<path d="M43.8939 67.0852H38.1948V71.7886H43.8939V67.0852Z" fill="white"/>
<path d="M43.8939 55.203H38.1948V59.9064H43.8939V55.203Z" fill="white"/>
<path d="M118.478 55.4506H112.779V60.154H118.478V55.4506Z" fill="white"/>
<path d="M118.478 67.0852H112.779V71.7886H118.478V67.0852Z" fill="white"/>
<path d="M118.478 78.72H112.779V83.4234H118.478V78.72Z" fill="white"/>
<path d="M131.115 85.6512H120.956V105.207H131.115V85.6512Z" fill="white"/>
<path d="M87.2567 82.1857H69.416V105.208H87.2567V82.1857Z" fill="white"/>
<path d="M35.7168 85.1562H24.5664V106.198H35.7168V85.1562Z" fill="white"/>
<path d="M37.2038 35.1517H23.8232V45.7963H37.2038V35.1517Z" fill="white"/>
<path d="M132.602 35.1517H119.221V45.7963H132.602V35.1517Z" fill="white"/>
<path d="M47.239 25.7449C52.7814 25.7449 57.2744 21.2563 57.2744 15.7193C57.2744 10.1822 52.7814 5.6936 47.239 5.6936C41.6966 5.6936 37.2036 10.1822 37.2036 15.7193C37.2036 21.2563 41.6966 25.7449 47.239 25.7449Z" fill="#FFB500"/>
<path d="M138.16 48.7187V32.4508H129.121V21.8836H123.003V32.4508H113.965V48.7187H108.959V12.1506H98.8079V8.67454H85.3197V5.19849H71.9707V8.67454H59.3169V12.1506H48.3317V48.5797H42.4915V32.3117H33.453V21.7445H27.3347V32.3117H18.2963V48.5797H12.4561V106.282H25.8051V85.843H34.9826V106.282H70.8582V82.5059H86.4322V106.282H108.124V106.421H121.473V85.982H130.651V106.421H144V48.7187H138.16ZM17.2534 55.6708H22.5374V59.8421H17.2534V55.6708ZM17.3229 67.3503H22.6069V71.5216H17.3229V67.3503ZM22.6764 83.2012H17.3924V79.0299H22.6764V83.2012ZM36.5122 45.5207H24.2755V43.018H36.5122V45.5207ZM36.5122 41.9056H24.2755V39.4029H36.5122V41.9056ZM36.5122 38.2905H24.2755V35.7878H36.5122V38.2905ZM38.2504 55.6708H43.5344V59.8421H38.2504V55.6708ZM38.3199 67.3503H43.6039V71.5216H38.3199V67.3503ZM43.6734 83.2012H38.3894V79.0299H43.6734V83.2012ZM65.2961 76.249H55.5624V71.9387H65.2961V76.249ZM65.2961 63.8743H55.5624V59.564H65.2961V63.8743ZM65.2961 51.4995H55.5624V47.1892H65.2961V51.4995ZM65.2961 39.1248H55.5624V34.8145H65.2961V39.1248ZM65.2961 26.75H55.5624V22.4397H65.2961V26.75ZM83.512 76.249H73.7783V71.9387H83.512V76.249ZM83.512 63.8743H73.7783V59.564H83.512V63.8743ZM83.512 51.4995H73.7783V47.1892H83.512V51.4995ZM83.512 39.1248H73.7783V34.8145H83.512V39.1248ZM83.512 26.75H73.7783V22.4397H83.512V26.75ZM101.728 76.249H91.9943V71.9387H101.728V76.249ZM101.728 63.8743H91.9943V59.564H101.728V63.8743ZM101.728 51.4995H91.9943V47.1892H101.728V51.4995ZM101.728 39.1248H91.9943V34.8145H101.728V39.1248ZM101.728 26.75H91.9943V22.4397H101.728V26.75ZM112.922 55.8098H118.206V59.9811H112.922V55.8098ZM112.991 67.4894H118.275V71.6607H112.991V67.4894ZM118.345 83.3402H113.061V79.1689H118.345V83.3402ZM132.181 45.6598H119.944V43.157H132.181V45.6598ZM132.181 42.0447H119.944V39.5419H132.181V42.0447ZM132.181 38.4296H119.944V35.9268H132.181V38.4296ZM133.919 55.8098H139.203V59.9811H133.919V55.8098ZM133.988 67.4894H139.272V71.6607H133.988V67.4894ZM139.342 83.3402H134.058V79.1689H139.342V83.3402Z" fill="#8E9089"/>
<path d="M20.6866 92.1985C20.6477 92.7486 20.5868 93.3638 20.4927 94.0102L22.1927 92.125L22.2021 92.1566C22.0981 91.7029 21.9307 91.2661 21.7048 90.8591L21.7157 90.889L20.6866 92.1985Z" fill="#4A773C"/>
<path d="M20.6929 92.1021L21.6897 90.8335C21.4777 90.4465 21.1709 90.1196 20.7981 89.8834C20.7799 89.8725 20.7615 89.8623 20.7431 89.8522C20.7486 90.002 20.7747 90.8815 20.6929 92.1021Z" fill="#4A773C"/>
<path d="M19.7934 97.0752C19.7496 97.2086 19.7044 97.3396 19.6577 97.4681L22.1613 96.0003L22.1648 96.0371C22.2171 95.8089 22.2607 95.5806 22.2955 95.3524L19.7957 97.092L19.7934 97.0752Z" fill="#4A773C"/>
<path d="M20.1416 95.8432L22.3964 93.9838L22.4028 94.0186C22.4108 93.4037 22.3459 92.7901 22.2095 92.1906L20.4771 94.1117C20.3861 94.7172 20.2743 95.2944 20.1416 95.8432Z" fill="#4A773C"/>
<path d="M20.4384 94.0751L17.7404 91.0649L17.7548 91.0309C17.5012 91.3879 17.2843 91.7697 17.1074 92.1704L20.1863 95.4482C20.2918 94.9698 20.3742 94.5066 20.4384 94.0751Z" fill="#4A773C"/>
<path d="M17.0786 92.2382L17.0787 92.2383C17.0836 92.2271 17.0878 92.2149 17.0927 92.2039L17.0786 92.2382Z" fill="#4A773C"/>
<path d="M16.9284 92.6074L16.9146 92.6418C16.919 92.63 16.9241 92.6193 16.9285 92.6075L16.9284 92.6074Z" fill="#4A773C"/>
<path d="M20.169 95.5281L17.0789 92.2383C17.0266 92.3579 16.9766 92.481 16.9287 92.6075L20.087 95.876C20.1157 95.7594 20.1431 95.6434 20.169 95.5281Z" fill="#4A773C"/>
<path d="M22.3022 95.3085C22.3637 94.8947 22.3973 94.4773 22.4026 94.059L20.1173 95.9436C20.0267 96.309 19.9271 96.6604 19.8184 96.9976L22.2974 95.2725L22.3022 95.3085Z" fill="#4A773C"/>
<path d="M16.5186 95.543L19.02 98.8061C19.2255 98.4089 19.407 97.9998 19.5635 97.5809L16.5114 94.3754C16.4811 94.7761 16.4777 95.1784 16.5013 95.5796L16.5186 95.543Z" fill="#4A773C"/>
<path d="M20.6976 89.8494L20.72 89.8394C20.1722 89.5467 19.5791 89.5781 19.0107 89.8748L20.649 92.0998C20.7371 90.7792 20.6982 89.8625 20.6976 89.8494Z" fill="#4A773C"/>
<path d="M19.5767 97.6864C19.4331 98.0633 19.2691 98.4321 19.0854 98.7912L21.6015 97.4896L21.6041 97.5258C21.7936 97.2055 21.9419 96.8626 22.0452 96.5051C22.0852 96.3645 22.1217 96.2235 22.1546 96.082L19.6212 97.5674C19.6064 97.6071 19.5918 97.6471 19.5767 97.6864Z" fill="#4A773C"/>
<path d="M20.6424 92.1982L18.9666 89.9222L18.9823 89.8898C18.5027 90.1673 18.0905 90.5476 17.7754 91.0034L20.4515 93.989C20.5441 93.3499 20.6041 92.7419 20.6424 92.1982Z" fill="#4A773C"/>
<path d="M19.591 97.5073C19.7776 96.9984 19.9366 96.4799 20.0674 95.9539L16.9013 92.6772C16.8259 92.8819 16.7567 93.0948 16.6936 93.3159C16.6061 93.6329 16.5476 93.9573 16.519 94.2849L19.5886 97.5087L19.591 97.5073Z" fill="#4A773C"/>
<path d="M22.8431 101.042C22.4623 101.441 22.0229 101.876 21.5381 102.314L24.05 101.946L24.037 101.977C24.2463 101.561 24.396 101.118 24.4816 100.66L24.471 100.69L22.8431 101.042Z" fill="#4A773C"/>
<path d="M24.4059 99.3306C24.3988 99.3106 24.3912 99.291 24.3835 99.2715C24.2921 99.3904 23.7512 100.084 22.9097 100.972L24.4866 100.631C24.5701 100.198 24.5423 99.7503 24.4059 99.3306V99.3306Z" fill="#4A773C"/>
<path d="M19.0451 104.229C18.9263 104.304 18.8079 104.376 18.6899 104.445L21.5545 104.911L21.5337 104.942C21.7195 104.799 21.8987 104.651 22.0711 104.498L19.0361 104.243L19.0451 104.229Z" fill="#4A773C"/>
<path d="M20.0991 103.502L23.0218 103.508L23.0046 103.539C23.4029 103.071 23.7443 102.557 24.0217 102.008L21.462 102.383C21.0057 102.791 20.5514 103.164 20.0991 103.502Z" fill="#4A773C"/>
<path d="M19.1138 104.185L22.1234 104.438L22.1042 104.468C22.4156 104.189 22.7077 103.889 22.9786 103.57L20.0163 103.564C19.7135 103.788 19.4126 103.995 19.1138 104.185Z" fill="#4A773C"/>
<path d="M15.4273 105.674C15.4486 105.653 15.4712 105.629 15.4934 105.606C16.1071 105.509 16.7068 105.337 17.2795 105.096L17.3613 102.927C17.3856 102.872 17.4092 102.817 17.4321 102.761L17.345 105.069C17.7566 104.894 18.1574 104.695 18.5452 104.472L18.2657 100.44C18.2873 100.429 18.3089 100.417 18.3313 100.405L18.6104 104.432L18.6132 104.433C19.0815 104.16 19.5347 103.862 19.9709 103.54L19.6666 99.5723C19.6882 99.5565 19.7096 99.541 19.7312 99.525L20.0356 103.492C20.1321 103.421 20.2271 103.349 20.3207 103.277L20.0696 99.2602C20.0911 99.2425 20.1126 99.2249 20.134 99.2069L20.3853 103.227C20.7717 102.925 21.1306 102.621 21.4553 102.33L21.2974 98.2906L21.3302 98.2736C21.2181 98.3029 21.1041 98.3376 20.9891 98.3754C21.2053 98.1285 21.3997 97.8634 21.5703 97.5831L19.0302 98.8972C18.8543 99.2312 18.6566 99.5533 18.4382 99.8611C18.3928 99.904 18.3474 99.9468 18.3026 99.9915L18.306 100.04C18.2852 100.067 18.2646 100.095 18.2436 100.121L18.2391 100.056C18.2071 100.089 18.1758 100.124 18.1441 100.158C18.4658 99.7562 18.7481 99.3246 18.9871 98.869L16.5041 95.6297C16.521 95.9193 16.5493 96.2107 16.5857 96.4998C16.3552 96.125 16.0752 95.783 15.7534 95.4829L15.7729 95.5079L15.1991 97.0714C15.3321 97.6065 15.4644 98.2105 15.5747 98.8544L16.5945 96.5679C16.5992 96.6035 16.6041 96.639 16.609 96.6746L15.5916 98.9555C15.6923 99.5595 15.7644 100.143 15.8078 100.706L17.0289 98.7881C17.0359 98.8157 17.0428 98.8433 17.0498 98.8704L15.8156 100.809C15.8425 101.184 15.8563 101.549 15.8572 101.904L17.3498 99.9346C17.3577 99.9605 17.3655 99.9857 17.3732 100.011L15.8649 102L15.8575 101.985C15.8571 102.126 15.8546 102.264 15.8499 102.401L17.5335 100.505C17.5425 100.532 17.5508 100.556 17.5585 100.578L15.8457 102.507C15.8439 102.549 15.8424 102.591 15.8402 102.634C15.8202 103.036 15.7782 103.438 15.7145 103.836L15.877 103.672C15.8462 103.735 15.8163 103.798 15.7871 103.86L15.6946 103.954C15.684 104.015 15.6719 104.074 15.6603 104.134C15.6262 104.209 15.5933 104.282 15.5617 104.354C15.5922 104.217 15.6207 104.079 15.645 103.941L12.2822 101.627C13.1596 103.872 14.8116 106.007 14.9174 106.142C15.0033 105.982 15.0813 105.817 15.1529 105.648C15.1737 105.646 15.1945 105.644 15.2153 105.642C15.2067 105.663 15.1978 105.683 15.189 105.704C15.1786 105.705 15.1679 105.707 15.1575 105.708C15.1656 105.71 15.1754 105.713 15.1843 105.715C15.1338 105.833 15.0815 105.948 15.0254 106.06C15.0988 105.994 15.2106 105.89 15.3443 105.757C16.135 105.959 18.2653 106.391 20.0893 105.753L17.2947 105.145C16.6966 105.399 16.0693 105.576 15.4273 105.674V105.674ZM17.3911 102.138L17.4581 102.071L17.4542 102.172L17.3872 102.24L17.3911 102.138Z" fill="#4A773C"/>
<path d="M24.3503 99.2403L24.374 99.2469C24.1388 98.6721 23.662 98.3181 23.0349 98.1841L22.8774 100.943C23.7877 99.9817 24.3424 99.2508 24.3503 99.2403Z" fill="#4A773C"/>
<path d="M18.4879 104.562C18.1369 104.76 17.7753 104.94 17.4048 105.099L20.1729 105.701L20.1518 105.731C20.5021 105.605 20.835 105.435 21.1426 105.226C21.2631 105.143 21.3811 105.058 21.4967 104.97L18.5981 104.498C18.5613 104.519 18.5246 104.541 18.4879 104.562Z" fill="#4A773C"/>
<path d="M21.5199 102.271C21.9989 101.838 22.433 101.408 22.8093 101.014L22.9704 98.1922L23.0032 98.1773C22.4567 98.0851 21.8967 98.1151 21.3633 98.2652L21.5199 102.271Z" fill="#4A773C"/>
<path d="M15.7315 95.4631C15.4101 95.1606 15.0173 94.9445 14.5898 94.8351C14.5691 94.8304 14.5484 94.8264 14.5278 94.8224C14.5793 94.9632 14.876 95.7916 15.1755 96.9776L15.7315 95.4631Z" fill="#4A773C"/>
<path d="M15.5433 98.9328L12.0468 96.9039L12.05 96.8671C11.9192 97.285 11.831 97.7151 11.7866 98.1509L15.728 100.317C15.6804 99.829 15.6156 99.363 15.5433 98.9328Z" fill="#4A773C"/>
<path d="M11.7803 98.2242L11.7804 98.2243C11.7816 98.2122 11.7818 98.1993 11.7831 98.1873L11.7803 98.2242Z" fill="#4A773C"/>
<path d="M11.7516 98.6218L11.749 98.6589C11.7496 98.6462 11.7511 98.6344 11.7517 98.6219L11.7516 98.6218Z" fill="#4A773C"/>
<path d="M15.7359 100.398L11.7801 98.2244C11.7674 98.3543 11.7579 98.4868 11.7515 98.6219L15.7655 100.754C15.7567 100.634 15.7469 100.516 15.7359 100.398Z" fill="#4A773C"/>
<path d="M15.7949 102.537L11.9014 100.432C11.9965 100.822 12.1177 101.206 12.2641 101.58L12.2692 101.54L15.6568 103.87C15.7294 103.429 15.7756 102.984 15.7949 102.537V102.537Z" fill="#4A773C"/>
<path d="M14.4836 94.8339L14.5018 94.8175C13.8904 94.7085 13.3361 94.9216 12.8872 95.3795L15.133 96.9892C14.8086 95.706 14.4882 94.8463 14.4836 94.8339Z" fill="#4A773C"/>
<path d="M15.157 97.0848L12.8597 95.4382L12.8646 95.4025C12.4942 95.8146 12.2198 96.3037 12.061 96.8346L15.529 98.8469C15.4195 98.2104 15.2886 97.6136 15.157 97.0848Z" fill="#4A773C"/>
<path d="M15.7982 102.459C15.8183 101.917 15.8093 101.375 15.7711 100.834L11.7471 98.6967C11.7386 98.9146 11.7386 99.1384 11.747 99.3682C11.7617 99.6968 11.8064 100.023 11.8805 100.344L15.7963 102.461L15.7982 102.459Z" fill="#4A773C"/>
<path d="M139.715 91.7814C139.676 92.3314 139.616 92.9467 139.521 93.5931L141.221 91.7079L141.231 91.7395C141.127 91.2858 140.959 90.849 140.734 90.442L140.744 90.4718L139.715 91.7814Z" fill="#4A773C"/>
<path d="M139.722 91.6849L140.719 90.4164C140.507 90.0294 140.2 89.7025 139.827 89.4663C139.809 89.4554 139.791 89.4452 139.772 89.4351C139.778 89.5849 139.804 90.4644 139.722 91.6849Z" fill="#4A773C"/>
<path d="M138.823 96.6581C138.779 96.7915 138.734 96.9224 138.687 97.051L141.191 95.5832L141.194 95.62C141.246 95.3917 141.29 95.1635 141.325 94.9353L138.825 96.6749L138.823 96.6581Z" fill="#4A773C"/>
<path d="M139.171 95.4261L141.426 93.5666L141.432 93.6014C141.44 92.9866 141.375 92.373 141.239 91.7734L139.506 93.6946C139.415 94.3001 139.304 94.8773 139.171 95.4261Z" fill="#4A773C"/>
<path d="M139.468 93.658L136.77 90.6478L136.784 90.6138C136.53 90.9708 136.314 91.3526 136.137 91.7533L139.216 95.0311C139.321 94.5527 139.403 94.0895 139.468 93.658Z" fill="#4A773C"/>
<path d="M136.108 91.821L136.108 91.8212C136.113 91.81 136.117 91.7978 136.122 91.7867L136.108 91.821Z" fill="#4A773C"/>
<path d="M139.198 95.1109L136.108 91.8212C136.055 91.9408 136.005 92.0639 135.958 92.1904L139.116 95.4589C139.145 95.3423 139.172 95.2263 139.198 95.1109Z" fill="#4A773C"/>
<path d="M135.958 92.1903L135.944 92.2247C135.948 92.2129 135.953 92.2021 135.958 92.1904L135.958 92.1903Z" fill="#4A773C"/>
<path d="M141.332 94.8914C141.393 94.4776 141.427 94.0601 141.432 93.6418L139.147 95.5264C139.056 95.8919 138.956 96.2433 138.848 96.5805L141.327 94.8554L141.332 94.8914Z" fill="#4A773C"/>
<path d="M135.548 95.1259L138.049 98.389C138.255 97.9918 138.436 97.5827 138.593 97.1638L135.541 93.9583C135.51 94.359 135.507 94.7613 135.531 95.1625L135.548 95.1259Z" fill="#4A773C"/>
<path d="M139.727 89.4323L139.749 89.4222C139.202 89.1296 138.608 89.161 138.04 89.4577L139.678 91.6827C139.766 90.3621 139.727 89.4454 139.727 89.4323Z" fill="#4A773C"/>
<path d="M138.606 97.2693C138.462 97.6462 138.298 98.015 138.115 98.3741L140.631 97.0724L140.633 97.1086C140.823 96.7884 140.971 96.4455 141.074 96.088C141.114 95.9474 141.151 95.8063 141.184 95.6649L138.65 97.1502C138.636 97.19 138.621 97.23 138.606 97.2693Z" fill="#4A773C"/>
<path d="M139.671 91.7811L137.995 89.5051L138.011 89.4727C137.531 89.7501 137.119 90.1305 136.804 90.5863L139.48 93.5719C139.573 92.9327 139.633 92.3247 139.671 91.7811Z" fill="#4A773C"/>
<path d="M138.62 97.0902C138.807 96.5813 138.966 96.0628 139.097 95.5368L135.931 92.2601C135.855 92.4648 135.786 92.6777 135.723 92.8988C135.635 93.2158 135.577 93.5402 135.548 93.8678L138.618 97.0916L138.62 97.0902Z" fill="#4A773C"/>
<path d="M141.872 100.625C141.492 101.024 141.052 101.459 140.567 101.897L143.079 101.529L143.066 101.56C143.276 101.144 143.425 100.701 143.511 100.243L143.5 100.273L141.872 100.625Z" fill="#4A773C"/>
<path d="M143.435 98.9135C143.428 98.8935 143.42 98.8739 143.413 98.8544C143.321 98.9732 142.781 99.6673 141.939 100.555L143.516 100.214C143.599 99.7806 143.572 99.3332 143.435 98.9135V98.9135Z" fill="#4A773C"/>
<path d="M138.074 103.812C137.955 103.887 137.837 103.959 137.719 104.028L140.583 104.494L140.562 104.525C140.748 104.382 140.928 104.234 141.1 104.081L138.065 103.826L138.074 103.812Z" fill="#4A773C"/>
<path d="M139.128 103.085L142.051 103.091L142.033 103.122C142.432 102.653 142.773 102.139 143.051 101.591L140.491 101.965C140.034 102.374 139.58 102.747 139.128 103.085Z" fill="#4A773C"/>
<path d="M138.143 103.768L141.152 104.02L141.133 104.051C141.444 103.772 141.736 103.472 142.007 103.153L139.045 103.147C138.742 103.37 138.441 103.578 138.143 103.768Z" fill="#4A773C"/>
<path d="M134.457 105.257C134.478 105.236 134.5 105.212 134.523 105.189C135.136 105.092 135.736 104.92 136.309 104.679L136.391 102.51C136.415 102.455 136.438 102.399 136.461 102.343L136.374 104.652C136.786 104.477 137.187 104.277 137.574 104.055L137.295 100.023C137.317 100.011 137.338 100 137.361 99.9883L137.64 104.015L137.642 104.015C138.111 103.743 138.564 103.445 139 103.123L138.696 99.1551C138.717 99.1394 138.739 99.1239 138.761 99.1078L139.065 103.075C139.161 103.004 139.256 102.932 139.35 102.86L139.099 98.843C139.12 98.8254 139.142 98.8077 139.163 98.7898L139.415 102.809C139.801 102.508 140.16 102.204 140.485 101.913L140.327 97.8735L140.36 97.8565C140.247 97.8858 140.133 97.9205 140.018 97.9583C140.235 97.7114 140.429 97.4463 140.6 97.1659L138.059 98.4801C137.884 98.8141 137.686 99.1361 137.467 99.444C137.422 99.4869 137.377 99.5297 137.332 99.5744L137.335 99.6226C137.315 99.6499 137.294 99.6774 137.273 99.7042L137.268 99.6392C137.236 99.6721 137.205 99.7069 137.173 99.7407C137.495 99.3391 137.777 98.9075 138.016 98.4519L135.533 95.2126C135.55 95.5021 135.579 95.7936 135.615 96.0827C135.384 95.7079 135.105 95.3658 134.783 95.0658L134.802 95.0908L134.228 96.6543C134.361 97.1894 134.494 97.7933 134.604 98.4372L135.624 96.1508C135.628 96.1864 135.633 96.2219 135.638 96.2575L134.621 98.5384C134.722 99.1424 134.794 99.7259 134.837 100.289L136.058 98.371C136.065 98.3986 136.072 98.4262 136.079 98.4533L134.845 100.392C134.872 100.767 134.886 101.132 134.886 101.487L136.379 99.5175C136.387 99.5434 136.395 99.5685 136.403 99.5934L134.894 101.583L134.887 101.568C134.886 101.708 134.884 101.847 134.879 101.984L136.563 100.088C136.572 100.115 136.58 100.139 136.588 100.161L134.875 102.089C134.873 102.132 134.872 102.174 134.87 102.216C134.849 102.619 134.808 103.021 134.744 103.419L134.906 103.254C134.876 103.318 134.846 103.381 134.816 103.443L134.724 103.537C134.713 103.598 134.701 103.657 134.69 103.717C134.655 103.792 134.623 103.865 134.591 103.936C134.622 103.8 134.65 103.662 134.674 103.523L131.312 101.21C132.189 103.455 133.841 105.589 133.947 105.725C134.033 105.565 134.111 105.4 134.182 105.231C134.203 105.229 134.224 105.227 134.245 105.225C134.236 105.246 134.227 105.266 134.218 105.287C134.208 105.288 134.197 105.289 134.187 105.29C134.195 105.293 134.205 105.295 134.214 105.298C134.163 105.415 134.111 105.531 134.055 105.643C134.128 105.577 134.24 105.473 134.374 105.34C135.164 105.542 137.295 105.974 139.119 105.336L136.324 104.728C135.726 104.982 135.099 105.159 134.457 105.257V105.257ZM136.42 101.721L136.487 101.653L136.484 101.755L136.417 101.823L136.42 101.721Z" fill="#4A773C"/>
<path d="M143.379 98.8232L143.403 98.8298C143.168 98.255 142.691 97.901 142.064 97.767L141.906 100.525C142.817 99.5646 143.371 98.8337 143.379 98.8232Z" fill="#4A773C"/>
<path d="M137.517 104.144C137.166 104.343 136.805 104.523 136.434 104.682L139.202 105.284L139.181 105.314C139.531 105.188 139.864 105.018 140.172 104.809C140.292 104.726 140.41 104.641 140.526 104.553L137.627 104.081C137.591 104.102 137.554 104.124 137.517 104.144Z" fill="#4A773C"/>
<path d="M140.549 101.854C141.028 101.421 141.462 100.991 141.839 100.597L142 97.7751L142.032 97.7601C141.486 97.668 140.926 97.698 140.393 97.8481L140.549 101.854Z" fill="#4A773C"/>
<path d="M134.761 95.046C134.439 94.7435 134.047 94.5274 133.619 94.418C133.598 94.4133 133.578 94.4092 133.557 94.4053C133.609 94.5461 133.905 95.3745 134.205 96.5605L134.761 95.046Z" fill="#4A773C"/>
<path d="M134.573 98.5156L131.076 96.4868L131.079 96.45C130.949 96.8679 130.86 97.298 130.816 97.7337L134.757 99.8994C134.71 99.4119 134.645 98.9459 134.573 98.5156Z" fill="#4A773C"/>
<path d="M130.781 98.2047L130.778 98.2417C130.779 98.2291 130.78 98.2173 130.781 98.2048L130.781 98.2047Z" fill="#4A773C"/>
<path d="M130.81 97.8071L130.81 97.8072C130.811 97.7951 130.811 97.7822 130.812 97.7701L130.81 97.8071Z" fill="#4A773C"/>
<path d="M134.765 99.9808L130.809 97.8073C130.797 97.9372 130.787 98.0697 130.781 98.2048L134.795 100.337C134.786 100.217 134.776 100.099 134.765 99.9808Z" fill="#4A773C"/>
<path d="M134.824 102.12L130.931 100.015C131.026 100.405 131.147 100.789 131.293 101.163L131.298 101.123L134.686 103.453C134.759 103.012 134.805 102.567 134.824 102.12V102.12Z" fill="#4A773C"/>
<path d="M133.513 94.4168L133.531 94.4004C132.92 94.2913 132.365 94.5045 131.917 94.9624L134.162 96.5721C133.838 95.2889 133.518 94.4291 133.513 94.4168Z" fill="#4A773C"/>
<path d="M134.186 97.1628L131.889 95.5162L131.894 95.4805C131.524 95.8926 131.249 96.3817 131.09 96.9126L134.558 98.9249C134.449 98.2884 134.318 97.6916 134.186 97.1628Z" fill="#4A773C"/>
<path d="M134.827 102.042C134.848 101.5 134.839 100.958 134.8 100.417L130.776 98.2795C130.768 98.4975 130.768 98.7213 130.776 98.9511C130.791 99.2797 130.836 99.6062 130.91 99.9266L134.826 102.044L134.827 102.042Z" fill="#4A773C"/>
<path d="M12.4561 106.282H144V108.164C144 108.956 143.686 109.715 143.126 110.275C142.566 110.834 141.807 111.149 141.015 111.149H15.4408C14.6492 111.149 13.89 110.834 13.3303 110.275C12.7705 109.715 12.4561 108.956 12.4561 108.164V106.282Z" fill="#171717"/>
<path d="M144 104.753H12.4561V107.394H144V104.753Z" fill="#A7ACA2"/>
<path d="M114.402 14.3717L115.913 15.3296L114.995 13.662C115.255 13.4547 115.577 13.34 115.909 13.336C115.917 13.336 115.925 13.336 115.933 13.3362C116.038 13.3379 116.143 13.3301 116.247 13.313L116.759 13.6376L116.539 13.2386C116.902 13.1121 117.215 12.8742 117.435 12.5589L118.351 13.14L117.772 12.0875C118.308 11.4443 119.031 11.0499 119.825 11.0499C120.778 11.0499 121.627 11.6166 122.175 12.4995C122.337 12.7637 122.566 12.9803 122.839 13.1274C123.112 13.2745 123.419 13.3467 123.728 13.3369C123.745 13.3363 123.763 13.336 123.78 13.336C124.832 13.336 125.685 14.5287 125.685 15.9999C125.685 17.4712 124.832 18.6639 123.78 18.6639C123.548 18.663 123.321 18.606 123.116 18.4978C122.758 18.3238 122.366 18.2296 121.968 18.2218C121.57 18.214 121.175 18.2928 120.811 18.4527C120.503 18.5911 120.169 18.6631 119.831 18.6639C119.493 18.6647 119.159 18.5942 118.851 18.4572C118.489 18.3004 118.097 18.2232 117.703 18.2308C117.309 18.2384 116.921 18.3307 116.565 18.5014C116.363 18.6073 116.138 18.6631 115.909 18.6639C114.857 18.6639 114.004 17.4712 114.004 15.9999C113.998 15.4324 114.135 14.8725 114.402 14.3717V14.3717Z" fill="#B8DDE1"/>
<path d="M37.5393 22.1955L38.5003 22.8049L37.9168 21.7441C38.0821 21.6122 38.2866 21.5393 38.498 21.5367C38.5031 21.5367 38.5083 21.5367 38.5134 21.5368C38.5802 21.5379 38.647 21.533 38.7128 21.5221L39.0385 21.7286L38.8989 21.4748C39.1297 21.3943 39.3291 21.243 39.4687 21.0424L40.0516 21.412L39.6833 20.7425C39.8384 20.5425 40.0361 20.3795 40.262 20.2654C40.4879 20.1512 40.7363 20.0887 40.9894 20.0825C41.5955 20.0825 42.1355 20.4429 42.4841 21.0046C42.5872 21.1727 42.7329 21.3105 42.9064 21.404C43.0799 21.4976 43.2751 21.5436 43.4721 21.5373C43.483 21.5369 43.4938 21.5367 43.5047 21.5367C44.174 21.5367 44.7165 22.2954 44.7165 23.2313C44.7165 24.1672 44.174 24.9259 43.5047 24.9259C43.3576 24.9253 43.2128 24.8891 43.0827 24.8202C42.8549 24.7095 42.6058 24.6496 42.3525 24.6447C42.0993 24.6397 41.848 24.6899 41.6161 24.7916C41.4201 24.8796 41.2078 24.9254 40.9929 24.9259C40.7781 24.9264 40.5656 24.8816 40.3692 24.7945C40.139 24.6947 39.8901 24.6455 39.6393 24.6504C39.3885 24.6552 39.1417 24.714 38.9156 24.8226C38.7866 24.8899 38.6434 24.9254 38.498 24.9259C37.8288 24.9259 37.2863 24.1672 37.2863 23.2313C37.2824 22.8703 37.3694 22.5141 37.5393 22.1955Z" fill="#B8DDE1"/>
<path d="M11.6755 25.4623L12.6365 26.0716L12.0531 25.0108C12.2183 24.879 12.4228 24.806 12.6342 24.8034C12.6394 24.8034 12.6445 24.8035 12.6497 24.8036C12.7164 24.8046 12.7832 24.7997 12.8491 24.7888L13.1747 24.9953L13.0351 24.7415C13.2659 24.661 13.4653 24.5097 13.6049 24.3091L14.1878 24.6788L13.8196 24.0093C13.9747 23.8092 14.1723 23.6462 14.3982 23.5321C14.6241 23.4179 14.8726 23.3554 15.1256 23.3492C15.7318 23.3492 16.2718 23.7097 16.6204 24.2713C16.7234 24.4394 16.8691 24.5772 17.0426 24.6707C17.2161 24.7643 17.4113 24.8103 17.6084 24.804C17.6192 24.8036 17.6301 24.8034 17.641 24.8034C18.3102 24.8034 18.8527 25.5621 18.8527 26.498C18.8527 27.4339 18.3102 28.1926 17.641 28.1926C17.4938 28.1921 17.349 28.1558 17.2189 28.087C16.9911 27.9763 16.742 27.9164 16.4888 27.9114C16.2355 27.9065 15.9843 27.9566 15.7523 28.0583C15.5563 28.1464 15.344 28.1921 15.1292 28.1926C14.9143 28.1931 14.7018 28.1483 14.5054 28.0612C14.2753 27.9614 14.0264 27.9123 13.7756 27.9171C13.5247 27.922 13.2779 27.9807 13.0518 28.0893C12.9229 28.1567 12.7797 28.1921 12.6342 28.1926C11.965 28.1926 11.4225 27.4339 11.4225 26.498C11.4186 26.137 11.5056 25.7808 11.6755 25.4623V25.4623Z" fill="#B8DDE1"/>
<path d="M134.577 90.0014C134.903 89.4334 135.071 88.7889 135.064 88.1342C135.064 86.4468 134.019 85.0789 132.73 85.0789C131.441 85.0789 130.396 86.4468 130.396 88.1342C130.39 88.7889 130.558 89.4334 130.883 90.0014C130.564 90.5719 130.396 91.2148 130.396 91.8686C130.396 92.5224 130.564 93.1653 130.883 93.7358C130.564 94.3063 130.396 94.9492 130.396 95.603C130.396 96.2568 130.564 96.8997 130.883 97.4702C130.564 98.0406 130.396 98.6835 130.396 99.3373C130.396 99.9912 130.564 100.634 130.883 101.205C130.558 101.773 130.39 102.417 130.396 103.072C130.396 104.759 131.441 106.127 132.73 106.127C134.019 106.127 135.064 104.759 135.064 103.072C135.071 102.417 134.903 101.773 134.577 101.205C134.897 100.634 135.064 99.9912 135.064 99.3373C135.064 98.6835 134.897 98.0406 134.577 97.4702C134.897 96.8997 135.064 96.2568 135.064 95.603C135.064 94.9492 134.897 94.3063 134.577 93.7358C134.897 93.1653 135.064 92.5224 135.064 91.8686C135.064 91.2148 134.897 90.5719 134.577 90.0014V90.0014Z" fill="#A7ACA2"/>
<path d="M132.73 87.4553C134.019 87.4553 135.064 86.0873 135.064 84.3999C135.064 82.7124 134.019 81.3445 132.73 81.3445C131.441 81.3445 130.396 82.7124 130.396 84.3999C130.396 86.0873 131.441 87.4553 132.73 87.4553Z" fill="#A7ACA2"/>
<path d="M132.73 83.721C134.019 83.721 135.064 82.3531 135.064 80.6656C135.064 78.9782 134.019 77.6102 132.73 77.6102C131.441 77.6102 130.396 78.9782 130.396 80.6656C130.396 82.3531 131.441 83.721 132.73 83.721Z" fill="#A7ACA2"/>
<path d="M141.468 55.1101C141.787 54.7041 142.077 54.2766 142.337 53.8306L136.204 52.8234L142.837 52.8727C143.474 51.4884 143.821 49.9887 143.858 48.4656C143.894 46.9424 143.62 45.4278 143.051 44.0143L134.152 48.6305L142.359 42.5981C141.59 41.2695 140.556 40.1134 139.32 39.2019C138.085 38.2905 136.676 37.6431 135.179 37.3001C133.683 36.9571 132.132 36.9259 130.623 37.2084C129.114 37.491 127.68 38.0811 126.409 38.9422C125.138 39.8033 124.058 40.9168 123.236 42.2134C122.415 43.51 121.869 44.9619 121.633 46.4787C121.396 47.9954 121.475 49.5446 121.864 51.0295C122.253 52.5145 122.943 53.9035 123.892 55.1101C123.395 55.7419 122.968 56.4255 122.617 57.1489L130.578 61.2847L122.089 58.4359C121.493 60.1978 121.346 62.0805 121.661 63.9136C121.976 65.7467 122.743 67.4724 123.892 68.9345C122.595 70.5836 121.788 72.5644 121.564 74.6504C121.339 76.7364 121.706 78.8435 122.623 80.7307C123.54 82.618 124.969 84.2092 126.748 85.3224C128.526 86.4357 130.582 87.0261 132.68 87.0261C134.778 87.0261 136.834 86.4357 138.613 85.3224C140.391 84.2092 141.821 82.618 142.737 80.7307C143.654 78.8435 144.021 76.7364 143.797 74.6504C143.572 72.5644 142.765 70.5836 141.468 68.9345C143.018 66.9639 143.861 64.5295 143.861 62.0223C143.861 59.5152 143.018 57.0808 141.468 55.1101V55.1101Z" fill="#F2F2F2"/>
<path d="M121.5 62.0224C121.496 64.5302 122.339 66.9658 123.892 68.9346C122.595 70.5837 121.788 72.5645 121.564 74.6505C121.339 76.7365 121.706 78.8436 122.623 80.7308C123.54 82.6181 124.969 84.2093 126.748 85.3225C128.526 86.4358 130.582 87.0262 132.68 87.0262C134.778 87.0262 136.834 86.4358 138.613 85.3225C140.391 84.2093 141.821 82.6181 142.737 80.7308C143.654 78.8436 144.021 76.7365 143.797 74.6505C143.572 72.5645 142.765 70.5837 141.468 68.9346C142.967 67.0324 121.5 60.7676 121.5 62.0224Z" fill="#F2F2F2"/>
<path d="M141.468 55.1101C141.787 54.7041 142.077 54.2766 142.337 53.8306L136.204 52.8234L142.837 52.8727C143.474 51.4884 143.821 49.9887 143.858 48.4656C143.894 46.9424 143.62 45.4278 143.051 44.0143L134.152 48.6305L142.359 42.5981C141.59 41.2695 140.556 40.1134 139.32 39.2019C138.085 38.2905 136.676 37.6431 135.179 37.3001C133.683 36.9571 132.132 36.9259 130.623 37.2084C129.114 37.491 127.68 38.0811 126.409 38.9422C125.138 39.8033 124.058 40.9168 123.236 42.2134C122.415 43.51 121.869 44.9619 121.633 46.4787C121.396 47.9954 121.475 49.5446 121.864 51.0295C122.253 52.5145 122.943 53.9035 123.892 55.1101C123.395 55.7419 122.968 56.4255 122.617 57.1489L130.578 61.2847L122.089 58.4359C121.493 60.1978 121.346 62.0805 121.661 63.9136C121.976 65.7467 122.743 67.4724 123.892 68.9345C122.595 70.5836 121.788 72.5644 121.564 74.6504C121.339 76.7364 121.706 78.8435 122.623 80.7307C123.54 82.618 124.969 84.2092 126.748 85.3224C128.526 86.4357 130.582 87.0261 132.68 87.0261C134.778 87.0261 136.834 86.4357 138.613 85.3224C140.391 84.2092 141.821 82.618 142.737 80.7307C143.654 78.8435 144.021 76.7364 143.797 74.6504C143.572 72.5644 142.765 70.5836 141.468 68.9345C143.018 66.9639 143.861 64.5295 143.861 62.0223C143.861 59.5152 143.018 57.0808 141.468 55.1101V55.1101Z" fill="#4A773C"/>
<path opacity="0.1" d="M121.5 62.0224C121.496 64.5302 122.339 66.9658 123.892 68.9346C122.595 70.5837 121.788 72.5645 121.564 74.6505C121.339 76.7365 121.706 78.8436 122.623 80.7308C123.54 82.6181 124.969 84.2093 126.748 85.3225C128.526 86.4358 130.582 87.0262 132.68 87.0262C134.778 87.0262 136.834 86.4358 138.613 85.3225C140.391 84.2093 141.821 82.6181 142.737 80.7308C143.654 78.8436 144.021 76.7365 143.797 74.6505C143.572 72.5645 142.765 70.5837 141.468 68.9346C142.967 67.0324 121.5 60.7676 121.5 62.0224Z" fill="black"/>
<path d="M17.0778 90.0014C17.4033 89.4334 17.5714 88.7889 17.565 88.1342C17.565 86.4468 16.5199 85.0789 15.2308 85.0789C13.9417 85.0789 12.8967 86.4468 12.8967 88.1342C12.8902 88.7889 13.0584 89.4334 13.3838 90.0014C13.0644 90.5719 12.8967 91.2148 12.8967 91.8686C12.8967 92.5224 13.0644 93.1653 13.3838 93.7358C13.0644 94.3063 12.8967 94.9492 12.8967 95.603C12.8967 96.2568 13.0644 96.8997 13.3838 97.4702C13.0644 98.0406 12.8967 98.6835 12.8967 99.3373C12.8967 99.9912 13.0644 100.634 13.3838 101.205C13.0584 101.773 12.8902 102.417 12.8967 103.072C12.8967 104.759 13.9417 106.127 15.2308 106.127C16.5199 106.127 17.565 104.759 17.565 103.072C17.5714 102.417 17.4033 101.773 17.0778 101.205C17.3972 100.634 17.565 99.9912 17.565 99.3373C17.565 98.6835 17.3972 98.0406 17.0778 97.4702C17.3972 96.8997 17.565 96.2568 17.565 95.603C17.565 94.9492 17.3972 94.3063 17.0778 93.7358C17.3972 93.1653 17.565 92.5224 17.565 91.8686C17.565 91.2148 17.3972 90.5719 17.0778 90.0014V90.0014Z" fill="#A7ACA2"/>
<path d="M15.2306 87.4553C16.5198 87.4553 17.5648 86.0873 17.5648 84.3999C17.5648 82.7124 16.5198 81.3445 15.2306 81.3445C13.9415 81.3445 12.8965 82.7124 12.8965 84.3999C12.8965 86.0873 13.9415 87.4553 15.2306 87.4553Z" fill="#A7ACA2"/>
<path d="M15.2306 83.721C16.5198 83.721 17.5648 82.3531 17.5648 80.6656C17.5648 78.9782 16.5198 77.6102 15.2306 77.6102C13.9415 77.6102 12.8965 78.9782 12.8965 80.6656C12.8965 82.3531 13.9415 83.721 15.2306 83.721Z" fill="#A7ACA2"/>
<path d="M23.9686 55.1101C24.2875 54.7041 24.5779 54.2766 24.8379 53.8306L18.7047 52.8234L25.3379 52.8727C25.9742 51.4884 26.3213 49.9887 26.358 48.4656C26.3948 46.9424 26.1203 45.4278 25.5514 44.0143L16.6521 48.6305L24.8593 42.5981C24.0904 41.2695 23.0562 40.1134 21.821 39.2019C20.5858 38.2905 19.1761 37.6431 17.6797 37.3001C16.1834 36.9571 14.6325 36.9259 13.1236 37.2084C11.6147 37.491 10.1801 38.0811 8.90922 38.9422C7.63836 39.8033 6.55843 40.9168 5.73672 42.2134C4.915 43.51 4.3691 44.9619 4.13302 46.4787C3.89694 47.9954 3.97573 49.5446 4.3645 51.0295C4.75327 52.5145 5.44368 53.9035 6.39272 55.1101C5.89566 55.7419 5.46815 56.4255 5.11761 57.1489L13.0789 61.2847L4.58994 58.4359C3.99389 60.1978 3.84658 62.0805 4.16136 63.9136C4.47613 65.7467 5.24306 67.4724 6.39272 68.9345C5.09553 70.5836 4.28859 72.5644 4.06415 74.6504C3.83972 76.7364 4.20684 78.8435 5.12356 80.7307C6.04028 82.618 7.46959 84.2092 9.24807 85.3224C11.0266 86.4357 13.0824 87.0261 15.1807 87.0261C17.2789 87.0261 19.3348 86.4357 21.1132 85.3224C22.8917 84.2092 24.321 82.618 25.2377 80.7307C26.1545 78.8435 26.5216 76.7364 26.2972 74.6504C26.0727 72.5644 25.2658 70.5836 23.9686 68.9345C25.5186 66.9639 26.3613 64.5295 26.3613 62.0223C26.3613 59.5152 25.5186 57.0808 23.9686 55.1101L23.9686 55.1101Z" fill="#F2F2F2"/>
<path d="M4.00001 62.0224C3.99615 64.5302 4.83926 66.9658 6.39273 68.9346C5.09554 70.5837 4.28859 72.5645 4.06416 74.6505C3.83972 76.7365 4.20685 78.8436 5.12356 80.7308C6.04028 82.6181 7.46959 84.2093 9.24807 85.3225C11.0266 86.4358 13.0824 87.0262 15.1807 87.0262C17.2789 87.0262 19.3348 86.4358 21.1132 85.3225C22.8917 84.2093 24.321 82.6181 25.2377 80.7308C26.1545 78.8436 26.5216 76.7365 26.2972 74.6505C26.0727 72.5645 25.2658 70.5837 23.9686 68.9346C25.4671 67.0324 4.00001 60.7676 4.00001 62.0224Z" fill="#F2F2F2"/>
<path d="M23.9686 55.1101C24.2875 54.7041 24.5779 54.2766 24.8379 53.8306L18.7047 52.8234L25.3379 52.8727C25.9742 51.4884 26.3213 49.9887 26.358 48.4656C26.3948 46.9424 26.1203 45.4278 25.5514 44.0143L16.6521 48.6305L24.8593 42.5981C24.0904 41.2695 23.0562 40.1134 21.821 39.2019C20.5858 38.2905 19.1761 37.6431 17.6797 37.3001C16.1834 36.9571 14.6325 36.9259 13.1236 37.2084C11.6147 37.491 10.1801 38.0811 8.90922 38.9422C7.63836 39.8033 6.55843 40.9168 5.73672 42.2134C4.915 43.51 4.3691 44.9619 4.13302 46.4787C3.89694 47.9954 3.97573 49.5446 4.3645 51.0295C4.75327 52.5145 5.44368 53.9035 6.39272 55.1101C5.89566 55.7419 5.46815 56.4255 5.11761 57.1489L13.0789 61.2847L4.58994 58.4359C3.99389 60.1978 3.84658 62.0805 4.16136 63.9136C4.47613 65.7467 5.24306 67.4724 6.39272 68.9345C5.09553 70.5836 4.28859 72.5644 4.06415 74.6504C3.83972 76.7364 4.20684 78.8435 5.12356 80.7307C6.04028 82.618 7.46959 84.2092 9.24807 85.3224C11.0266 86.4357 13.0824 87.0261 15.1807 87.0261C17.2789 87.0261 19.3348 86.4357 21.1132 85.3224C22.8917 84.2092 24.321 82.618 25.2377 80.7307C26.1545 78.8435 26.5216 76.7364 26.2972 74.6504C26.0727 72.5644 25.2658 70.5836 23.9686 68.9345C25.5186 66.9639 26.3613 64.5295 26.3613 62.0223C26.3613 59.5152 25.5186 57.0808 23.9686 55.1101L23.9686 55.1101Z" fill="#4A773C"/>
<path opacity="0.1" d="M4.00001 62.0224C3.99615 64.5302 4.83926 66.9658 6.39273 68.9346C5.09554 70.5837 4.28859 72.5645 4.06416 74.6505C3.83972 76.7365 4.20685 78.8436 5.12356 80.7308C6.04028 82.6181 7.46959 84.2093 9.24807 85.3225C11.0266 86.4358 13.0824 87.0262 15.1807 87.0262C17.2789 87.0262 19.3348 86.4358 21.1132 85.3225C22.8917 84.2093 24.321 82.6181 25.2377 80.7308C26.1545 78.8436 26.5216 76.7365 26.2972 74.6505C26.0727 72.5645 25.2658 70.5837 23.9686 68.9346C25.4671 67.0324 4.00001 60.7676 4.00001 62.0224Z" fill="black"/>
</g>
<path d="M297.713 135V126.808H300.169V135H297.713ZM298.945 125.104C298.679 125.104 298.433 125.04 298.209 124.912C297.991 124.779 297.815 124.6 297.681 124.376C297.548 124.152 297.481 123.907 297.481 123.64C297.481 123.373 297.548 123.131 297.681 122.912C297.815 122.693 297.991 122.52 298.209 122.392C298.433 122.259 298.679 122.192 298.945 122.192C299.212 122.192 299.455 122.259 299.673 122.392C299.892 122.52 300.065 122.693 300.193 122.912C300.327 123.131 300.393 123.373 300.393 123.64C300.393 123.907 300.327 124.152 300.193 124.376C300.065 124.6 299.892 124.779 299.673 124.912C299.455 125.04 299.212 125.104 298.945 125.104ZM303.065 135V126.808H305.521V127.72C305.836 127.368 306.228 127.085 306.697 126.872C307.172 126.659 307.695 126.552 308.265 126.552C308.895 126.552 309.447 126.691 309.921 126.968C310.401 127.24 310.777 127.621 311.049 128.112C311.321 128.597 311.457 129.165 311.457 129.816V135H309.001V130.336C309.001 129.749 308.847 129.293 308.537 128.968C308.233 128.637 307.815 128.472 307.281 128.472C306.919 128.472 306.604 128.547 306.337 128.696C306.076 128.84 305.873 129.04 305.729 129.296C305.591 129.547 305.521 129.832 305.521 130.152V135H303.065ZM317.582 135.256C316.841 135.256 316.164 135.072 315.55 134.704C314.942 134.331 314.457 133.816 314.094 133.16C313.732 132.504 313.55 131.752 313.55 130.904C313.55 130.072 313.726 129.331 314.078 128.68C314.43 128.024 314.913 127.507 315.526 127.128C316.145 126.744 316.852 126.552 317.646 126.552C318.222 126.552 318.756 126.664 319.246 126.888C319.737 127.107 320.145 127.413 320.47 127.808V121.24H322.926V135H320.47V133.92C320.108 134.341 319.678 134.669 319.182 134.904C318.686 135.139 318.153 135.256 317.582 135.256ZM318.318 133.168C318.75 133.168 319.132 133.072 319.462 132.88C319.793 132.683 320.052 132.413 320.238 132.072C320.43 131.731 320.526 131.344 320.526 130.912C320.526 130.475 320.43 130.085 320.238 129.744C320.052 129.403 319.793 129.133 319.462 128.936C319.132 128.739 318.753 128.64 318.326 128.64C317.905 128.64 317.529 128.739 317.198 128.936C316.873 129.133 316.614 129.405 316.422 129.752C316.23 130.093 316.134 130.483 316.134 130.92C316.134 131.352 316.228 131.739 316.414 132.08C316.601 132.416 316.86 132.683 317.19 132.88C317.521 133.072 317.897 133.168 318.318 133.168ZM329.895 135.256C328.994 135.256 328.181 135.072 327.455 134.704C326.73 134.331 326.154 133.819 325.727 133.168C325.301 132.512 325.087 131.757 325.087 130.904C325.087 130.051 325.298 129.299 325.719 128.648C326.146 127.992 326.722 127.48 327.447 127.112C328.178 126.739 328.994 126.552 329.895 126.552C330.802 126.552 331.618 126.739 332.343 127.112C333.069 127.48 333.642 127.992 334.063 128.648C334.49 129.299 334.703 130.051 334.703 130.904C334.703 131.757 334.49 132.512 334.063 133.168C333.642 133.819 333.069 134.331 332.343 134.704C331.618 135.072 330.802 135.256 329.895 135.256ZM329.903 133.16C330.319 133.16 330.698 133.064 331.039 132.872C331.381 132.68 331.65 132.416 331.847 132.08C332.045 131.739 332.143 131.347 332.143 130.904C332.143 130.461 332.045 130.072 331.847 129.736C331.65 129.395 331.381 129.128 331.039 128.936C330.698 128.744 330.319 128.648 329.903 128.648C329.482 128.648 329.101 128.744 328.759 128.936C328.423 129.128 328.157 129.395 327.959 129.736C327.762 130.072 327.663 130.461 327.663 130.904C327.663 131.347 327.762 131.739 327.959 132.08C328.157 132.416 328.423 132.68 328.759 132.872C329.101 133.064 329.482 133.16 329.903 133.16ZM340.958 135.256C340.056 135.256 339.243 135.072 338.518 134.704C337.792 134.331 337.216 133.819 336.79 133.168C336.363 132.512 336.15 131.757 336.15 130.904C336.15 130.051 336.36 129.299 336.782 128.648C337.208 127.992 337.784 127.48 338.51 127.112C339.24 126.739 340.056 126.552 340.958 126.552C341.864 126.552 342.68 126.739 343.406 127.112C344.131 127.48 344.704 127.992 345.126 128.648C345.552 129.299 345.766 130.051 345.766 130.904C345.766 131.757 345.552 132.512 345.126 133.168C344.704 133.819 344.131 134.331 343.406 134.704C342.68 135.072 341.864 135.256 340.958 135.256ZM340.966 133.16C341.382 133.16 341.76 133.064 342.102 132.872C342.443 132.68 342.712 132.416 342.91 132.08C343.107 131.739 343.206 131.347 343.206 130.904C343.206 130.461 343.107 130.072 342.91 129.736C342.712 129.395 342.443 129.128 342.102 128.936C341.76 128.744 341.382 128.648 340.966 128.648C340.544 128.648 340.163 128.744 339.822 128.936C339.486 129.128 339.219 129.395 339.022 129.736C338.824 130.072 338.726 130.461 338.726 130.904C338.726 131.347 338.824 131.739 339.022 132.08C339.219 132.416 339.486 132.68 339.822 132.872C340.163 133.064 340.544 133.16 340.966 133.16ZM347.909 135V126.808H350.365V127.984C350.669 127.525 351.04 127.173 351.477 126.928C351.92 126.677 352.394 126.552 352.901 126.552C353.189 126.552 353.488 126.595 353.797 126.68C354.106 126.765 354.365 126.875 354.573 127.008L353.549 129.08C353.368 128.957 353.154 128.861 352.909 128.792C352.669 128.717 352.445 128.68 352.237 128.68C351.917 128.68 351.613 128.763 351.325 128.928C351.037 129.093 350.805 129.309 350.629 129.576C350.453 129.837 350.365 130.12 350.365 130.424V135H347.909ZM360.253 135V121.24H362.709V135H360.253ZM365.588 135V126.808H368.044V135H365.588ZM366.82 125.104C366.554 125.104 366.308 125.04 366.084 124.912C365.866 124.779 365.69 124.6 365.556 124.376C365.423 124.152 365.356 123.907 365.356 123.64C365.356 123.373 365.423 123.131 365.556 122.912C365.69 122.693 365.866 122.52 366.084 122.392C366.308 122.259 366.554 122.192 366.82 122.192C367.087 122.192 367.33 122.259 367.548 122.392C367.767 122.52 367.94 122.693 368.068 122.912C368.202 123.131 368.268 123.373 368.268 123.64C368.268 123.907 368.202 124.152 368.068 124.376C367.94 124.6 367.767 124.779 367.548 124.912C367.33 125.04 367.087 125.104 366.82 125.104ZM374.884 139.4C373.78 139.4 372.852 139.197 372.1 138.792C371.348 138.392 370.802 137.8 370.46 137.016L372.46 136.04C372.684 136.419 373.015 136.72 373.452 136.944C373.89 137.168 374.364 137.28 374.876 137.28C375.34 137.28 375.748 137.187 376.1 137C376.452 136.819 376.727 136.56 376.924 136.224C377.122 135.893 377.22 135.509 377.22 135.072V133.92C376.858 134.341 376.428 134.669 375.932 134.904C375.436 135.139 374.903 135.256 374.332 135.256C373.591 135.256 372.914 135.072 372.3 134.704C371.692 134.331 371.207 133.816 370.844 133.16C370.482 132.504 370.3 131.752 370.3 130.904C370.3 130.072 370.476 129.331 370.828 128.68C371.186 128.024 371.671 127.507 372.284 127.128C372.903 126.744 373.607 126.552 374.396 126.552C374.972 126.552 375.506 126.664 375.996 126.888C376.487 127.107 376.895 127.413 377.22 127.808V126.808H379.676V135.224C379.676 136.029 379.5 136.747 379.148 137.376C378.802 138.005 378.274 138.499 377.564 138.856C376.855 139.219 375.962 139.4 374.884 139.4ZM375.068 133.168C375.5 133.168 375.882 133.072 376.212 132.88C376.548 132.683 376.81 132.416 376.996 132.08C377.183 131.739 377.276 131.352 377.276 130.92C377.276 130.477 377.18 130.085 376.988 129.744C376.802 129.403 376.543 129.133 376.212 128.936C375.882 128.739 375.506 128.64 375.084 128.64C374.663 128.64 374.287 128.739 373.956 128.936C373.626 129.133 373.364 129.405 373.172 129.752C372.98 130.093 372.884 130.483 372.884 130.92C372.884 131.352 372.978 131.739 373.164 132.08C373.351 132.416 373.61 132.683 373.94 132.88C374.271 133.072 374.647 133.168 375.068 133.168ZM382.565 135V121.24H385.021V127.72C385.336 127.368 385.728 127.085 386.197 126.872C386.672 126.659 387.195 126.552 387.765 126.552C388.395 126.552 388.947 126.691 389.421 126.968C389.901 127.24 390.277 127.621 390.549 128.112C390.821 128.597 390.957 129.165 390.957 129.816V135H388.501V130.336C388.501 129.749 388.347 129.293 388.037 128.968C387.733 128.637 387.315 128.472 386.781 128.472C386.419 128.472 386.104 128.547 385.837 128.696C385.576 128.84 385.373 129.04 385.229 129.296C385.091 129.547 385.021 129.832 385.021 130.152V135H382.565ZM396.42 135.256C395.604 135.256 394.97 134.997 394.516 134.48C394.063 133.957 393.836 133.229 393.836 132.296V128.672H392.74V126.808H393.836V123.736H396.292V126.808H398.092V128.672H396.292V132.12C396.292 132.429 396.354 132.664 396.476 132.824C396.604 132.984 396.783 133.064 397.012 133.064C397.268 133.064 397.514 132.979 397.748 132.808L398.364 134.776C398.087 134.925 397.775 135.043 397.428 135.128C397.087 135.213 396.751 135.256 396.42 135.256ZM408.216 135.256C407.464 135.256 406.778 135.069 406.16 134.696C405.546 134.317 405.058 133.8 404.696 133.144C404.338 132.483 404.16 131.731 404.16 130.888C404.16 130.067 404.333 129.331 404.68 128.68C405.026 128.024 405.504 127.507 406.112 127.128C406.725 126.744 407.426 126.552 408.216 126.552C408.797 126.552 409.338 126.664 409.84 126.888C410.346 127.107 410.76 127.413 411.08 127.808V126.808H413.536V135H411.08V133.92C410.706 134.352 410.277 134.683 409.792 134.912C409.306 135.141 408.781 135.256 408.216 135.256ZM408.944 133.168C409.37 133.168 409.749 133.072 410.08 132.88C410.41 132.683 410.669 132.413 410.856 132.072C411.042 131.731 411.136 131.341 411.136 130.904C411.136 130.461 411.04 130.072 410.848 129.736C410.661 129.395 410.402 129.128 410.072 128.936C409.746 128.739 409.37 128.64 408.944 128.64C408.522 128.64 408.146 128.739 407.816 128.936C407.485 129.128 407.224 129.395 407.032 129.736C406.84 130.077 406.744 130.467 406.744 130.904C406.744 131.341 406.837 131.731 407.024 132.072C407.216 132.413 407.477 132.683 407.808 132.88C408.138 133.072 408.517 133.168 408.944 133.168ZM416.425 135V126.808H418.881V127.72C419.195 127.368 419.587 127.085 420.057 126.872C420.531 126.659 421.054 126.552 421.625 126.552C422.254 126.552 422.806 126.691 423.281 126.968C423.761 127.24 424.137 127.621 424.409 128.112C424.681 128.597 424.817 129.165 424.817 129.816V135H422.361V130.336C422.361 129.749 422.206 129.293 421.897 128.968C421.593 128.637 421.174 128.472 420.641 128.472C420.278 128.472 419.963 128.547 419.697 128.696C419.435 128.84 419.233 129.04 419.089 129.296C418.95 129.547 418.881 129.832 418.881 130.152V135H416.425ZM430.942 135.256C430.2 135.256 429.523 135.072 428.91 134.704C428.302 134.331 427.816 133.816 427.454 133.16C427.091 132.504 426.91 131.752 426.91 130.904C426.91 130.072 427.086 129.331 427.438 128.68C427.79 128.024 428.272 127.507 428.886 127.128C429.504 126.744 430.211 126.552 431.006 126.552C431.582 126.552 432.115 126.664 432.606 126.888C433.096 127.107 433.504 127.413 433.83 127.808V121.24H436.286V135H433.83V133.92C433.467 134.341 433.038 134.669 432.542 134.904C432.046 135.139 431.512 135.256 430.942 135.256ZM431.678 133.168C432.11 133.168 432.491 133.072 432.822 132.88C433.152 132.683 433.411 132.413 433.598 132.072C433.79 131.731 433.886 131.344 433.886 130.912C433.886 130.475 433.79 130.085 433.598 129.744C433.411 129.403 433.152 129.133 432.822 128.936C432.491 128.739 432.112 128.64 431.686 128.64C431.264 128.64 430.888 128.739 430.558 128.936C430.232 129.133 429.974 129.405 429.782 129.752C429.59 130.093 429.494 130.483 429.494 130.92C429.494 131.352 429.587 131.739 429.774 132.08C429.96 132.416 430.219 132.683 430.55 132.88C430.88 133.072 431.256 133.168 431.678 133.168ZM298.231 153L293.927 144.808H296.823L299.055 149.752L301.287 144.808H304.183L299.871 153H298.231ZM305.518 153V144.808H307.974V153H305.518ZM306.75 143.104C306.483 143.104 306.238 143.04 306.014 142.912C305.795 142.779 305.619 142.6 305.486 142.376C305.353 142.152 305.286 141.907 305.286 141.64C305.286 141.373 305.353 141.131 305.486 140.912C305.619 140.693 305.795 140.52 306.014 140.392C306.238 140.259 306.483 140.192 306.75 140.192C307.017 140.192 307.259 140.259 307.478 140.392C307.697 140.52 307.87 140.693 307.998 140.912C308.131 141.131 308.198 141.373 308.198 141.64C308.198 141.907 308.131 142.152 307.998 142.376C307.87 142.6 307.697 142.779 307.478 142.912C307.259 143.04 307.017 143.104 306.75 143.104ZM313.19 153.256C312.497 153.256 311.875 153.147 311.326 152.928C310.782 152.709 310.329 152.389 309.966 151.968L310.998 150.32C311.339 150.683 311.697 150.96 312.07 151.152C312.443 151.344 312.817 151.44 313.19 151.44C313.398 151.44 313.577 151.405 313.726 151.336C313.881 151.267 314.001 151.168 314.086 151.04C314.177 150.907 314.222 150.747 314.222 150.56C314.222 150.347 314.161 150.179 314.038 150.056C313.921 149.933 313.739 149.821 313.494 149.72C313.249 149.613 312.931 149.48 312.542 149.32C312.211 149.181 311.894 149.024 311.59 148.848C311.286 148.672 311.038 148.448 310.846 148.176C310.659 147.904 310.566 147.56 310.566 147.144C310.566 146.637 310.707 146.192 310.99 145.808C311.273 145.419 311.662 145.115 312.158 144.896C312.659 144.677 313.235 144.568 313.886 144.568C314.291 144.568 314.715 144.629 315.158 144.752C315.606 144.875 316.083 145.061 316.59 145.312L315.75 146.888C315.062 146.445 314.446 146.224 313.902 146.224C313.598 146.224 313.355 146.291 313.174 146.424C312.993 146.557 312.902 146.725 312.902 146.928C312.902 147.12 312.995 147.288 313.182 147.432C313.374 147.571 313.606 147.696 313.878 147.808C314.155 147.915 314.419 148.013 314.67 148.104C315.081 148.253 315.443 148.419 315.758 148.6C316.078 148.781 316.329 149.019 316.51 149.312C316.691 149.6 316.782 149.987 316.782 150.472C316.782 151.064 316.638 151.568 316.35 151.984C316.067 152.395 315.657 152.709 315.118 152.928C314.585 153.147 313.942 153.256 313.19 153.256ZM323.073 153.256C321.58 153.256 320.503 152.96 319.841 152.368C319.18 151.776 318.849 150.808 318.849 149.464V144.808H321.305V148.888C321.305 149.752 321.439 150.363 321.705 150.72C321.977 151.077 322.433 151.256 323.073 151.256C323.724 151.256 324.18 151.077 324.441 150.72C324.708 150.363 324.841 149.752 324.841 148.888V144.808H327.297V149.464C327.297 150.808 326.967 151.776 326.305 152.368C325.649 152.96 324.572 153.256 323.073 153.256ZM333.411 153.256C332.659 153.256 331.974 153.069 331.355 152.696C330.742 152.317 330.254 151.8 329.891 151.144C329.534 150.483 329.355 149.731 329.355 148.888C329.355 148.067 329.528 147.331 329.875 146.68C330.222 146.024 330.699 145.507 331.307 145.128C331.92 144.744 332.622 144.552 333.411 144.552C333.992 144.552 334.534 144.664 335.035 144.888C335.542 145.107 335.955 145.413 336.275 145.808V144.808H338.731V153H336.275V151.92C335.902 152.352 335.472 152.683 334.987 152.912C334.502 153.141 333.976 153.256 333.411 153.256ZM334.139 151.168C334.566 151.168 334.944 151.072 335.275 150.88C335.606 150.683 335.864 150.413 336.051 150.072C336.238 149.731 336.331 149.341 336.331 148.904C336.331 148.461 336.235 148.072 336.043 147.736C335.856 147.395 335.598 147.128 335.267 146.936C334.942 146.739 334.566 146.64 334.139 146.64C333.718 146.64 333.342 146.739 333.011 146.936C332.68 147.128 332.419 147.395 332.227 147.736C332.035 148.077 331.939 148.467 331.939 148.904C331.939 149.341 332.032 149.731 332.219 150.072C332.411 150.413 332.672 150.683 333.003 150.88C333.334 151.072 333.712 151.168 334.139 151.168ZM341.62 153V139.24H344.076V153H341.62ZM355.108 153.256C354.484 153.256 353.895 153.144 353.34 152.92C352.791 152.696 352.305 152.387 351.884 151.992C351.463 151.592 351.132 151.131 350.892 150.608C350.652 150.08 350.532 149.515 350.532 148.912C350.532 148.331 350.644 147.779 350.868 147.256C351.097 146.733 351.417 146.269 351.828 145.864C352.244 145.459 352.729 145.139 353.284 144.904C353.844 144.669 354.449 144.552 355.1 144.552C355.628 144.552 356.135 144.627 356.62 144.776C357.111 144.925 357.505 145.117 357.804 145.352L356.964 147.008C356.564 146.715 356.068 146.568 355.476 146.568C354.969 146.568 354.54 146.68 354.188 146.904C353.836 147.128 353.567 147.419 353.38 147.776C353.199 148.133 353.108 148.509 353.108 148.904C353.108 149.336 353.207 149.731 353.404 150.088C353.601 150.44 353.879 150.72 354.236 150.928C354.599 151.136 355.017 151.24 355.492 151.24C355.785 151.24 356.06 151.2 356.316 151.12C356.572 151.04 356.788 150.933 356.964 150.8L357.804 152.456C357.5 152.685 357.108 152.875 356.628 153.024C356.148 153.179 355.641 153.256 355.108 153.256ZM363.872 153.256C362.97 153.256 362.157 153.072 361.432 152.704C360.706 152.331 360.13 151.819 359.704 151.168C359.277 150.512 359.064 149.757 359.064 148.904C359.064 148.051 359.274 147.299 359.696 146.648C360.122 145.992 360.698 145.48 361.424 145.112C362.154 144.739 362.97 144.552 363.872 144.552C364.778 144.552 365.594 144.739 366.32 145.112C367.045 145.48 367.618 145.992 368.04 146.648C368.466 147.299 368.68 148.051 368.68 148.904C368.68 149.757 368.466 150.512 368.04 151.168C367.618 151.819 367.045 152.331 366.32 152.704C365.594 153.072 364.778 153.256 363.872 153.256ZM363.88 151.16C364.296 151.16 364.674 151.064 365.016 150.872C365.357 150.68 365.626 150.416 365.824 150.08C366.021 149.739 366.12 149.347 366.12 148.904C366.12 148.461 366.021 148.072 365.824 147.736C365.626 147.395 365.357 147.128 365.016 146.936C364.674 146.744 364.296 146.648 363.88 146.648C363.458 146.648 363.077 146.744 362.736 146.936C362.4 147.128 362.133 147.395 361.936 147.736C361.738 148.072 361.64 148.461 361.64 148.904C361.64 149.347 361.738 149.739 361.936 150.08C362.133 150.416 362.4 150.68 362.736 150.872C363.077 151.064 363.458 151.16 363.88 151.16ZM370.823 153V144.808H373.279V145.72C373.594 145.368 373.986 145.085 374.455 144.872C374.93 144.659 375.452 144.552 376.023 144.552C376.652 144.552 377.204 144.691 377.679 144.968C378.159 145.24 378.535 145.621 378.807 146.112C379.079 146.597 379.215 147.165 379.215 147.816V153H376.759V148.336C376.759 147.749 376.604 147.293 376.295 146.968C375.991 146.637 375.572 146.472 375.039 146.472C374.676 146.472 374.362 146.547 374.095 146.696C373.834 146.84 373.631 147.04 373.487 147.296C373.348 147.547 373.279 147.832 373.279 148.152V153H370.823ZM385.34 153.256C384.599 153.256 383.921 153.072 383.308 152.704C382.7 152.331 382.215 151.816 381.852 151.16C381.489 150.504 381.308 149.752 381.308 148.904C381.308 148.072 381.484 147.331 381.836 146.68C382.188 146.024 382.671 145.507 383.284 145.128C383.903 144.744 384.609 144.552 385.404 144.552C385.98 144.552 386.513 144.664 387.004 144.888C387.495 145.107 387.903 145.413 388.228 145.808V139.24H390.684V153H388.228V151.92C387.865 152.341 387.436 152.669 386.94 152.904C386.444 153.139 385.911 153.256 385.34 153.256ZM386.076 151.168C386.508 151.168 386.889 151.072 387.22 150.88C387.551 150.683 387.809 150.413 387.996 150.072C388.188 149.731 388.284 149.344 388.284 148.912C388.284 148.475 388.188 148.085 387.996 147.744C387.809 147.403 387.551 147.133 387.22 146.936C386.889 146.739 386.511 146.64 386.084 146.64C385.663 146.64 385.287 146.739 384.956 146.936C384.631 147.133 384.372 147.405 384.18 147.752C383.988 148.093 383.892 148.483 383.892 148.92C383.892 149.352 383.985 149.739 384.172 150.08C384.359 150.416 384.617 150.683 384.948 150.88C385.279 151.072 385.655 151.168 386.076 151.168ZM393.565 153V144.808H396.021V153H393.565ZM394.797 143.104C394.53 143.104 394.285 143.04 394.061 142.912C393.842 142.779 393.666 142.6 393.533 142.376C393.4 142.152 393.333 141.907 393.333 141.64C393.333 141.373 393.4 141.131 393.533 140.912C393.666 140.693 393.842 140.52 394.061 140.392C394.285 140.259 394.53 140.192 394.797 140.192C395.064 140.192 395.306 140.259 395.525 140.392C395.744 140.52 395.917 140.693 396.045 140.912C396.178 141.131 396.245 141.373 396.245 141.64C396.245 141.907 396.178 142.152 396.045 142.376C395.917 142.6 395.744 142.779 395.525 142.912C395.306 143.04 395.064 143.104 394.797 143.104ZM401.741 153.256C400.925 153.256 400.29 152.997 399.837 152.48C399.383 151.957 399.157 151.229 399.157 150.296V146.672H398.061V144.808H399.157V141.736H401.613V144.808H403.413V146.672H401.613V150.12C401.613 150.429 401.674 150.664 401.797 150.824C401.925 150.984 402.103 151.064 402.333 151.064C402.589 151.064 402.834 150.979 403.069 150.808L403.685 152.776C403.407 152.925 403.095 153.043 402.749 153.128C402.407 153.213 402.071 153.256 401.741 153.256ZM405.799 153V144.808H408.255V153H405.799ZM407.031 143.104C406.765 143.104 406.519 143.04 406.295 142.912C406.077 142.779 405.901 142.6 405.767 142.376C405.634 142.152 405.567 141.907 405.567 141.64C405.567 141.373 405.634 141.131 405.767 140.912C405.901 140.693 406.077 140.52 406.295 140.392C406.519 140.259 406.765 140.192 407.031 140.192C407.298 140.192 407.541 140.259 407.759 140.392C407.978 140.52 408.151 140.693 408.279 140.912C408.413 141.131 408.479 141.373 408.479 141.64C408.479 141.907 408.413 142.152 408.279 142.376C408.151 142.6 407.978 142.779 407.759 142.912C407.541 143.04 407.298 143.104 407.031 143.104ZM415.231 153.256C414.33 153.256 413.516 153.072 412.791 152.704C412.066 152.331 411.49 151.819 411.063 151.168C410.636 150.512 410.423 149.757 410.423 148.904C410.423 148.051 410.634 147.299 411.055 146.648C411.482 145.992 412.058 145.48 412.783 145.112C413.514 144.739 414.33 144.552 415.231 144.552C416.138 144.552 416.954 144.739 417.679 145.112C418.404 145.48 418.978 145.992 419.399 146.648C419.826 147.299 420.039 148.051 420.039 148.904C420.039 149.757 419.826 150.512 419.399 151.168C418.978 151.819 418.404 152.331 417.679 152.704C416.954 153.072 416.138 153.256 415.231 153.256ZM415.239 151.16C415.655 151.16 416.034 151.064 416.375 150.872C416.716 150.68 416.986 150.416 417.183 150.08C417.38 149.739 417.479 149.347 417.479 148.904C417.479 148.461 417.38 148.072 417.183 147.736C416.986 147.395 416.716 147.128 416.375 146.936C416.034 146.744 415.655 146.648 415.239 146.648C414.818 146.648 414.436 146.744 414.095 146.936C413.759 147.128 413.492 147.395 413.295 147.736C413.098 148.072 412.999 148.461 412.999 148.904C412.999 149.347 413.098 149.739 413.295 150.08C413.492 150.416 413.759 150.68 414.095 150.872C414.436 151.064 414.818 151.16 415.239 151.16ZM422.182 153V144.808H424.638V145.72C424.953 145.368 425.345 145.085 425.814 144.872C426.289 144.659 426.812 144.552 427.382 144.552C428.012 144.552 428.564 144.691 429.038 144.968C429.518 145.24 429.894 145.621 430.166 146.112C430.438 146.597 430.574 147.165 430.574 147.816V153H428.118V148.336C428.118 147.749 427.964 147.293 427.654 146.968C427.35 146.637 426.932 146.472 426.398 146.472C426.036 146.472 425.721 146.547 425.454 146.696C425.193 146.84 424.99 147.04 424.846 147.296C424.708 147.547 424.638 147.832 424.638 148.152V153H422.182ZM435.549 153.256C434.856 153.256 434.235 153.147 433.685 152.928C433.141 152.709 432.688 152.389 432.325 151.968L433.357 150.32C433.699 150.683 434.056 150.96 434.429 151.152C434.803 151.344 435.176 151.44 435.549 151.44C435.757 151.44 435.936 151.405 436.085 151.336C436.24 151.267 436.36 151.168 436.445 151.04C436.536 150.907 436.581 150.747 436.581 150.56C436.581 150.347 436.52 150.179 436.397 150.056C436.28 149.933 436.099 149.821 435.853 149.72C435.608 149.613 435.291 149.48 434.901 149.32C434.571 149.181 434.253 149.024 433.949 148.848C433.645 148.672 433.397 148.448 433.205 148.176C433.019 147.904 432.925 147.56 432.925 147.144C432.925 146.637 433.067 146.192 433.349 145.808C433.632 145.419 434.021 145.115 434.517 144.896C435.019 144.677 435.595 144.568 436.245 144.568C436.651 144.568 437.075 144.629 437.517 144.752C437.965 144.875 438.443 145.061 438.949 145.312L438.109 146.888C437.421 146.445 436.805 146.224 436.261 146.224C435.957 146.224 435.715 146.291 435.533 146.424C435.352 146.557 435.261 146.725 435.261 146.928C435.261 147.12 435.355 147.288 435.541 147.432C435.733 147.571 435.965 147.696 436.237 147.808C436.515 147.915 436.779 148.013 437.029 148.104C437.44 148.253 437.803 148.419 438.117 148.6C438.437 148.781 438.688 149.019 438.869 149.312C439.051 149.6 439.141 149.987 439.141 150.472C439.141 151.064 438.997 151.568 438.709 151.984C438.427 152.395 438.016 152.709 437.477 152.928C436.944 153.147 436.301 153.256 435.549 153.256Z" fill="white"/>
<g clip-path="url(#clip1_317_3889)">
<path d="M361.169 98.9491C359.96 98.949 358.79 98.5202 357.868 97.7389C356.945 96.9577 356.33 95.8746 356.131 94.6823L356.129 94.6725L356.136 94.6648C356.462 94.2735 356.726 93.834 356.918 93.3618C356.69 93.6548 356.414 93.9073 356.102 94.1089L356.07 94.1303L356.068 94.0918C356.064 94.0072 356.062 93.9232 356.062 93.842C356.059 92.9736 356.279 92.1189 356.7 91.3597C357.122 90.6005 357.731 89.9621 358.47 89.5056C357.721 88.7237 357.157 87.7833 356.82 86.7539C356.484 85.7245 356.383 84.6325 356.526 83.559C356.668 82.4854 357.051 81.4577 357.645 80.552C358.239 79.6463 359.029 78.8859 359.956 78.327C360.884 77.7681 361.926 77.4251 363.004 77.3234C364.082 77.2217 365.169 77.3639 366.185 77.7395C367.201 78.1151 368.119 78.7144 368.872 79.4931C369.625 80.2717 370.193 81.2098 370.534 82.2378L370.54 82.2572L370.521 82.2648C370.086 82.4523 369.618 82.5509 369.145 82.5548C369.638 82.6944 370.149 82.7563 370.662 82.7382L370.679 82.7376L370.683 82.7547C370.827 83.3286 370.899 83.9178 370.899 84.5093C370.899 84.5306 370.899 84.552 370.898 84.5733C370.897 85.0332 370.993 85.4882 371.179 85.9087C371.365 86.3292 371.638 86.7057 371.979 87.0137C372.525 87.5101 372.957 88.1188 373.244 88.7979C373.532 89.477 373.67 90.2104 373.647 90.9476C373.624 91.6849 373.442 92.4085 373.113 93.0686C372.784 93.7288 372.316 94.3098 371.741 94.7718L371.731 94.7802L371.718 94.7747C370.963 94.4321 370.438 94.0497 370.079 93.5801C370.322 94.1713 370.675 94.7107 371.12 95.1692L371.139 95.1892L371.115 95.2033C370.352 95.6478 369.486 95.887 368.603 95.8976C367.72 95.9081 366.849 95.6895 366.075 95.2632C365.765 96.3247 365.119 97.2573 364.235 97.9216C363.35 98.5859 362.275 98.9463 361.169 98.9491V98.9491Z" fill="#4A773C"/>
<path d="M359.349 107.084C359.326 107.084 359.305 107.076 359.288 107.061C359.271 107.047 359.26 107.026 359.257 107.004C359.014 104.841 359 102.657 359.214 100.491C359.534 97.0724 360.562 92.149 363.644 88.1055C363.651 88.0957 363.66 88.0875 363.671 88.0813C363.681 88.0752 363.693 88.0711 363.705 88.0695C363.717 88.0678 363.729 88.0686 363.741 88.0717C363.753 88.0748 363.764 88.0802 363.774 88.0876C363.784 88.095 363.792 88.1042 363.798 88.1148C363.804 88.1254 363.808 88.1371 363.81 88.1492C363.811 88.1613 363.81 88.1736 363.807 88.1854C363.804 88.1972 363.799 88.2083 363.791 88.218C360.737 92.2265 359.717 97.1138 359.398 100.508C359.186 102.66 359.2 104.829 359.441 106.978C359.443 106.991 359.442 107.005 359.438 107.018C359.434 107.03 359.428 107.042 359.419 107.052C359.41 107.062 359.399 107.07 359.387 107.076C359.375 107.081 359.362 107.084 359.349 107.084V107.084Z" fill="#A7ACA2"/>
<path d="M360.889 93.452C360.87 93.4521 360.851 93.4459 360.835 93.4344C360.819 93.4228 360.807 93.4066 360.801 93.388C360.795 93.3693 360.795 93.3492 360.801 93.3306C360.807 93.312 360.819 93.2957 360.835 93.2842C361.713 92.6899 362.661 92.2072 363.658 91.8469C365.216 91.2767 367.584 90.7597 370.023 91.5358C370.046 91.5432 370.066 91.5597 370.077 91.5816C370.088 91.6034 370.091 91.6289 370.083 91.6523C370.076 91.6758 370.059 91.6953 370.037 91.7066C370.016 91.7179 369.99 91.72 369.967 91.7126C367.578 90.9524 365.252 91.4609 363.722 92.0212C362.741 92.3753 361.808 92.8499 360.944 93.4343C360.928 93.4458 360.909 93.452 360.889 93.452V93.452Z" fill="#A7ACA2"/>
<path d="M329.105 42.6566C334.088 42.6566 338.128 38.6171 338.128 33.6341C338.128 28.651 334.088 24.6115 329.105 24.6115C324.122 24.6115 320.083 28.651 320.083 33.6341C320.083 38.6171 324.122 42.6566 329.105 42.6566Z" fill="#FFB500"/>
<path d="M289.406 24.5777V107.419H327.1V24.5777L289.406 24.5777Z" fill="#8E9089"/>
<path d="M347.97 67.1179H346.974V65.7262C346.974 64.8032 346.621 63.9153 345.987 63.2441C345.353 62.573 344.487 62.1695 343.566 62.116V52.6818H342.764V62.1053H339.155V67.1179H326.323V107.419H354.794V73.942C354.794 73.0458 354.617 72.1584 354.274 71.3305C353.932 70.5026 353.429 69.7503 352.795 69.1166C352.161 68.4829 351.409 67.9803 350.581 67.6373C349.753 67.2944 348.866 67.1179 347.97 67.1179V67.1179Z" fill="#8E9089"/>
<path d="M402.914 38.2672V35.8514C402.913 34.9284 402.56 34.0405 401.927 33.3694C401.293 32.6983 400.427 32.2947 399.505 32.2413V22.807H398.703V32.2306H395.094V38.2456H378.052V107.419H415.746V51.8284C415.746 48.3561 414.416 45.0157 412.029 42.4936C409.643 39.9714 406.381 38.4591 402.914 38.2672Z" fill="#8E9089"/>
<path d="M389.28 48.0702H384.268V52.0802H389.28V48.0702Z" fill="white"/>
<path d="M397.5 48.0702H392.488V52.0802H397.5V48.0702Z" fill="white"/>
<path d="M405.721 48.0702H400.708V52.0802H405.721V48.0702Z" fill="white"/>
<path d="M389.28 58.2958H384.268V62.3058H389.28V58.2958Z" fill="white"/>
<path d="M397.5 58.2958H392.488V62.3058H397.5V58.2958Z" fill="white"/>
<path d="M405.721 58.2958H400.708V62.3058H405.721V58.2958Z" fill="white"/>
<path d="M389.28 68.5212H384.268V72.5313H389.28V68.5212Z" fill="white"/>
<path d="M397.5 68.5212H392.488V72.5313H397.5V68.5212Z" fill="white"/>
<path d="M405.721 68.5212H400.708V72.5313H405.721V68.5212Z" fill="white"/>
<path d="M389.28 78.7468H384.268V82.7569H389.28V78.7468Z" fill="white"/>
<path d="M397.5 78.7468H392.488V82.7569H397.5V78.7468Z" fill="white"/>
<path d="M405.721 78.7468H400.708V82.7569H405.721V78.7468Z" fill="white"/>
<path d="M389.28 88.9724H384.268V92.9824H389.28V88.9724Z" fill="white"/>
<path d="M397.5 88.9724H392.488V92.9824H397.5V88.9724Z" fill="white"/>
<path d="M405.721 88.9724H400.708V92.9824H405.721V88.9724Z" fill="white"/>
<path d="M389.28 99.198H384.268V103.208H389.28V99.198Z" fill="white"/>
<path d="M397.5 99.198H392.488V103.208H397.5V99.198Z" fill="white"/>
<path d="M405.721 99.198H400.708V103.208H405.721V99.198Z" fill="white"/>
<path d="M316.297 20H300.057V21.203H316.297V20Z" fill="white"/>
<path d="M316.297 27.4185H300.057V28.6215H316.297V27.4185Z" fill="white"/>
<path d="M316.297 34.837H300.057V36.04H316.297V34.837Z" fill="white"/>
<path d="M316.297 42.2556H300.057V43.4586H316.297V42.2556Z" fill="white"/>
<path d="M316.297 49.6742H300.057V50.8772H316.297V49.6742Z" fill="white"/>
<path d="M316.297 57.0928H300.057V58.2958H316.297V57.0928Z" fill="white"/>
<path d="M316.297 64.5112H300.057V65.7142H316.297V64.5112Z" fill="white"/>
<path d="M316.297 71.9298H300.057V73.1328H316.297V71.9298Z" fill="white"/>
<path d="M316.297 79.3484H300.057V80.5514H316.297V79.3484Z" fill="white"/>
<path d="M316.297 86.767H300.057V87.97H316.297V86.767Z" fill="white"/>
<path d="M316.297 94.1854H300.057V95.3884H316.297V94.1854Z" fill="white"/>
<path d="M334.844 72.5314H329.831V76.5414H334.844V72.5314Z" fill="white"/>
<path d="M343.064 72.5314H338.052V76.5414H343.064V72.5314Z" fill="white"/>
<path d="M351.285 72.5314H346.272V76.5414H351.285V72.5314Z" fill="white"/>
<path d="M334.944 82.7568H329.932V86.7669H334.944V82.7568Z" fill="white"/>
<path d="M343.165 82.7568H338.152V86.7669H343.165V82.7568Z" fill="white"/>
<path d="M351.385 82.7568H346.373V86.7669H351.385V82.7568Z" fill="white"/>
<path d="M335.044 92.9824H330.032V96.9924H335.044V92.9824Z" fill="white"/>
<path d="M343.265 92.9824H338.252V96.9924H343.265V92.9824Z" fill="white"/>
<path d="M351.486 92.9824H346.473V96.9924H351.486V92.9824Z" fill="white"/>
<path d="M290.706 97.4334C291.105 94.2296 293.09 91.073 296.146 90.0304C294.941 93.328 294.941 96.9455 296.147 100.243C296.616 101.513 297.27 102.876 296.829 104.156C296.554 104.953 295.882 105.562 295.13 105.943C294.379 106.324 293.545 106.506 292.722 106.684L292.56 106.818C291.252 103.866 290.308 100.637 290.706 97.4334Z" fill="#4A773C"/>
<path d="M296.176 90.091C294.397 92.0847 293.291 94.5884 293.016 97.2464C292.946 97.8175 292.967 98.3961 293.078 98.9607C293.203 99.5072 293.473 100.01 293.859 100.417C294.211 100.804 294.616 101.159 294.868 101.624C294.993 101.865 295.066 102.129 295.082 102.399C295.099 102.67 295.057 102.94 294.962 103.194C294.739 103.832 294.301 104.352 293.855 104.845C293.359 105.393 292.836 105.954 292.625 106.681C292.6 106.769 292.465 106.724 292.49 106.636C292.856 105.372 294.083 104.654 294.668 103.516C294.941 102.985 295.056 102.368 294.8 101.808C294.576 101.317 294.159 100.951 293.799 100.563C293.417 100.171 293.137 99.6918 292.983 99.1669C292.843 98.6097 292.8 98.033 292.855 97.4613C292.957 96.1723 293.261 94.9074 293.755 93.7129C294.313 92.3465 295.1 91.0854 296.082 89.9843C296.143 89.9162 296.237 90.0234 296.176 90.091H296.176Z" fill="white"/>
<path d="M293.054 96.3852C292.614 96.2785 292.227 96.0189 291.961 95.6529C291.695 95.2869 291.568 94.8382 291.602 94.3871C291.609 94.2958 291.752 94.3028 291.744 94.3942C291.712 94.8142 291.83 95.2321 292.079 95.5725C292.327 95.9128 292.689 96.1531 293.099 96.2501C293.188 96.2713 293.143 96.4063 293.054 96.3852H293.054Z" fill="white"/>
<path d="M293.655 100.245C294.449 99.7704 295.035 99.0143 295.296 98.1272C295.322 98.0392 295.457 98.0839 295.431 98.1718C295.158 99.0945 294.546 99.88 293.718 100.372C293.64 100.418 293.576 100.291 293.655 100.245V100.245Z" fill="white"/>
<path d="M294.445 92.4812C294.606 92.5579 294.784 92.5934 294.963 92.5843C295.142 92.5752 295.315 92.522 295.468 92.4292C295.546 92.3815 295.61 92.5089 295.532 92.5563C295.363 92.658 295.171 92.7166 294.974 92.727C294.776 92.7375 294.58 92.6995 294.4 92.6163C294.383 92.6099 294.368 92.597 294.36 92.5803C294.352 92.5636 294.35 92.5444 294.355 92.5264C294.361 92.5086 294.374 92.4938 294.391 92.4853C294.408 92.4769 294.427 92.4754 294.445 92.4812H294.445Z" fill="white"/>
<path d="M305.459 95.7528C305.411 95.784 305.363 95.8152 305.315 95.8476C304.672 96.2708 304.064 96.7455 303.497 97.2671C303.453 97.3067 303.408 97.3475 303.365 97.3884C302.013 98.6596 300.909 100.171 300.109 101.845C299.792 102.511 299.525 103.201 299.312 103.908C299.018 104.884 298.776 105.966 298.194 106.765C298.134 106.849 298.069 106.929 297.999 107.005H292.736C292.724 106.999 292.712 106.994 292.7 106.988L292.49 106.998C292.498 106.961 292.508 106.922 292.516 106.885C292.521 106.863 292.527 106.842 292.532 106.82C292.535 106.806 292.539 106.791 292.541 106.778C292.543 106.773 292.544 106.769 292.545 106.765C292.547 106.752 292.551 106.74 292.553 106.728C292.606 106.513 292.661 106.298 292.717 106.083C292.717 106.082 292.717 106.082 292.718 106.08C293.129 104.438 293.734 102.851 294.519 101.351C294.543 101.307 294.567 101.261 294.594 101.217C294.957 100.553 295.375 99.92 295.841 99.3242C296.098 98.9988 296.371 98.6865 296.659 98.3887C297.405 97.6206 298.268 96.9746 299.215 96.4745C301.103 95.4778 303.288 95.0959 305.306 95.7047C305.357 95.7203 305.408 95.7359 305.459 95.7528Z" fill="#4A773C"/>
<path d="M305.448 95.8196C302.826 96.3401 300.436 97.6733 298.616 99.6298C298.217 100.044 297.885 100.519 297.634 101.036C297.405 101.548 297.317 102.112 297.38 102.669C297.428 103.19 297.538 103.717 297.459 104.24C297.414 104.508 297.314 104.763 297.164 104.988C297.014 105.214 296.818 105.406 296.589 105.55C296.027 105.926 295.364 106.077 294.711 106.202C293.985 106.341 293.23 106.474 292.624 106.928C292.551 106.982 292.47 106.865 292.543 106.811C293.596 106.022 295.008 106.188 296.161 105.631C296.699 105.371 297.161 104.948 297.295 104.346C297.411 103.82 297.298 103.276 297.245 102.749C297.176 102.207 297.24 101.655 297.433 101.143C297.658 100.615 297.97 100.128 298.358 99.7045C299.215 98.7367 300.22 97.9097 301.334 97.2539C302.602 96.4984 303.989 95.9653 305.437 95.6777C305.526 95.6599 305.537 95.8019 305.447 95.8196H305.448Z" fill="white"/>
<path d="M299.165 98.9653C298.878 98.6154 298.725 98.1749 298.733 97.7225C298.741 97.2701 298.91 96.8353 299.209 96.4957C299.269 96.4272 299.379 96.5184 299.318 96.587C299.039 96.9027 298.882 97.3077 298.875 97.729C298.869 98.1503 299.013 98.56 299.282 98.8843C299.34 98.9548 299.223 99.0355 299.165 98.9653V98.9653Z" fill="white"/>
<path d="M297.321 102.408C298.241 102.508 299.164 102.257 299.907 101.706C299.98 101.652 300.061 101.769 299.988 101.823C299.214 102.395 298.252 102.654 297.296 102.548C297.204 102.538 297.23 102.398 297.321 102.408V102.408Z" fill="white"/>
<path d="M302.626 96.6855C302.709 96.8441 302.829 96.9795 302.977 97.0798C303.126 97.1801 303.296 97.2421 303.474 97.2601C303.565 97.2691 303.539 97.409 303.449 97.4001C303.252 97.3792 303.064 97.3106 302.9 97.2002C302.736 97.0897 302.602 96.9408 302.509 96.7665C302.499 96.7508 302.495 96.7319 302.498 96.7135C302.502 96.6951 302.512 96.6787 302.527 96.6675C302.542 96.6569 302.561 96.6528 302.58 96.6562C302.599 96.6595 302.615 96.6701 302.626 96.6855Z" fill="white"/>
<path d="M386.346 97.4334C386.744 94.2296 388.73 91.073 391.785 90.0304C390.58 93.328 390.58 96.9455 391.786 100.243C392.255 101.513 392.91 102.876 392.468 104.156C392.193 104.953 391.521 105.562 390.77 105.943C390.018 106.324 389.184 106.506 388.361 106.684L388.199 106.818C386.891 103.866 385.947 100.637 386.346 97.4334Z" fill="#4A773C"/>
<path d="M391.815 90.091C390.036 92.0847 388.93 94.5884 388.655 97.2464C388.585 97.8175 388.606 98.3961 388.717 98.9607C388.843 99.5072 389.112 100.01 389.498 100.417C389.85 100.804 390.255 101.159 390.507 101.624C390.632 101.865 390.705 102.129 390.722 102.399C390.738 102.67 390.697 102.94 390.601 103.194C390.378 103.832 389.94 104.352 389.494 104.845C388.998 105.393 388.475 105.954 388.264 106.681C388.239 106.769 388.104 106.724 388.129 106.636C388.496 105.372 389.722 104.654 390.308 103.516C390.581 102.985 390.695 102.368 390.439 101.808C390.215 101.317 389.798 100.951 389.438 100.563C389.056 100.171 388.776 99.6918 388.622 99.1669C388.483 98.6097 388.439 98.033 388.494 97.4613C388.596 96.1723 388.9 94.9074 389.395 93.7129C389.952 92.3465 390.739 91.0854 391.721 89.9843C391.782 89.9162 391.876 90.0234 391.815 90.091V90.091Z" fill="white"/>
<path d="M388.693 96.3852C388.254 96.2785 387.866 96.0189 387.6 95.6529C387.334 95.2869 387.207 94.8382 387.241 94.3871C387.249 94.2958 387.391 94.3028 387.383 94.3942C387.351 94.8142 387.469 95.2321 387.718 95.5725C387.966 95.9128 388.328 96.1531 388.738 96.2501C388.827 96.2713 388.782 96.4063 388.693 96.3852V96.3852Z" fill="white"/>
<path d="M389.294 100.245C390.088 99.7704 390.674 99.0143 390.935 98.1272C390.961 98.0392 391.096 98.0839 391.071 98.1718C390.797 99.0945 390.185 99.88 389.358 100.372C389.279 100.418 389.215 100.291 389.294 100.245V100.245Z" fill="white"/>
<path d="M390.084 92.4812C390.246 92.5579 390.424 92.5934 390.602 92.5843C390.781 92.5752 390.954 92.522 391.107 92.4292C391.186 92.3815 391.249 92.5089 391.171 92.5563C391.002 92.658 390.81 92.7166 390.613 92.727C390.416 92.7375 390.219 92.6995 390.039 92.6163C390.022 92.6099 390.007 92.597 389.999 92.5803C389.991 92.5636 389.989 92.5444 389.994 92.5264C390 92.5086 390.013 92.4938 390.03 92.4853C390.047 92.4769 390.066 92.4754 390.084 92.4812H390.084Z" fill="white"/>
<path d="M401.099 95.7528C401.051 95.784 401.003 95.8152 400.954 95.8476C400.311 96.2708 399.703 96.7455 399.136 97.2671C399.092 97.3067 399.047 97.3475 399.004 97.3884C397.653 98.6596 396.549 100.171 395.749 101.845C395.431 102.511 395.164 103.201 394.951 103.908C394.657 104.884 394.416 105.966 393.833 106.765C393.773 106.849 393.708 106.929 393.639 107.005H388.375C388.363 106.999 388.351 106.994 388.339 106.988L388.129 106.998C388.137 106.961 388.147 106.922 388.155 106.885C388.16 106.863 388.166 106.842 388.171 106.82C388.175 106.806 388.178 106.791 388.181 106.778C388.182 106.773 388.183 106.769 388.184 106.765C388.187 106.752 388.19 106.74 388.193 106.728C388.245 106.513 388.3 106.298 388.356 106.083C388.356 106.082 388.356 106.082 388.357 106.08C388.768 104.438 389.373 102.851 390.158 101.351C390.182 101.307 390.206 101.261 390.233 101.217C390.597 100.553 391.014 99.92 391.481 99.3242C391.737 98.9988 392.01 98.6865 392.298 98.3887C393.045 97.6206 393.907 96.9746 394.854 96.4745C396.742 95.4778 398.927 95.0959 400.945 95.7047C400.996 95.7203 401.047 95.7359 401.099 95.7528Z" fill="#4A773C"/>
<path d="M401.087 95.8196C398.466 96.3401 396.075 97.6733 394.255 99.6298C393.856 100.044 393.524 100.519 393.273 101.036C393.044 101.548 392.956 102.112 393.019 102.669C393.068 103.19 393.177 103.717 393.098 104.24C393.053 104.508 392.953 104.763 392.803 104.988C392.653 105.214 392.457 105.406 392.228 105.55C391.666 105.926 391.003 106.077 390.35 106.202C389.624 106.341 388.869 106.474 388.263 106.928C388.19 106.982 388.109 106.865 388.182 106.811C389.236 106.022 390.647 106.188 391.8 105.631C392.338 105.371 392.8 104.948 392.934 104.346C393.05 103.82 392.938 103.276 392.884 102.749C392.815 102.207 392.879 101.655 393.072 101.143C393.297 100.615 393.609 100.128 393.997 99.7045C394.855 98.7367 395.859 97.9097 396.973 97.2539C398.241 96.4984 399.628 95.9653 401.076 95.6777C401.165 95.6599 401.176 95.8019 401.087 95.8196H401.087Z" fill="white"/>
<path d="M394.804 98.9653C394.517 98.6154 394.364 98.1749 394.372 97.7225C394.38 97.2701 394.549 96.8353 394.848 96.4957C394.909 96.4272 395.018 96.5184 394.957 96.587C394.678 96.9027 394.521 97.3077 394.515 97.729C394.508 98.1503 394.652 98.56 394.921 98.8843C394.98 98.9548 394.862 99.0355 394.804 98.9653V98.9653Z" fill="white"/>
<path d="M392.96 102.408C393.88 102.508 394.803 102.257 395.546 101.706C395.619 101.652 395.7 101.769 395.627 101.823C394.853 102.395 393.891 102.654 392.935 102.548C392.844 102.538 392.869 102.398 392.96 102.408V102.408Z" fill="white"/>
<path d="M398.265 96.6855C398.348 96.8441 398.469 96.9795 398.617 97.0798C398.765 97.1801 398.935 97.2421 399.113 97.2601C399.204 97.2691 399.178 97.409 399.088 97.4001C398.891 97.3792 398.703 97.3106 398.539 97.2002C398.375 97.0897 398.241 96.9408 398.148 96.7665C398.138 96.7508 398.134 96.7319 398.137 96.7135C398.141 96.6951 398.151 96.6787 398.166 96.6675C398.182 96.6569 398.201 96.6528 398.219 96.6562C398.238 96.6595 398.254 96.6701 398.265 96.6855V96.6855Z" fill="white"/>
<path d="M341.384 36.6321C340.965 36.3365 340.507 36.0282 339.994 36.0405C338.754 36.0703 338.085 37.8888 336.846 37.8249C336.056 37.7841 335.531 36.9813 334.795 36.6902C333.837 36.3112 332.618 37.0524 332.514 38.0772L332.637 37.9646C336.361 38.8724 340.225 39.051 344.016 38.4904C343.139 37.871 342.261 37.2515 341.384 36.6321Z" fill="#B8DDE1"/>
<path d="M424.592 33.2236C424.173 32.9279 423.715 32.6196 423.202 32.6319C421.962 32.6618 421.293 34.4802 420.054 34.4163C419.264 34.3755 418.739 33.5727 418.003 33.2816C417.045 32.9027 415.826 33.6438 415.722 34.6687L415.845 34.5561C419.569 35.4639 423.433 35.6424 427.224 35.0818C426.347 34.4624 425.469 33.843 424.592 33.2236Z" fill="#B8DDE1"/>
<path d="M378.878 44.8526C378.459 44.557 378.001 44.2487 377.488 44.261C376.248 44.2908 375.579 46.1093 374.34 46.0453C373.549 46.0045 373.025 45.2017 372.289 44.9106C371.331 44.5317 370.112 45.2728 370.007 46.2977L370.13 46.1851C373.854 47.0929 377.718 47.2714 381.51 46.7108C380.633 46.0914 379.755 45.472 378.878 44.8526Z" fill="#B8DDE1"/>
<path d="M353.63 23.812C353.211 23.5163 352.752 23.208 352.24 23.2203C351 23.2502 350.331 25.0686 349.092 25.0047C348.301 24.9639 347.777 24.1611 347.041 23.87C346.083 23.4911 344.864 24.2322 344.759 25.2571L344.882 25.1445C348.606 26.0523 352.47 26.2308 356.262 25.6702C355.385 25.0508 354.507 24.4314 353.63 23.812Z" fill="#F0F0F0"/>
<path d="M374.555 78.4554C374.566 78.4487 374.575 78.4394 374.581 78.4285C374.587 78.4176 374.591 78.4053 374.591 78.3927C374.581 78.4019 374.571 78.4116 374.56 78.4205C374.558 78.4323 374.558 78.4434 374.555 78.4554Z" fill="#171717"/>
<path d="M287 20V107.619H447V20H287ZM439.381 100H294.619V27.619H439.381V100Z" fill="white"/>
<path opacity="0.5" d="M324.682 99.9182L328.356 107.537H293.897L294.569 27.5373H349.085C349.085 27.5373 335.119 57.6446 312.213 74.0536L324.682 99.9182Z" fill="#D0CDE1"/>
<path d="M314.82 71.447H292.364V75.2565H314.82V71.447Z" fill="white"/>
<path opacity="0.5" d="M409.248 100L405.575 107.619H440.033L439.361 27.619H384.845C384.845 27.619 398.812 57.7263 421.717 74.1353L409.248 100Z" fill="#D0CDE1"/>
<path d="M442.168 71.5288H419.712V75.3383H442.168V71.5288Z" fill="white"/>
</g>
<path d="M187 79L197 84.7735V73.2265L187 79ZM247 79L237 73.2265V84.7735L247 79ZM196 80H238V78H196V80Z" fill="white"/>
<defs>
<clipPath id="clip0_317_3889">
<rect width="140" height="111.149" fill="white" transform="translate(4)"/>
</clipPath>
<clipPath id="clip1_317_3889">
<rect width="160" height="87.619" fill="white" transform="translate(287 20)"/>
</clipPath>
</defs>
</svg>
