<svg width="676" height="676" viewBox="0 0 676 676" fill="none" xmlns="http://www.w3.org/2000/svg">
<g clip-path="url(#clip0_331_6321)">
<path d="M676 338C676.053 381.42 667.717 424.442 651.45 464.7C651.41 464.79 651.38 464.87 651.34 464.96V464.97C640.406 491.927 626.023 517.352 608.55 540.61C605.18 545.11 601.703 549.517 598.12 553.83C596.81 555.41 595.48 556.98 594.15 558.53C587.3 566.48 580.093 574.097 572.53 581.38C570.77 583.08 568.99 584.76 567.19 586.42C566.77 586.81 566.35 587.19 565.93 587.58C557.121 595.63 547.891 603.207 538.28 610.28C531.83 615.05 525.21 619.58 518.42 623.87C516.93 624.82 515.43 625.753 513.92 626.67C511.3 628.27 508.657 629.833 505.99 631.36C502.51 633.36 498.987 635.297 495.42 637.17C493.98 637.94 492.53 638.68 491.08 639.42C488.96 640.51 486.83 641.56 484.68 642.59C484.31 642.77 483.94 642.95 483.57 643.12C482.17 643.8 480.75 644.46 479.33 645.12C460.836 653.65 441.603 660.475 421.87 665.51C421.76 665.54 421.66 665.56 421.55 665.59C420.26 665.92 418.96 666.24 417.66 666.55C416.69 666.79 415.71 667.02 414.73 667.24C414.609 667.279 414.485 667.31 414.36 667.33C412.35 667.8 410.34 668.25 408.31 668.66C407.17 668.9 406.03 669.14 404.89 669.37C404.2 669.52 403.5 669.65 402.81 669.78C401.94 669.95 401.08 670.11 400.21 670.28C399.73 670.38 399.25 670.46 398.76 670.54C397.66 670.74 396.56 670.94 395.47 671.13C393.61 671.45 391.73 671.76 389.86 672.04C388.5 672.25 387.15 672.45 385.79 672.64C384.19 672.87 382.59 673.08 380.98 673.28C380.54 673.35 380.1 673.4 379.66 673.45C379.09 673.52 378.52 673.59 377.95 673.66C376.8 673.8 375.65 673.93 374.49 674.05C373.89 674.12 373.3 674.18 372.7 674.24C371.56 674.36 370.42 674.47 369.28 674.57C367.81 674.71 366.34 674.83 364.86 674.95C363.06 675.09 361.27 675.22 359.46 675.33C358.3 675.4 357.14 675.47 355.97 675.53C352.99 675.69 350.01 675.8 347.01 675.88C345.52 675.92 344.02 675.95 342.52 675.97H342.49C341 675.99 339.5 676 338 676C322.799 676.006 307.615 674.991 292.55 672.96C281.5 671.48 270.627 669.473 259.93 666.94C259.5 666.84 259.07 666.74 258.65 666.63C257.57 666.38 256.5 666.11 255.43 665.84C254.48 665.6 253.54 665.35 252.59 665.1C228.106 658.729 204.422 649.607 181.99 637.91C181.88 637.85 181.76 637.79 181.65 637.73C181 637.39 180.36 637.06 179.72 636.71C178.31 635.97 176.907 635.217 175.51 634.45C167.56 630.08 159.813 625.407 152.27 620.43C150.33 619.16 148.41 617.87 146.51 616.56C145.9 616.14 145.3 615.72 144.7 615.3C144.07 614.86 143.44 614.42 142.82 613.98C141.17 612.81 139.53 611.627 137.9 610.43C131.15 605.47 124.6 600.267 118.25 594.82C95.7425 575.544 75.8537 553.406 59.09 528.97C53.24 520.45 47.7799 511.657 42.7099 502.59C14.613 452.29 -0.0935106 395.616 -4.55475e-05 338C-4.55475e-05 151.33 151.33 0 338 0C524.67 0 676 151.33 676 338Z" fill="#F0F0F0"/>
<path d="M439.96 536.27L441.18 536.9C441.06 538.2 440.77 539 439.96 536.27Z" fill="#2F2E41"/>
<path d="M441.57 536.69C441.58 536.83 441.6 536.98 441.61 537.12L441.18 536.9C441.19 536.77 441.2 536.63 441.22 536.49C441.32 534.74 441.2 532.67 441.57 536.69Z" fill="#2F2E41"/>
<path d="M311.683 488.85C402.373 488.85 475.892 415.331 475.892 324.641C475.892 233.951 402.373 160.432 311.683 160.432C220.993 160.432 147.474 233.951 147.474 324.641C147.474 415.331 220.993 488.85 311.683 488.85Z" fill="#2F2E41"/>
<path d="M325.2 482.157C380.122 482.157 424.645 437.634 424.645 382.713C424.645 327.791 380.122 283.268 325.2 283.268C270.279 283.268 225.756 327.791 225.756 382.713C225.756 437.634 270.279 482.157 325.2 482.157Z" fill="#D0CDE1"/>
<path d="M552.27 573.31L552.15 573.34L529.02 578.89L480.86 590.45L474.29 592.03L401.05 609.6L394.83 611.1L217.14 653.74C205.128 649.145 193.392 643.86 181.99 637.91C181.88 637.85 181.76 637.79 181.65 637.73C181 637.39 180.36 637.06 179.72 636.71C178.31 635.97 176.907 635.217 175.51 634.45C167.56 630.08 159.813 625.407 152.27 620.43C150.33 619.16 148.41 617.87 146.51 616.56C145.9 616.14 145.3 615.72 144.7 615.3C144.07 614.86 143.44 614.42 142.82 613.98C141.17 612.81 139.53 611.627 137.9 610.43C155.16 579.06 196.26 558.21 237.36 546.8C268.38 538.18 275.2 509.85 274.61 484.64C274.46 478.89 273.972 473.153 273.15 467.46C271.897 458.399 269.903 449.456 267.19 440.72L366.64 444.04L376.9 467.68C376.619 470.277 376.529 472.89 376.63 475.5C377.41 494.89 389.38 507.43 404.15 515.52C406.07 516.57 408.04 517.55 410.04 518.46C434.26 529.47 462.77 530.22 462.77 530.22C471.451 529.26 480.221 529.425 488.86 530.71C490.96 531.03 493 531.413 494.98 531.86C506.54 534.444 517.461 539.331 527.09 546.23C530.768 548.846 534.247 551.731 537.5 554.86C543.281 560.271 548.256 566.484 552.27 573.31Z" fill="#D0CDE1"/>
<path d="M567.19 586.42C566.77 586.81 566.35 587.19 565.93 587.58C557.121 595.63 547.891 603.207 538.28 610.28C531.83 615.05 525.21 619.58 518.42 623.87C516.93 624.82 515.43 625.753 513.92 626.67C511.3 628.27 508.656 629.833 505.99 631.36C502.51 633.36 498.986 635.297 495.42 637.17C493.98 637.94 492.53 638.68 491.08 639.42C488.96 640.51 486.83 641.56 484.68 642.59C484.31 642.77 483.94 642.95 483.57 643.12L479.34 639.61L529.02 578.89L539.01 566.68C539.01 566.68 543 566.68 552.15 573.34C557.207 577.104 561.986 581.228 566.45 585.68C566.69 585.93 566.94 586.17 567.19 586.42Z" fill="#D0CDE1"/>
<path d="M566.49 585.74C566.356 586.368 566.168 586.984 565.93 587.58C557.121 595.63 547.891 603.207 538.28 610.28C529.941 613.286 521.29 615.342 512.49 616.41C512.49 616.41 513.24 620.17 513.92 626.67C511.3 628.27 508.657 629.833 505.99 631.36C502.51 633.36 498.987 635.297 495.42 637.17C493.98 637.94 492.53 638.68 491.08 639.42C488.96 640.51 486.83 641.56 484.68 642.59C484.31 642.77 483.94 642.95 483.57 643.12C482.17 643.8 480.75 644.46 479.33 645.12C460.837 653.65 441.604 660.475 421.87 665.51C421.76 665.54 421.66 665.56 421.55 665.59C420.26 665.92 418.96 666.24 417.66 666.55C416.69 666.79 415.71 667.02 414.73 667.24C414.609 667.279 414.486 667.309 414.36 667.33C412.35 667.8 410.34 668.25 408.31 668.66C407.17 668.9 406.03 669.14 404.89 669.37C404.2 669.52 403.5 669.65 402.81 669.78C401.94 669.95 401.08 670.11 400.21 670.28C399.73 670.38 399.25 670.46 398.76 670.54C397.66 670.74 396.56 670.94 395.47 671.13C393.61 671.45 391.73 671.76 389.86 672.04C388.5 672.25 387.15 672.45 385.79 672.64C384.19 672.87 382.59 673.08 380.98 673.28C380.54 673.35 380.1 673.4 379.66 673.45C379.09 673.52 378.52 673.59 377.95 673.66C376.8 673.8 375.65 673.93 374.49 674.05C373.89 674.12 373.3 674.18 372.7 674.24C371.56 674.36 370.42 674.47 369.28 674.57C367.81 674.71 366.34 674.83 364.86 674.95C363.06 675.09 361.27 675.22 359.46 675.33C358.3 675.4 357.14 675.47 355.97 675.53C352.99 675.69 350.01 675.8 347.01 675.88C345.52 675.92 344.02 675.95 342.52 675.97H342.49C341 675.99 339.5 676 338 676C322.799 676.006 307.615 674.991 292.55 672.96C281.5 671.48 270.627 669.473 259.93 666.94C259.5 666.84 259.07 666.74 258.65 666.63C257.57 666.38 256.5 666.11 255.43 665.84C254.48 665.6 253.54 665.35 252.59 665.1C228.107 658.729 204.423 649.607 181.99 637.91C181.88 637.85 181.76 637.79 181.65 637.73C181 637.39 180.36 637.06 179.72 636.71C234.61 623.92 321.35 603.75 396.62 586.47C398.73 585.99 400.827 585.51 402.91 585.03C430.71 578.65 456.75 572.71 478.78 567.74C481.06 567.23 483.294 566.73 485.48 566.24C509.15 560.92 527.53 556.88 537.5 554.86C540.188 554.246 542.904 553.769 545.64 553.43L566.45 585.68L566.49 585.74Z" fill="#93C5FD"/>
<path d="M311.683 247.777C253.796 247.777 206.869 275.151 206.869 308.919C206.869 324.028 216.301 337.836 231.872 348.504L252.05 333.884L246.562 356.788C248.839 357.844 251.164 358.865 253.589 359.809L283.732 324.641V367.845C292.976 369.325 302.322 370.066 311.683 370.06C369.57 370.06 416.497 342.686 416.497 308.919C416.497 275.151 369.57 247.777 311.683 247.777Z" fill="#2F2E41"/>
<path d="M232.775 421.754C237.182 420.52 238.355 410.945 235.393 400.368C232.432 389.79 226.459 382.215 222.052 383.449C217.644 384.683 216.472 394.258 219.433 404.836C222.394 415.413 228.368 422.988 232.775 421.754Z" fill="#D0CDE1"/>
<path d="M434.573 386.537C435.249 375.573 432.093 366.458 427.525 366.176C422.956 365.895 418.706 374.555 418.031 385.518C417.355 396.482 420.511 405.597 425.079 405.879C429.648 406.16 433.898 397.501 434.573 386.537Z" fill="#D0CDE1"/>
</g>
<defs>
<clipPath id="clip0_331_6321">
<rect width="676" height="676" fill="white"/>
</clipPath>
</defs>
</svg>
