<svg width="264" height="591" viewBox="0 0 264 591" fill="none" xmlns="http://www.w3.org/2000/svg">
<g clip-path="url(#clip0_320_6303)">
<path d="M204.169 394.62C208.319 415.687 189.743 438.145 168.27 438.017C154.009 437.933 139.819 440.256 125.557 440.258C111.295 440.26 96.3948 437.649 85.1061 428.933C73.8175 420.217 67.3413 404.185 72.9997 391.094C43.4188 442.988 24.757 500.381 18.16 559.748C17.9105 562.008 18.508 564.279 19.8369 566.123C21.1657 567.968 23.1315 569.253 25.3537 569.732C27.5759 570.21 29.8965 569.847 31.8665 568.713C33.8366 567.579 35.3159 565.755 36.0183 563.593L75.4794 442.135C69.4897 448.883 77.4414 459.451 85.9446 462.468C94.4479 465.485 104.719 465.955 110.404 472.961C131.727 499.241 175.097 503.663 201.286 482.229C227.475 460.794 231.713 417.405 204.169 394.62Z" fill="#93C5FD"/>
<path d="M111.923 155.284C106.094 155.429 106.109 163.968 111.923 164.129C117.752 163.984 117.736 155.445 111.923 155.284Z" fill="white"/>
<path d="M195.75 153.975C189.921 154.119 189.936 162.658 195.75 162.819C201.579 162.674 201.563 154.135 195.75 153.975Z" fill="white"/>
<path d="M91.6206 115.828C98.2719 116.464 104.982 116.025 111.494 114.527C104.841 114.024 98.1509 114.463 91.6206 115.828V115.828Z" fill="white"/>
<path d="M172.828 112.554C182.215 114.044 193.648 114.557 202.163 113.107C192.512 111.034 182.551 110.846 172.828 112.554Z" fill="white"/>
<path d="M155.801 200.31C151.474 204.828 147.496 210.975 150.441 217.314C149.581 211.075 153.348 205.731 155.801 200.31Z" fill="white"/>
<path d="M189.279 229.286C186.874 233.052 183.998 236.496 180.72 239.534C170.638 248.514 158.563 253.215 144.41 252.364C137.373 252.06 130.533 249.635 123.71 247.463C129.799 251.263 136.094 255.011 143.207 256.48C160.159 260.247 175.735 253.597 185.185 239.127C187.25 235.678 188.867 231.978 189.995 228.119C189.756 228.507 189.52 228.898 189.279 229.286Z" fill="white"/>
<path d="M243.272 198.438C243.223 198.102 243.173 197.766 243.125 197.431C243.014 199.714 242.858 201.993 242.673 204.271C242.061 211.45 241.261 218.584 240.416 224.263C236.797 254.033 230.394 267.216 210.095 286.845C200.272 296.665 190.258 302.39 176.162 309.177C169.881 312.139 157.65 315.591 149.456 315.299C141.87 315.252 137.175 313.909 128.137 311.692C114.175 307.226 102.576 302.641 89.6698 292.844C87.1527 290.725 84.7322 288.506 82.4246 286.16C78.8517 282.561 75.4812 278.767 72.3287 274.794C69.1645 270.683 66.6982 266.078 65.0285 261.166C59.7012 244.195 56.6553 231.424 56.641 215.59C56.6588 207.456 57.2394 199.231 60.8404 191.796C56.813 197.912 54.3046 204.902 53.5242 212.183C50.9054 226.197 52.47 240.548 55.3072 254.403C56.7164 260.71 58.417 267.046 61.4259 272.799C64.8114 278.597 68.8657 283.977 73.5055 288.83C85.494 302.696 101.476 311.434 118.494 317.655C142.787 326.479 160.198 326.1 180.754 317.031C178.94 325.72 177.422 334.472 176.474 343.299C175.425 355.272 175.015 367.293 175.247 379.31C180.686 360.221 182.249 337.495 182.188 316.391C185.964 314.663 189.851 312.651 193.914 310.349C204.696 304.591 214.075 296.56 222.429 287.699C235.383 275.019 243.847 259.621 244.819 241.283C245.722 226.985 245.204 212.633 243.272 198.438Z" fill="white"/>
<path d="M263.277 113.826C263.437 110.841 263.999 107.876 263.145 104.936C261.983 99.942 261.389 99.3066 259.448 94.1535C258.077 90.611 256.317 87.1519 255.476 83.4337C256.099 81.7761 257.808 76.8924 257.61 72.4397C257.043 66.07 255.966 65.3165 258.271 59.0632C259.07 54.8946 259.746 50.269 257.774 46.3297C252.744 38.3149 243.427 34.5847 236.125 29.0286C221.931 17.3757 234.79 17.3132 205.66 14.6595C200.022 13.9513 196.881 14.038 194.466 12.5913C194.433 12.5728 194.417 12.563 194.389 12.5466C190.768 9.44058 186.451 7.25427 181.805 6.17336C175.486 5.0306 169.012 5.27197 162.651 4.45674C161.539 4.34299 160.437 4.15082 159.352 3.88165C158.283 3.72199 157.252 3.36545 156.312 2.83012C152.384 0.0260584 147.263 -0.504972 142.611 0.412958C131.971 3.84029 121.442 12.0705 113.166 14.3754C112.579 14.5525 111.983 14.6955 111.38 14.8034C111.154 14.8195 110.928 14.8217 110.703 14.8099C110.386 14.7496 110.073 14.6689 109.766 14.5686C106.24 12.8607 102.349 12.0433 98.4338 12.1877C93.1159 12.1391 88.0942 14.5447 84.1561 18.0091C79.5357 22.2149 76.8968 28.0603 74.7023 33.7982C69.4163 47.5184 70.1156 62.671 73.2273 76.8214C73.3542 77.3594 73.7652 79.4708 73.952 80.3629C71.934 82.8035 70.9674 84.4395 67.7359 90.0271C62.2057 98.7214 58.9717 108.042 56.2419 117.927C55.8267 119.237 55.933 120.656 56.5385 121.889C56.5351 121.976 56.5427 122.064 56.5612 122.149C56.5626 122.71 56.4917 123.269 56.3501 123.812C55.4089 127.301 54.679 130.843 54.1642 134.42C53.8457 137.202 53.3432 140.217 54.4589 142.874C57.0149 146.389 61.356 142.422 64.137 141.101C61.6145 141.884 56.4503 145.09 55.6125 141.795C55.4157 135.739 58.3908 130.103 60.2459 124.472C60.6611 123.293 60.8106 122.036 60.6839 120.792C60.6632 120.498 60.5714 120.214 60.4165 119.964C61.8817 115.06 63.4741 112.405 65.7143 107.194C67.2506 102.827 69.2724 99.9253 72.5174 94.9927C73.6475 93.3085 74.7478 91.6022 75.8679 89.9099C71.8656 103.459 68.6488 117.227 66.2336 131.146C63.3017 151.271 62.0801 171.606 60.2335 191.849C67.1038 168.825 71.4038 145.153 74.4831 121.349C75.5319 113.332 77.6444 98.8452 78.7591 85.8147C80.0508 84.5013 81.5914 83.2383 81.5315 81.2189C81.5069 76.9479 79.921 72.8098 79.4312 68.5711C78.6948 63.672 78.3975 58.7169 78.5429 53.7649C78.5613 51.8342 78.7858 49.9181 78.9947 48.001C81.0899 36.983 84.1207 28.1654 90.3912 22.7008C91.7756 21.5364 93.3783 20.6598 95.1055 20.1223C96.8327 19.5847 98.6498 19.3969 100.45 19.5699C105.148 19.8707 103.098 19.6949 108.122 21.523C112.242 22.6426 116.279 20.7263 119.973 19.0742C125.738 16.3994 131.242 13.2141 136.846 10.2238C142.388 7.53807 142.576 6.72784 147.772 6.96946C147.876 6.97937 147.979 6.99381 148.082 7.00535C148.698 7.09043 149.307 7.2162 149.907 7.3818C150.144 7.4448 150.374 7.5293 150.604 7.61404C150.133 7.43814 149.847 7.2175 150.605 7.61419C150.677 7.64104 150.753 7.65872 150.825 7.6876C150.75 7.66581 150.676 7.64059 150.605 7.61425L150.66 7.64272C153.727 9.75237 157.294 11.0217 161.004 11.3244C169.313 12.4385 179.398 12.1797 182.647 13.9933C184.414 14.8502 186.11 15.8465 187.718 16.9727C188.747 17.9961 189.903 18.8844 191.156 19.616C194.745 21.5225 198.94 21.1932 202.856 21.7785C210.569 22.6906 213.184 22.7346 220.522 24.3132C220.837 24.3998 221.145 24.5088 221.451 24.6202C221.543 24.6667 221.633 24.7154 221.722 24.7665C222.279 25.3267 222.21 25.6096 223.895 27.617C228.945 33.7111 235.822 37.8325 242.282 42.251C245.736 44.5059 246.451 45.1857 250.169 49.0378C250.262 49.1748 250.326 49.2638 250.38 49.3329C250.551 49.5998 250.706 49.877 250.844 50.1629C250.896 50.3331 250.959 50.5539 251.01 50.7802C250.998 54.9863 251.127 55.2742 250.47 57.7481C248.523 62.1261 249.127 66.8706 249.625 71.4766C249.669 72.1789 249.653 72.8837 249.577 73.5833C249.313 75.3617 248.942 77.1228 248.469 78.8574C247.686 80.9722 247.077 83.182 247.706 85.4271C249.769 92.4751 254.865 100.128 256.701 107.827C256.766 108.103 256.831 108.38 256.889 108.658C256.924 109.29 256.867 109.923 256.873 110.554C256.916 112.648 257.078 114.737 257.357 116.813C257.866 121.21 258.692 125.56 259.543 129.901C259.846 132.325 259.799 134.78 259.404 137.191C257.973 140.082 254.364 140.725 251.578 141.716C249.799 142.274 248.028 142.857 246.251 143.418C247.06 143.312 247.869 143.209 248.679 143.11C253.798 142.395 261.578 142.563 262.663 136.108C263.426 133.18 263.687 130.143 263.435 127.127C263.2 122.698 263.122 118.258 263.277 113.826Z" fill="white"/>
<path d="M240.455 87.781C241.252 87.7536 242.047 87.7239 242.842 87.7004C245.408 87.6372 242.907 87.5288 241.678 87.3351C241.25 87.2773 240.822 87.2208 240.392 87.1656C240.301 86.2796 240.213 85.3928 240.12 84.507C240.014 83.5663 239.905 82.6258 239.793 81.6855C239.594 83.4594 239.427 85.2368 239.246 87.0127C237.031 86.7507 234.835 86.35 232.67 85.8128C230.988 85.256 229.355 84.5559 227.65 84.0618C224.044 82.8804 220.195 82.7753 216.6 81.5442C210.656 79.7069 206.867 77.329 200.27 75.2597C186.213 71.341 171.451 68.6331 156.839 70.3634C151.741 71.2062 146.911 73.192 141.836 74.1667C137.033 75.4207 128.531 74.6399 121.312 76.6417C106.776 80.8447 100.079 83.26 84.9565 78.6427C95.9992 83.8676 103.616 84.8937 115.64 82.7013C121.756 81.6789 124.637 80.8394 131.096 81.058C136.094 81.4843 141.126 81.251 146.063 80.364C149.957 79.726 153.742 78.539 157.635 77.9167C163.609 77.5173 169.602 77.5007 175.577 77.8671C185.279 78.4869 190.802 79.4481 200.861 81.3808C208.544 83.5369 216.147 86.3177 224.238 86.231C226.806 86.3969 229.368 87.1202 232.585 87.6765C234.773 87.8632 236.97 87.9098 239.164 87.816C238.718 92.2771 238.308 96.7419 237.975 101.213C236.369 121.411 236.959 141.695 238.613 161.869C239.456 174.697 240.359 187.525 241.753 200.307C243.354 184.384 244.911 168.411 244.821 152.392C244.585 130.801 242.664 109.253 240.455 87.781Z" fill="white"/>
<path d="M137.656 285.536C147.589 285.266 157.419 283.441 166.787 280.126C156.853 280.396 147.024 282.222 137.656 285.536V285.536Z" fill="white"/>
<path d="M190.191 380.16C187.037 378.594 183.622 377.617 180.117 377.279C181.411 377.678 183.192 378.429 184.118 378.804C193.568 382.92 197.86 391.534 192.013 399.555C185.073 408.185 166.175 411.29 156.51 412.264C145.851 412.952 135.159 412.919 124.505 412.167C114.479 411.496 109.044 411.206 100.071 409.103C94.0902 407.527 91.1019 406.775 86.4671 404.253C85.0624 403.613 83.8447 402.625 82.93 401.381C82.0152 400.138 81.4338 398.681 81.2411 397.15C81.093 395.834 81.2231 394.502 81.6228 393.239C82.0225 391.977 82.683 390.813 83.5614 389.822C85.0097 390.075 86.4518 390.342 87.8833 390.563C86.6553 390.074 85.4577 389.611 84.281 389.183C88.6032 386.718 93.6354 387.607 98.3869 388.141C98.3739 388.302 98.3629 388.463 98.3499 388.624C98.4012 388.468 98.4529 388.311 98.5049 388.154C98.9888 388.208 99.4706 388.259 99.9475 388.301C99.4981 388.175 99.0431 388.043 98.5856 387.909C98.6687 387.657 98.7515 387.406 98.8339 387.155C106.142 365.692 109.583 343.103 108.996 320.438C105.059 338.24 100.943 356.06 99.4789 374.275C99.0722 378.798 98.7677 383.33 98.4085 387.857C93.1625 386.322 87.4394 384.543 82.3321 387.224C81.9266 387.501 81.5408 387.805 81.1775 388.136C74.4233 386.053 68.1742 385.626 60.7885 389.415C51.5342 393.638 44.9273 401.622 40.0958 410.357C33.4474 421.868 29.0021 434.464 25.6008 447.274C19.9462 468.489 15.2612 489.975 10.9695 511.504C9.17011 521.946 7.93318 535.54 6.72565 543.173C4.85578 556.878 2.37891 570.486 0.376251 584.17C0.247251 585.084 0.12497 585.999 0 586.913C0.42294 585.553 0.859635 584.197 1.29688 582.841C6.68112 567.02 11.6967 551.056 15.1406 534.684C19.3573 512.476 23.975 490.35 28.994 468.305C33.4948 448.683 38.6812 429.573 46.4622 413.747C50.1763 406.333 52.5922 401.63 58.2137 396.742C61.9677 393.478 66.2718 390.594 71.1702 389.443C74.1095 388.858 77.1295 388.803 80.0882 389.28C78.2553 391.589 77.255 394.449 77.2489 397.397C77.2429 400.345 78.2316 403.209 80.055 405.526C86.8001 412.883 99.477 416.255 109.054 418.085C120.485 420.003 132.115 420.313 143.684 420.422C153.744 420.521 163.87 419.535 173.456 416.351C180.871 414.02 188.365 410.767 193.953 405.225C201.704 397.257 200.196 385.372 190.191 380.16Z" fill="white"/>
<path d="M225.049 395.548C222.663 392.236 220.052 388.716 216.278 386.926C210.304 384.251 203.668 383.417 197.217 384.531C203.558 384.531 209.759 386.402 215.041 389.909C217.422 391.765 218.913 394.528 220.374 397.116C227.521 409.79 223.117 432.229 221.613 448.467C219.844 465.079 217.624 481.658 216.61 498.34C215.538 517.754 215.618 537.211 215.411 556.648C215.406 557.761 215.401 558.874 215.391 559.987C215.519 559.36 215.651 558.734 215.78 558.107C220.204 537.033 222.798 515.646 225.306 494.277C227.181 478.808 228.635 463.292 230.484 447.82C232.085 431.761 234.473 409.487 225.049 395.548Z" fill="white"/>
<path d="M76.8665 493.968C63.1318 523.31 52.2845 554.277 48.6738 586.61C56.2834 564.966 65.4306 543.81 71.0137 521.507C73.5411 511.909 75.5321 502.184 77.6506 492.492C77.948 491.386 77.0581 493.645 76.8665 493.968Z" fill="white"/>
<path d="M182.047 492.003C176.403 507.52 172.318 523.561 169.852 539.887C167.554 556.607 167.25 573.534 167.811 590.38C173.701 562.743 178.057 538.728 180.553 511.985C181.251 505.061 181.691 498.11 182.49 491.196C182.673 490.116 182.223 491.65 182.047 492.003Z" fill="white"/>
<path d="M175.413 462.762C172.011 469.71 166.268 475.894 160.57 477.994C155.155 479.946 150.608 479.465 149.443 478.164C149.966 468.361 151.687 455.666 151.975 444.853C149.67 453.966 147.4 463.092 145.391 472.276C144.982 474.878 143.845 477.71 144.841 480.284C147.381 485.281 154.238 485.34 158.988 484.009C172.827 480.145 177.755 464.743 180.85 452.238C180.988 451.654 181.116 451.068 181.239 450.482C179.476 454.656 177.541 458.76 175.413 462.762Z" fill="white"/>
</g>
<defs>
<clipPath id="clip0_320_6303">
<rect width="263.606" height="590.38" fill="white"/>
</clipPath>
</defs>
</svg>
