<svg width="676" height="676" viewBox="0 0 676 676" fill="none" xmlns="http://www.w3.org/2000/svg">
<g clip-path="url(#clip0_331_6346)">
<path d="M676 338C676.06 383.755 666.799 429.042 648.78 471.1L647.66 473.68C617.181 543.019 564.33 600.135 497.56 635.894C430.791 671.653 353.958 683.989 279.35 670.93C277.32 670.57 275.293 670.197 273.27 669.81C252.363 665.757 231.891 659.72 212.13 651.78C208.92 650.49 205.733 649.153 202.57 647.77C200.41 646.83 198.25 645.86 196.11 644.86C137.569 617.728 88.0051 574.426 53.2593 520.058C18.5135 465.69 0.0343666 402.522 0 338C0 151.33 151.33 0 338 0C524.67 0 676 151.33 676 338Z" fill="#F0F0F0"/>
<path opacity="0.2" d="M221.714 241.521C215.334 277.519 229.419 310.114 229.419 310.114C229.419 310.114 253.849 284.345 260.229 248.348C266.61 212.351 252.525 179.756 252.525 179.756C252.525 179.756 228.095 205.524 221.714 241.521Z" fill="black"/>
<path d="M337.306 412.849C410.081 412.849 469.076 353.853 469.076 281.079C469.076 208.304 410.081 149.309 337.306 149.309C264.532 149.309 205.536 208.304 205.536 281.079C205.536 353.853 264.532 412.849 337.306 412.849Z" fill="#D0CDE1"/>
<path d="M285.833 381.965C285.833 381.965 302.305 460.204 302.305 468.439C302.305 476.675 380.543 513.735 380.543 513.735L450.546 501.382L475.253 427.261C475.253 427.261 434.075 365.494 434.075 340.787L285.833 381.965Z" fill="#D0CDE1"/>
<path d="M648.78 471.1L647.66 473.68C617.181 543.019 564.33 600.135 497.561 635.894C430.791 671.653 353.958 683.989 279.35 670.93C277.32 670.57 275.294 670.197 273.27 669.81C252.363 665.757 231.891 659.72 212.13 651.78C208.92 650.49 205.734 649.153 202.57 647.77C200.41 646.83 198.25 645.86 196.11 644.86C176.713 635.874 158.213 625.065 140.86 612.58L125.24 567.27L134.02 560.57L152.08 546.78L171.35 532.07L176.36 528.24L251.97 470.52L257.55 466.26L296.85 436.26L296.86 436.25C296.86 436.25 339.36 505.5 401.13 484.91C462.9 464.32 461.55 405.28 461.55 405.28L648.78 471.1Z" fill="#D73F09"/>
<path d="M223.035 174.916C223.035 174.916 264.872 84.2702 345.059 105.188C425.245 126.107 470.568 157.484 474.054 188.862C477.541 220.239 472.311 267.305 472.311 267.305C472.311 267.305 463.595 202.807 407.813 216.753C352.031 230.698 264.872 220.239 264.872 220.239L250.926 345.749C250.926 345.749 235.238 323.087 217.806 337.033C200.374 350.978 167.253 202.807 223.035 174.916Z" fill="#2F2E41"/>
<path d="M212.13 651.78C208.92 650.49 205.733 649.153 202.57 647.77C200.41 646.83 198.25 645.86 196.11 644.86C164.029 629.984 134.475 610.177 108.52 586.16C117.71 573.64 125.24 567.27 125.24 567.27H187.01L196.27 598.41L212.13 651.78Z" fill="#D73F09"/>
<path d="M594.67 464.32L647.66 473.68C633.479 505.985 614.327 535.871 590.9 562.25L594.67 464.32Z" fill="#D73F09"/>
</g>
<defs>
<clipPath id="clip0_331_6346">
<rect width="676" height="676" fill="white"/>
</clipPath>
</defs>
</svg>
