<svg width="359" height="599" viewBox="0 0 359 599" fill="none" xmlns="http://www.w3.org/2000/svg">
<g clip-path="url(#clip0_320_6197)">
<path d="M97.6862 387.507L80.6553 372.586C62.9331 414.708 45.2109 456.829 27.4888 498.951C71.9236 480.531 100.154 429.35 97.6862 387.507Z" fill="#93C5FD"/>
<path d="M122.334 377.729C110.904 403.562 124.403 437.51 150.45 448.441C176.498 459.372 210.18 445.225 220.609 418.972C225.525 406.596 244.22 404.842 254.366 413.467C264.512 422.091 267.19 436.853 265.822 450.099C264.454 463.344 259.77 476.04 257.858 489.218C255.946 502.396 257.318 517.1 266.323 526.909C274.675 508.481 279.214 488.554 279.67 468.327C280.125 448.1 276.486 427.99 268.971 409.204C263.41 395.521 244.726 389.158 231.969 396.602C197.389 416.781 148.793 408.268 122.334 377.729Z" fill="#93C5FD"/>
<path d="M152.094 164.964C146.266 165.108 146.281 173.648 152.095 173.808C157.923 173.663 157.908 165.124 152.094 164.964Z" fill="#1E293B"/>
<path d="M242.21 163.658C236.381 163.802 236.396 172.341 242.21 172.502C248.039 172.357 248.024 163.818 242.21 163.658Z" fill="#1E293B"/>
<path d="M180.939 114.637C179.284 110.79 176.829 107.34 173.738 104.515C170.646 101.691 166.989 99.5561 163.009 98.2537C156.779 96.5959 149.887 96.4418 143.806 98.7625C134.526 102.369 128.749 111.134 123.954 119.412C130.211 112.128 137.019 104.877 144.797 102.478C148.777 101.306 150.367 101.273 154.622 101.238C160.343 101.045 165.984 102.62 170.777 105.749C174.808 108.226 178.283 111.511 180.981 115.398C181.233 115.726 181.472 116.063 181.718 116.396C181.467 115.805 181.21 115.218 180.939 114.637Z" fill="#1E293B"/>
<path d="M286.571 112.687C286.033 108.837 284.75 105.128 282.794 101.769C278.879 94.5002 270.649 91.1463 262.731 90.7376C255.64 90.0344 248.486 91.1658 241.958 94.0232C235.938 96.2499 231.184 100.772 227.202 105.68C223.337 110.641 220.21 116.135 217.918 121.992C224.063 112.857 230.828 104.953 240.146 100.082C244.298 98.3029 248.648 97.0274 253.104 96.2832C259.819 95.6867 272.433 94.7806 279.087 102.063C282.568 105.655 284.731 110.025 286.54 115.172C287.725 119.047 286.741 114.078 286.571 112.687Z" fill="#1E293B"/>
<path d="M181.197 27.3153C176.403 18.3996 169.718 4.4 159.85 0.720122C145.795 -3.12346 132.085 9.15578 124.858 20.0789C115.887 34.5771 109.503 50.4951 102.287 65.9012C94.9294 82.5764 86.8243 98.9127 79.1672 115.452C72.193 130.69 63.967 145.344 57.4816 160.802C51.8399 175.33 50.8812 188.048 56.2446 202.867C58.4524 209.405 61.4912 215.614 64.265 221.921C68.6068 232.31 73.5419 242.643 81.091 251.122C86.6583 256.724 92.9942 261.991 100.39 264.941C96.8518 262.771 93.634 260.118 90.8301 257.058C87.7375 254.004 84.9847 250.624 82.6198 246.977C76.1095 236.304 73.7587 227.776 69.413 216C63.5486 201.52 58.6178 187.649 61.2404 176.646C64.3977 160.77 71.7352 149.491 79.0433 133.746C85.0559 121.419 90.7608 108.945 96.4943 96.4871C100.708 87.5258 105.069 78.6322 108.854 69.4766C116.294 53.4152 124.856 31.3462 133.739 19.8637C141.674 10.8897 150.047 5.60006 157.913 7.74441C160.637 8.5396 165.758 14.1965 169.294 19.449C182.53 37.8646 187.49 49.6898 188.439 72.2461C190.157 56.3281 188.817 41.673 181.197 27.3153Z" fill="#1E293B"/>
<path d="M358.214 188.601C357.808 175.164 356.629 161.762 354.683 148.46C352.243 131.286 348.843 114.274 344.829 97.4026C342.414 87.0964 340.644 76.5271 336.625 66.6894C331.062 54.0152 323.72 42.1989 314.822 31.5973C303.428 17.87 284.997 11.882 267.527 13.6303C252.962 14.9281 238.594 18.3059 224.639 22.6064C215.886 25.4502 207.082 28.671 199.524 34.0319C195.488 37.1825 191.775 40.7257 188.439 44.6096C192.798 41.0374 197.014 37.6441 202.103 35.054C208.016 32.3352 214.202 30.2544 220.556 28.8469C234.28 25.6624 248.166 23.2166 262.152 21.5202C271.74 20.742 278.577 20.2885 286.075 22.5469C295.704 25.325 301.102 28.5583 308.063 36.4088C316.22 45.319 326.274 62.8694 330.179 73.5691C332.822 81.9449 334.621 90.5496 336.55 99.1094C338.482 107.69 340.599 116.232 342.326 124.857C345.92 143.619 348.243 157.068 349.39 175.459C350.097 184.041 350.178 192.664 349.632 201.257C347.353 223.173 340.801 246.802 322.68 261.672C318.721 265.164 307.709 271.161 299.73 274.452C292.47 277.45 279.243 281.935 269.152 283.538C267.745 283.809 266.336 284.066 264.924 284.308C265.707 284.321 266.491 284.328 267.275 284.329C283.269 284.535 299.143 281.535 313.958 275.506C337.942 266.356 349.853 244.138 355.039 220.209C357.289 209.827 358.354 199.223 358.214 188.601V188.601Z" fill="#1E293B"/>
<path d="M219.14 254.344C219.785 254.166 220.419 253.953 221.041 253.706C229.129 250.44 236.011 244.755 240.745 237.429C242.129 235.273 243.24 232.954 244.055 230.525C243.731 230.991 243.217 231.659 242.956 231.995C240.35 235.203 237.38 238.098 234.106 240.621C229.334 244.103 220.46 250.316 213.092 251.378C206.475 252.223 199.769 252.091 193.19 250.988C197.838 252.823 202.553 254.54 207.58 254.895C211.352 255.449 215.194 255.282 218.904 254.404" fill="#1E293B"/>
<path d="M186.036 209.489C187.848 205.088 190.875 201.295 194.763 198.551C191.392 199.736 188.385 201.772 186.032 204.461C183.679 207.15 182.06 210.402 181.333 213.9C180.482 219.023 182.742 225.008 187.81 227.005C188.904 227.471 190.032 227.853 191.184 228.148C190.155 227.504 189.149 226.821 188.185 226.082C182.483 221.934 183.766 213.761 186.036 209.489Z" fill="#1E293B"/>
<path d="M299.384 522.313C299.815 518.908 300.222 515.5 300.565 512.083C302.428 492.649 304.619 473.127 303.827 453.579C303.014 441.635 300.957 429.809 297.691 418.291C292.235 400.43 280.087 383.668 262.083 377.083C255.934 374.322 249.322 372.735 242.589 372.405C238.199 372.28 233.805 372.468 229.441 372.968C227.524 366.333 220.969 360.806 215.436 357.051C213.47 355.654 211.355 354.48 209.13 353.552C209.342 353.698 209.555 353.844 209.768 353.992C217.158 359.903 227.507 371.022 224.254 379.084C221.006 385.42 208.452 383.345 197.151 384.322C190.656 384.69 184.161 385.199 177.651 385.197C169.701 385.1 161.765 384.494 153.892 383.382C145.519 382.168 137.092 381.119 128.974 378.639C122.847 376.73 117.15 374.586 113.23 369.505C112.247 368.397 111.663 366.991 111.571 365.512C111.401 363.367 111.758 361.507 113.142 360.52C115.56 358.744 118.717 358.649 121.64 358.837C124.904 359.038 128.162 359.328 131.421 359.594C131.369 360.967 131.325 362.34 131.289 363.713C131.295 363.987 131.187 364.831 131.34 364.273C131.839 362.758 132.304 361.232 132.762 359.703C132.967 359.719 133.171 359.738 133.376 359.753C133.183 359.7 132.99 359.647 132.796 359.593C132.872 359.342 132.956 359.093 133.031 358.841C135.163 351.548 136.874 344.138 138.155 336.649C139.874 326.468 140.383 316.141 140.98 305.841C146.451 309.056 152.337 311.502 158.475 313.112C169.924 316.05 181.741 317.301 193.552 316.828C199.514 316.819 205.468 316.39 211.37 315.542C208.431 329.202 206.519 345.278 207.629 356.986C211.65 343.482 213.388 329.402 212.774 315.325C220.604 314.141 228.199 311.732 235.28 308.187C249.867 300.724 261.476 288.607 271.861 276.154C280.389 264.959 288.615 253.349 294.708 240.624C297.014 235.682 298.848 230.534 300.184 225.247C301.108 220.049 301.356 214.753 300.92 209.491C300.789 207.524 300.733 211.023 300.607 211.683C299.601 218.816 298.074 225.389 294.804 231.195C289.969 241.514 278.96 255.387 275.31 260.109C266.103 272.121 256.212 283.732 244.589 293.485C242.425 295.163 240.221 296.782 237.917 298.267C234.364 300.494 230.649 302.452 226.803 304.122C223.035 305.49 219.178 306.597 215.258 307.435C208.432 309.072 202.359 309.39 193.552 309.533C183.108 309.716 174.988 309.24 166.683 307.528C162.439 306.663 158.255 305.527 154.155 304.128C149.678 302.299 145.375 300.069 141.298 297.468C140.351 296.877 139.44 296.23 138.569 295.532C128.824 287.224 120.823 278.475 115.079 269.383C104.727 254.145 99.0783 238.668 97.9172 221.312C97.3871 216.25 97.1224 211.165 97.1245 206.076C97.3302 201.571 98.3882 197.359 99.2654 192.741C97.8301 197.012 96.2136 201.256 95.4406 205.71C94.6674 212.099 94.3386 218.534 94.4565 224.968C94.2644 243.962 101.256 262.312 112.17 277.671C118.66 286.788 126.373 294.967 135.094 301.98C136.629 303.11 138.224 304.164 139.855 305.163C134.492 322.667 132.158 340.945 131.437 359.218C128.304 358.352 125.17 357.486 122.005 356.74C118.485 355.863 114.593 355.584 111.31 357.387C110.25 357.985 109.341 358.817 108.654 359.822C107.966 360.826 107.518 361.974 107.345 363.179C92.1242 357.709 74.2789 354.098 60.5478 364.881C50.6065 372.56 43.9846 383.77 39.0114 395.128C33.2718 408.255 28.3211 421.714 24.1858 435.431C19.3008 453.377 14.8591 471.445 10.2206 489.457C4.09577 514.568 1.22836 540.42 0.515015 566.232C0.371155 569.571 0.20894 572.91 0 576.246C0.237507 575.322 0.471591 574.397 0.702271 573.471C2.62666 564.491 4.60018 555.521 6.6228 546.562C20.1243 551.273 34.1871 554.048 47.7987 558.358C51.9864 559.85 56.0895 561.571 60.0894 563.511C59.0762 572.554 58.171 581.611 57.0458 590.641C56.9824 591.711 56.5721 593.882 57.2442 591.511C60.1645 583.072 62.5652 574.483 64.6837 565.82C65.58 566.287 66.4963 566.773 67.4429 567.283C68.6585 567.939 69.8585 568.625 71.0555 569.313C70.313 568.613 69.5612 567.923 68.8002 567.244C67.5964 566.182 66.3557 565.154 65.0974 564.147C66.4467 558.526 67.6804 552.876 68.8564 547.215C71.347 535.533 73.015 523.721 74.4519 511.874C75.5755 512.08 76.6953 512.304 77.8219 512.497C79.3698 512.778 80.9166 513.066 82.4623 513.36C81.513 512.944 80.563 512.528 79.6092 512.122C77.9736 511.389 76.3283 510.692 74.6786 510.013C76.1739 497.479 77.4424 484.91 79.1771 472.414C75.2735 484.075 72.0266 495.931 69.2979 507.91C52.829 501.646 35.3186 498.573 17.7009 498.855C22.4072 479.249 27.2632 459.68 32.269 440.147C39.009 417.526 49.9764 384.213 64.9002 370.522C74.9534 360.864 90.8765 360.845 107.258 363.606C107.08 364.614 106.996 365.637 107.009 366.662C107.616 373.279 113.063 378.317 118.515 381.488C129.266 387.72 141.76 389.649 153.884 391.405C162.972 392.76 172.153 393.389 181.341 393.284C190.789 393.066 200.158 391.695 209.55 390.75C216.794 389.95 226.094 388.923 229.221 381.231C230.124 378.694 230.234 375.943 229.537 373.343C236.624 373.904 242.965 374.361 249.767 376.918C255.047 378.514 265.536 385.194 267.357 386.589C271.127 389.299 276.447 395.577 277.192 396.718C285.93 409.137 289.295 418.866 292.112 434.299C294.173 444.109 295.061 454.129 294.759 464.149C294.48 482.823 292.15 501.339 290.095 519.878C283.334 518.267 276.371 516.923 270.191 515.956C257.01 514.187 245.745 513.311 230.861 509.633C249.167 518.836 269.371 522.084 289.618 524.241C288.948 530.468 288.327 536.699 287.849 542.941C287.222 549.764 286.954 556.597 286.895 563.434C269.743 559.251 251.787 559.393 234.234 560.222C244.855 562.44 255.618 563.908 266.445 564.616C273.257 565.001 280.076 564.778 286.893 564.766C286.846 575.002 287.248 585.244 287.665 595.474C287.69 596.374 287.709 597.274 287.722 598.174C287.809 597.749 287.899 597.324 287.984 596.899C289.867 587.119 291.115 577.233 292.58 567.386C294.701 553.316 297.149 539.289 299.02 525.183C303.059 525.569 307.088 525.943 311.093 526.341C307.269 524.779 303.36 523.435 299.384 522.313ZM68.671 510.778C66.3442 521.33 64.3807 531.955 62.7804 542.654C61.8601 548.631 61.1038 554.628 60.4124 560.633C55.67 557.273 50.4615 554.624 44.9522 552.772C32.4977 549.222 19.4577 548.237 6.6712 546.348C10.1807 530.719 13.8026 515.116 17.5368 499.538C34.6946 502.747 51.5604 507.338 68.671 510.778H68.671Z" fill="#1E293B"/>
<path d="M218.217 539.031C216.942 553.189 217.437 567.405 217.837 581.59C220.72 571.4 222.44 555.156 223.911 544.606C226.14 525.871 226.823 506.993 228.985 488.247C223.376 504.683 219.761 521.733 218.217 539.031V539.031Z" fill="#1E293B"/>
<path d="M277.354 434.643C270.178 432.553 263.266 429.623 256.01 427.797C246.763 425.47 237.3 424.203 227.96 422.328C218.449 420.457 209.045 418.064 199.493 416.396C187.288 414.345 174.959 413.041 162.624 412.072C139.478 410.823 116.269 411.156 93.1137 409.946C84.7384 409.668 73.9167 408.948 66.9106 408.051C59.6892 406.915 52.5479 405.33 45.3691 403.959C53.6035 406.691 61.7391 409.846 70.2418 411.658C84.9578 414.821 99.9907 416.337 114.984 417.471C131.292 418.632 147.679 417.983 163.975 419.368C175.241 420.32 185.151 421.514 194.068 422.94C203.557 424.555 212.93 426.796 222.449 428.245C236.895 430.617 251.368 430.439 264.649 433.295C270.606 434.612 276.654 435.366 282.665 436.373C280.91 435.751 279.133 435.194 277.354 434.643Z" fill="#1E293B"/>
<path d="M288.389 465.254C276.186 463.389 263.962 461.642 251.817 459.416C244.097 457.946 236.519 455.801 228.772 454.459C214.223 451.708 199.383 451.572 184.632 451.097C157.536 449.936 130.685 445.985 103.768 442.945C92.4911 441.86 81.1385 441.992 69.8427 441.208C57.7177 440.383 45.6845 438.59 33.5654 437.685C45.749 440.338 57.8016 443.626 70.1218 445.611C84.2667 447.725 96.6324 448.489 108.958 450.243C135.267 454.038 171.982 458.489 202.057 459.155C219.145 460.01 231.295 461.996 247.64 464.342C258.029 465.489 268.504 465.69 278.948 465.841C283.531 465.906 288.119 465.822 292.699 466.026C291.269 465.734 289.831 465.483 288.389 465.254Z" fill="#1E293B"/>
<path d="M215.223 516.597C203.711 511.245 191.459 507.675 179.093 504.909C168.614 502.448 157.97 500.745 147.246 499.812C125.482 498.364 103.149 499.558 81.9058 496.143C100.991 502.317 121.033 504.352 140.904 506.289C154.265 507.726 169.208 509.651 176.189 510.592C186.941 512.007 200.528 513.832 213.178 516.903C215.151 517.391 217.115 517.923 219.043 518.564C217.788 517.874 216.514 517.218 215.223 516.597Z" fill="#1E293B"/>
<path d="M207.675 569.258C201.54 563.922 193.878 560.892 186.427 557.881C178.083 554.378 169.382 551.794 160.479 550.175C148.457 547.997 136.199 547.868 124.016 547.9C113.914 547.78 103.812 547.62 93.71 547.855C103.592 549.362 113.449 551.032 123.344 552.446C142.593 554.933 155.148 555.909 175.213 560.637C185.178 563.275 196.486 565.179 205.125 569.18C207.536 570.394 209.858 571.78 212.07 573.328C210.654 571.92 209.195 570.554 207.675 569.258Z" fill="#1E293B"/>
</g>
<defs>
<clipPath id="clip0_320_6197">
<rect width="358.242" height="598.174" fill="white"/>
</clipPath>
</defs>
</svg>
