<svg xmlns="http://www.w3.org/2000/svg" data-name="Layer 1" width="707.22487" height="129.78494" viewBox="0 0 707.22487 129.78494" xmlns:xlink="http://www.w3.org/1999/xlink"><path d="M265.19661,405.02167c-12.085,5.71874-18.67627,15.97959-18.8069,26.30414s5.70164,20.618,14.53968,29.269c5.74165,5.6201,13.24072,10.8547,22.69836,12.81879,16.20519,3.36536,33.31875-4.52924,38.858-15.18908s1.7222-22.95961-5.46178-33.58571c-5.22058-7.722-12.59978-15.21-23.3455-19.47s-25.37-4.43008-33.739,1.34065" transform="translate(-246.38756 -385.10753)" fill="#93c5fd"/><path d="M447.77378,445.71513c-12.085,5.71874-18.67627,15.9796-18.8069,26.30414s5.70164,20.618,14.53968,29.269c5.74165,5.6201,13.24072,10.85471,22.69836,12.81879,16.20519,3.36536,33.31875-4.52923,38.858-15.18907s1.7222-22.95961-5.46179-33.58572c-5.22057-7.722-12.59977-15.21-23.34549-19.47s-25.37-4.43007-33.739,1.34065" transform="translate(-246.38756 -385.10753)" fill="#93c5fd"/><path d="M706.29347,388.06443c-12.085,5.71874-18.67628,15.97959-18.8069,26.30414s5.70164,20.618,14.53968,29.269c5.74165,5.6201,13.24072,10.8547,22.69836,12.81879,16.20519,3.36536,33.31875-4.52924,38.858-15.18908s1.72219-22.95961-5.46179-33.58571c-5.22058-7.722-12.59977-15.21-23.34549-19.47s-25.37-4.43008-33.739,1.34065" transform="translate(-246.38756 -385.10753)" fill="#93c5fd"/><path d="M893.68088,445.71513c-12.08505,5.71874-18.67628,15.9796-18.8069,26.30414s5.70164,20.618,14.53968,29.269c5.74165,5.6201,13.24071,10.85471,22.69836,12.81879,16.20519,3.36536,33.31875-4.52923,38.858-15.18907s1.72219-22.95961-5.46179-33.58572c-5.22058-7.722-12.59977-15.21-23.34549-19.47s-25.37-4.43007-33.739,1.34065" transform="translate(-246.38756 -385.10753)" fill="#93c5fd"/><path d="M290.42612,500.57179c3.027-14.53259,4.81735-29.10659,3.131-43.443-2.30161-13.8602-7.81146-26.40826-12.92969-39.40982C278.62529,444.1169,282.02038,479.33861,290.42612,500.57179Z" transform="translate(-246.38756 -385.10753)"/><path d="M317.67364,458.967c-4.97946,5.0036-10.09549,9.48-15.078,13.83911-2.49325,2.1803-4.957,4.333-7.37561,6.51364-1.20944,1.09009-2.40295,2.19229-3.594,3.299l-.84952.81055c-.04361.04342-.08539.08951-.1265.13946l-.12271.16257c-.03009.04874-.00287.04919-.01016.08585a1.07705,1.07705,0,0,1-.00961.26873.67635.67635,0,0,1-.57349.46918.25494.25494,0,0,1-.07407.01029c-.01785-.00235-.02044.00763-.052-.00422l-.13009-.06286-.52155-.24945-1.04788-.49q-1.054-.483-2.10239-.96341c-2.8117-1.26786-5.65829-2.47437-8.53137-3.67929-5.74362-2.40924-11.60382-4.81318-17.42015-7.674a105.213,105.213,0,0,0,12.18552,13.40125c2.3115,2.15137,4.74639,4.23968,7.27464,6.23676l1.91308,1.4804,2.23768,1.65839c2.55264,1.82721,5.11676,3.63074,7.65853,5.38434q2.16207-1.96674,4.318-3.92786l1.95544-1.84454.96674-.91736.48034-.45728c.09324-.08715.14249-.13787.17963-.17852l.13153-.13874c1.40881-1.47247,2.765-2.97809,4.04825-4.5206a76.794,76.794,0,0,0,6.81067-9.54934A56.43777,56.43777,0,0,0,317.67364,458.967Z" transform="translate(-246.38756 -385.10753)"/><path d="M468.34122,459.10158c14.53259,3.02695,29.10659,4.81735,43.443,3.131,13.8602-2.3016,26.40829-7.81146,39.40982-12.92969C524.79608,447.30074,489.5744,450.69585,468.34122,459.10158Z" transform="translate(-246.38756 -385.10753)"/><path d="M509.946,486.34911c-5.0036-4.97946-9.48-10.09549-13.83911-15.078-2.1803-2.49322-4.333-4.957-6.51364-7.37558-1.09009-1.20944-2.19229-2.403-3.299-3.594l-.81055-.84949c-.04342-.04361-.08951-.08539-.13946-.12649l-.16257-.12274c-.04874-.03009-.04919-.00284-.08585-.01014a1.07753,1.07753,0,0,1-.26876-.00964.67634.67634,0,0,1-.46915-.57346.254.254,0,0,1-.01029-.07409c.00235-.01785-.00762-.02042.00422-.052l.06283-.13013.24945-.52152.49008-1.04788q.483-1.054.96341-2.10238c1.26783-2.81174,2.47437-5.65833,3.67929-8.53138,2.40925-5.74365,4.81318-11.60382,7.674-17.42016a105.21515,105.21515,0,0,0-13.40125,12.18551c-2.15137,2.31153-4.23965,4.7464-6.23672,7.27466l-1.48044,1.91309-1.65836,2.23764c-1.82724,2.55267-3.63077,5.11679-5.3844,7.65854q1.96674,2.16206,3.92789,4.318l1.84454,1.95545.91739.96673.45722.48035c.08722.09323.1379.14248.17852.17962l.13877.13154c1.47247,1.40878,2.97809,2.765,4.5206,4.04821a76.78686,76.78686,0,0,0,9.54934,6.8107A56.43863,56.43863,0,0,0,509.946,486.34911Z" transform="translate(-246.38756 -385.10753)"/><path d="M710.8826,417.449c-3.027,14.53259-4.81739,29.1066-3.131,43.443,2.30163,13.8602,7.81146,26.40827,12.92968,39.40982C722.68338,473.90386,719.2883,438.68215,710.8826,417.449Z" transform="translate(-246.38756 -385.10753)"/><path d="M683.635,459.05382c4.97949-5.00363,10.09552-9.48,15.078-13.83911,2.49323-2.1803,4.957-4.333,7.37561-6.51367,1.20941-1.09006,2.403-2.19226,3.594-3.299l.84948-.81051c.04364-.04346.08539-.08954.12653-.13947l.12274-.16256c.03009-.04877.00281-.0492.01013-.08588a1.076,1.076,0,0,1,.00965-.26874.6763.6763,0,0,1,.57342-.46915.25434.25434,0,0,1,.0741-.01031c.01788.00238.02045-.0076.052.00421l.13013.06287.52148.24945,1.04791.49q1.054.483,2.10236.96344c2.81177,1.26782,5.65833,2.47433,8.53137,3.67929,5.74366,2.40924,11.60382,4.81314,17.42017,7.674a105.20668,105.20668,0,0,0-12.18555-13.40124c-2.31146-2.15137-4.74634-4.23969-7.2746-6.23676l-1.91308-1.48044-2.23767-1.65835c-2.55268-1.82721-5.11676-3.63077-7.65851-5.38437q-2.16211,1.96674-4.318,3.92785l-1.95545,1.84455-.96673.91739-.48035.45721c-.09326.08722-.14252.13791-.17963.17856l-.13153.13873c-1.40881,1.47248-2.765,2.97812-4.04822,4.52063a76.78323,76.78323,0,0,0-6.81073,9.54935A56.43854,56.43854,0,0,0,683.635,459.05382Z" transform="translate(-246.38756 -385.10753)"/><path d="M953.60629,458.91924c-14.53259-3.027-29.10663-4.81739-43.443-3.13105-13.86023,2.30158-26.40827,7.81144-39.40985,12.92963C897.1514,470.72,932.37308,467.32494,953.60629,458.91924Z" transform="translate(-246.38756 -385.10753)"/><path d="M912.00143,431.67168c5.0036,4.97943,9.48,10.09549,13.83911,15.078,2.1803,2.49326,4.333,4.957,6.51368,7.37561,1.09,1.20944,2.19226,2.403,3.299,3.594l.81054.84948c.04346.04361.08954.08539.13947.12653l.16254.12271c.04876.03009.04919.00284.08587.01013a1.07737,1.07737,0,0,1,.26874.00965.67637.67637,0,0,1,.46918.57345.25574.25574,0,0,1,.01031.0741c-.00238.01785.00757.02041-.00421.052l-.06286.13013-.24946.52154-.49,1.04788q-.483,1.054-.96344,2.10239c-1.26782,2.81171-2.47436,5.6583-3.67932,8.53134-2.40924,5.74362-4.81317,11.60382-7.674,17.42014a105.21608,105.21608,0,0,0,13.40125-12.18549c2.15136-2.31152,4.23968-4.7464,6.23675-7.27466l1.48041-1.913,1.65839-2.23767c1.8272-2.55268,3.63079-5.11676,5.38439-7.65854l-3.92785-4.318-1.84455-1.95545-.91741-.96673-.45722-.48035c-.08722-.09323-.13788-.14249-.17853-.17966l-.13873-.13153c-1.47247-1.40878-2.97809-2.765-4.52063-4.04822a76.79338,76.79338,0,0,0-9.54932-6.8107A56.4379,56.4379,0,0,0,912.00143,431.67168Z" transform="translate(-246.38756 -385.10753)"/></svg>